<svg width="40" height="40" viewBox="0 0 40 40" fill="none" xmlns="http://www.w3.org/2000/svg">
<path d="M30.0002 36.6666H21.6668V4.70489L28.8335 11.8716C29.1479 12.1752 29.5689 12.3431 30.0059 12.3394C30.4428 12.3356 30.8609 12.1603 31.1699 11.8513C31.4789 11.5422 31.6542 11.1242 31.658 10.6872C31.6618 10.2502 31.4938 9.82923 31.1902 9.51489L22.9468 1.27156C22.5599 0.884531 22.1005 0.577518 21.5949 0.368055C21.0894 0.158592 20.5474 0.0507813 20.0002 0.0507812C19.4529 0.0507813 18.911 0.158592 18.4054 0.368055C17.8998 0.577518 17.4404 0.884531 17.0535 1.27156L8.80351 9.52156C8.491 9.83496 8.31578 10.2597 8.31641 10.7023C8.31703 11.1448 8.49345 11.569 8.80685 11.8816C9.12024 12.1941 9.54495 12.3693 9.98754 12.3687C10.4301 12.368 10.8543 12.1916 11.1668 11.8782L18.3335 4.71156V36.6666H10.0002C9.55815 36.6666 9.13423 36.8422 8.82167 37.1547C8.50911 37.4673 8.33351 37.8912 8.33351 38.3332C8.33351 38.7753 8.50911 39.1992 8.82167 39.5117C9.13423 39.8243 9.55815 39.9999 10.0002 39.9999H30.0002C30.4422 39.9999 30.8661 39.8243 31.1787 39.5117C31.4913 39.1992 31.6669 38.7753 31.6669 38.3332C31.6669 37.8912 31.4913 37.4673 31.1787 37.1547C30.8661 36.8422 30.4422 36.6666 30.0002 36.6666Z" fill="#4964EA"/>
</svg>
