<svg width="864" height="260" viewBox="0 0 864 260" fill="none" xmlns="http://www.w3.org/2000/svg">
<rect width="864" height="260" fill="white"/>
<rect x="32" y="32" width="140" height="160" rx="10" fill="#F3F3F5"/>
<path d="M57.4829 171H61.3856C63.752 171 64.8209 169.822 64.8209 168.261C64.8209 166.685 63.7172 165.795 62.708 165.74V165.641C63.6427 165.402 64.4232 164.766 64.4232 163.493C64.4232 161.987 63.3792 160.818 61.2116 160.818H57.4829V171ZM59.0191 169.683V166.421H61.2911C62.5241 166.421 63.2947 167.217 63.2947 168.186C63.2947 169.041 62.713 169.683 61.2364 169.683H59.0191ZM59.0191 165.223V162.126H61.1171C62.3351 162.126 62.9168 162.767 62.9168 163.612C62.9168 164.597 62.1114 165.223 61.0773 165.223H59.0191ZM66.643 171H68.1792V167.147H70.2673C70.3021 167.147 70.3319 167.147 70.3667 167.147L72.4349 171H74.1849L71.9278 166.879C73.1757 166.416 73.7971 165.377 73.7971 164.01C73.7971 162.136 72.6338 160.818 70.2723 160.818H66.643V171ZM68.1792 165.825V162.136H70.1082C71.6246 162.136 72.251 162.857 72.251 164.01C72.251 165.158 71.6246 165.825 70.1281 165.825H68.1792ZM76.5265 171L77.4612 168.305H81.4385L82.3682 171H83.9988L80.3348 160.818H78.5599L74.8959 171H76.5265ZM77.9086 167.013L79.4101 162.668H79.4896L80.991 167.013H77.9086ZM87.0054 160.818H85.4692V171H87.0054V160.818ZM97.4607 160.818H95.9394V168.295H95.8449L90.6645 160.818H89.2426V171H90.7789V163.533H90.8733L96.0487 171H97.4607V160.818ZM105.255 163.493H106.736C106.692 161.862 105.25 160.679 103.182 160.679C101.138 160.679 99.5724 161.847 99.5724 163.602C99.5724 165.019 100.587 165.849 102.222 166.292L103.425 166.62C104.514 166.908 105.354 167.266 105.354 168.171C105.354 169.165 104.405 169.822 103.097 169.822C101.914 169.822 100.93 169.295 100.84 168.186H99.2989C99.3983 170.031 100.825 171.169 103.107 171.169C105.498 171.169 106.876 169.911 106.876 168.186C106.876 166.352 105.24 165.641 103.947 165.322L102.953 165.064C102.158 164.86 101.099 164.487 101.104 163.513C101.104 162.648 101.894 162.006 103.147 162.006C104.315 162.006 105.146 162.553 105.255 163.493ZM108.209 162.141H111.381V171H112.912V162.141H116.089V160.818H108.209V162.141ZM126.251 165.909C126.251 162.653 124.302 160.679 121.667 160.679C119.022 160.679 117.079 162.653 117.079 165.909C117.079 169.161 119.022 171.139 121.667 171.139C124.302 171.139 126.251 169.165 126.251 165.909ZM124.73 165.909C124.73 168.39 123.417 169.737 121.667 169.737C119.912 169.737 118.605 168.39 118.605 165.909C118.605 163.428 119.912 162.081 121.667 162.081C123.417 162.081 124.73 163.428 124.73 165.909ZM128.166 171H129.703V167.147H131.791C131.826 167.147 131.855 167.147 131.89 167.147L133.958 171H135.708L133.451 166.879C134.699 166.416 135.321 165.377 135.321 164.01C135.321 162.136 134.157 160.818 131.796 160.818H128.166V171ZM129.703 165.825V162.136H131.632C133.148 162.136 133.774 162.857 133.774 164.01C133.774 165.158 133.148 165.825 131.652 165.825H129.703ZM137.19 160.818V171H138.652V163.627H138.746L141.749 170.985H142.962L145.965 163.632H146.059V171H147.521V160.818H145.657L142.415 168.733H142.296L139.054 160.818H137.19Z" fill="#0C0F1E"/>
<path d="M75.1574 123.081L76.1525 122.982L76.1524 122.982L75.1574 123.081ZM78.6536 116.949C79.1331 116.675 79.2997 116.065 79.0257 115.585C78.7516 115.106 78.1408 114.939 77.6613 115.213L78.6536 116.949ZM90.4927 124.595C89.948 124.686 89.58 125.201 89.6707 125.746C89.7615 126.29 90.2768 126.658 90.8215 126.568L90.4927 124.595ZM100.157 118.081L101.154 118.164L100.157 118.081ZM95.499 109.141C94.98 108.953 94.4062 109.22 94.2175 109.739C94.0287 110.258 94.2965 110.832 94.8155 111.021L95.499 109.141ZM75.4611 111.062C76.0027 111.17 76.5295 110.819 76.6378 110.277C76.7461 109.736 76.3949 109.209 75.8534 109.101L75.4611 111.062ZM70.1572 100.081L71.1436 100.246L70.1572 100.081ZM77.4319 94.5427C77.963 94.391 78.2705 93.8375 78.1188 93.3065C77.967 92.7754 77.4135 92.468 76.8825 92.6197L77.4319 94.5427ZM74.6572 84.5812L75.4466 85.1951L74.6572 84.5812ZM82.2511 82.995C82.7558 83.2193 83.3467 82.992 83.571 82.4873C83.7953 81.9827 83.5681 81.3917 83.0634 81.1674L82.2511 82.995ZM87.6905 74.8305C88.2425 74.8121 88.6751 74.3498 88.6567 73.7978C88.6383 73.2458 88.1759 72.8133 87.6239 72.8317L87.6905 74.8305ZM84.337 74.3545L84.6316 75.3101L84.337 74.3545ZM93.6572 67.0811L93.7987 66.0912L93.6572 67.0811ZM99.1572 76.0811L99.9893 76.6358L100.009 76.6057L100.027 76.5743L99.1572 76.0811ZM94.6572 77.5811C94.1049 77.5811 93.6572 78.0288 93.6572 78.5811C93.6572 79.1333 94.1049 79.5811 94.6572 79.5811V77.5811ZM93.4611 101.1C92.9196 101.209 92.5683 101.736 92.6766 102.277C92.785 102.819 93.3118 103.17 93.8533 103.062L93.4611 101.1ZM96.1044 88.1866C95.6105 87.9396 95.0098 88.1399 94.7628 88.6338C94.5158 89.1278 94.716 89.7285 95.21 89.9755L96.1044 88.1866ZM97.6572 90.3471L97.0274 91.1238L97.6572 90.3471ZM81.6871 123.339C81.5531 123.874 81.8789 124.417 82.4147 124.551C82.9505 124.685 83.4934 124.359 83.6274 123.824L81.6871 123.339ZM92.5632 117.827C93.113 117.879 93.6009 117.475 93.6528 116.925C93.7047 116.375 93.3011 115.887 92.7513 115.835L92.5632 117.827ZM79.5162 108.148C79.0007 107.949 78.4221 108.207 78.2239 108.722C78.0256 109.238 78.2828 109.816 78.7982 110.014L79.5162 108.148ZM89.21 107.975C89.704 108.222 90.3047 108.022 90.5517 107.528C90.7986 107.034 90.5984 106.434 90.1044 106.187L89.21 107.975ZM77.0948 99.833C76.5436 99.8675 76.1247 100.342 76.1592 100.893C76.1936 101.445 76.6684 101.864 77.2196 101.829L77.0948 99.833ZM92.5517 94.0283C92.7986 93.5343 92.5984 92.9336 92.1044 92.6866C91.6105 92.4396 91.0098 92.6399 90.7628 93.1338L92.5517 94.0283ZM81.2997 91.0666C81.0156 91.5401 81.1692 92.1544 81.6427 92.4385C82.1163 92.7227 82.7306 92.5691 83.0147 92.0956L81.2997 91.0666ZM95.5503 86.2367C96.0994 86.2957 96.5924 85.8985 96.6515 85.3494C96.7106 84.8002 96.3133 84.3072 95.7642 84.2481L95.5503 86.2367ZM86.9735 78.1324C86.4495 77.9577 85.8832 78.2409 85.7085 78.7648C85.5339 79.2888 85.8171 79.8551 86.341 80.0297L86.9735 78.1324ZM81.8773 130.047L81.964 129.051L81.8773 130.047ZM96.8571 123.181C97.5122 124.055 98.5389 126.109 98.595 128.294C98.6225 129.366 98.4163 130.443 97.8454 131.434C97.2768 132.42 96.3096 133.387 94.7101 134.187L95.6045 135.976C97.505 135.025 98.7877 133.804 99.5784 132.432C100.367 131.063 100.629 129.608 100.594 128.243C100.525 125.553 99.3019 123.108 98.4572 121.981L96.8571 123.181ZM94.7101 134.187C91.663 135.71 89.2571 135.551 87.4945 134.702C85.692 133.835 84.424 132.18 83.8255 130.494L81.9407 131.163C82.6835 133.256 84.2694 135.37 86.6271 136.504C89.0246 137.658 92.0852 137.735 95.6045 135.976L94.7101 134.187ZM81.964 129.051C80.5313 128.927 79.1888 128.412 78.1609 127.461C77.1428 126.519 76.3625 125.084 76.1525 122.982L74.1624 123.181C74.4148 125.706 75.3824 127.615 76.8026 128.929C78.2129 130.233 79.9991 130.888 81.7907 131.044L81.964 129.051ZM90.8215 126.568C92.4185 126.301 94.8245 125.59 96.9102 124.293C98.9887 123 100.916 121.014 101.154 118.164L99.1606 117.998C98.998 119.949 97.6755 121.462 95.8541 122.594C94.0398 123.723 91.8958 124.361 90.4927 124.595L90.8215 126.568ZM75.1574 123.081C76.1524 122.982 76.1525 122.982 76.1525 122.982C76.1525 122.982 76.1525 122.982 76.1525 122.982C76.1525 122.983 76.1526 122.983 76.1526 122.983C76.1526 122.983 76.1526 122.984 76.1526 122.984C76.1527 122.984 76.1527 122.984 76.1527 122.984C76.1526 122.983 76.1524 122.982 76.1522 122.979C76.1517 122.973 76.1508 122.962 76.1497 122.947C76.1474 122.917 76.1442 122.869 76.1412 122.805C76.1352 122.678 76.1299 122.488 76.1344 122.253C76.1434 121.78 76.1913 121.135 76.3436 120.443L74.3904 120.013C74.2024 120.867 74.1455 121.648 74.1348 122.215C74.1294 122.5 74.1356 122.734 74.1434 122.9C74.1473 122.983 74.1517 123.049 74.1553 123.097C74.157 123.121 74.1586 123.14 74.1599 123.154C74.1605 123.161 74.161 123.166 74.1614 123.171C74.1616 123.173 74.1618 123.175 74.162 123.177C74.1621 123.178 74.1621 123.178 74.1622 123.179C74.1622 123.179 74.1623 123.18 74.1623 123.18C74.1623 123.18 74.1623 123.18 74.1623 123.18C74.1624 123.181 74.1624 123.181 75.1574 123.081ZM76.3436 120.443C76.6386 119.104 77.2896 117.729 78.6536 116.949L77.6613 115.213C75.6052 116.388 74.7458 118.399 74.3904 120.013L76.3436 120.443ZM75.8679 119.363C74.3123 118.462 72.9947 116.501 72.3762 114.204C71.7592 111.913 71.9031 109.531 72.9594 107.841L71.2634 106.781C69.8197 109.091 69.7366 112.094 70.445 114.724C71.152 117.35 72.7121 119.847 74.8661 121.094L75.8679 119.363ZM75.8534 109.101C73.866 108.703 70.2351 105.697 71.1436 100.246L69.1708 99.9168C68.0794 106.466 72.4485 110.459 75.4611 111.062L75.8534 109.101ZM71.1436 100.246C71.3973 98.7234 72.5682 97.2874 74.45 95.9801L73.3089 94.3376C71.2545 95.7648 69.5556 97.6076 69.1708 99.9168L71.1436 100.246ZM74.45 95.9801C75.3587 95.3488 76.379 94.8436 77.4319 94.5427L76.8825 92.6197C75.5951 92.9875 74.3772 93.5954 73.3089 94.3376L74.45 95.9801ZM74.792 94.7501C74.3882 93.8484 73.9168 92.2351 73.8778 90.4386C73.839 88.6486 74.2294 86.7601 75.4466 85.1951L73.8679 83.9673C72.2851 86.0023 71.8329 88.3897 71.8783 90.482C71.9235 92.5679 72.4632 94.4433 72.9668 95.5676L74.792 94.7501ZM75.4466 85.1951C76.556 83.7688 77.7894 83.0899 78.9046 82.8052L78.4099 80.8674C76.8662 81.2615 75.2508 82.1892 73.8679 83.9673L75.4466 85.1951ZM78.9046 82.8052C80.3255 82.4425 81.6056 82.7081 82.2511 82.995L83.0634 81.1674C82.0441 80.7144 80.3042 80.3838 78.4099 80.8674L78.9046 82.8052ZM79.6549 81.7676C79.5401 80.1019 80.4896 76.5871 84.6316 75.3101L84.0424 73.3989C78.8035 75.014 77.4973 79.5508 77.6596 81.9051L79.6549 81.7676ZM84.6316 75.3101C85.4916 75.045 86.5032 74.8701 87.6905 74.8305L87.6239 72.8317C86.2779 72.8765 85.0888 73.0763 84.0424 73.3989L84.6316 75.3101ZM85.2999 74.6245C85.652 73.3688 86.5113 71.5101 87.9034 70.0815C89.2699 68.6791 91.1038 67.7265 93.5158 68.0711L93.7987 66.0912C90.6107 65.6357 88.1711 66.9409 86.4709 68.6857C84.7962 70.4044 83.7954 72.5824 83.3742 74.0845L85.2999 74.6245ZM93.5158 68.0711C96.4275 68.487 97.8073 69.9497 98.3914 71.4487C99.0112 73.0391 98.7677 74.7408 98.2874 75.5878L100.027 76.5743C100.823 75.1714 101.079 72.8374 100.255 70.7225C99.3951 68.5161 97.387 66.6038 93.7987 66.0912L93.5158 68.0711ZM101.154 118.164C101.375 115.512 100.507 113.446 99.3158 111.956L97.754 113.206C98.6631 114.342 99.3345 115.911 99.1606 117.998L101.154 118.164ZM99.3158 111.956C98.1131 110.453 96.5824 109.535 95.499 109.141L94.8155 111.021C95.5885 111.302 96.8026 112.016 97.754 113.206L99.3158 111.956ZM99.3738 113.125C100.338 111.64 100.814 109.225 100.829 106.775C100.845 104.295 100.392 101.565 99.3017 99.3838L97.5128 100.278C98.4224 102.097 98.8441 104.493 98.8295 106.762C98.8147 109.062 98.3543 111.022 97.6961 112.037L99.3738 113.125ZM97.7001 99.1239C96.8658 99.9583 95.8072 100.631 93.4611 101.1L93.8533 103.062C96.5073 102.531 97.9487 101.704 99.1143 100.538L97.7001 99.1239ZM99.1966 100.445C100.054 99.3426 100.953 97.5834 101.081 95.6108C101.214 93.5791 100.52 91.381 98.2871 89.5704L97.0274 91.1238C98.7297 92.5043 99.1781 94.0615 99.0856 95.4807C98.9891 96.9589 98.2953 98.3461 97.6179 99.2171L99.1966 100.445ZM98.2871 89.5704C97.6725 89.072 96.9484 88.6086 96.1044 88.1866L95.21 89.9755C95.9399 90.3404 96.5386 90.7274 97.0274 91.1238L98.2871 89.5704ZM98.3252 75.5264C98.0754 75.901 97.7951 76.2306 97.4867 76.5093L98.8277 77.9931C99.2707 77.5928 99.657 77.1341 99.9893 76.6358L98.3252 75.5264ZM97.4867 76.5093C96.748 77.1769 95.8179 77.5811 94.6572 77.5811V79.5811C96.3326 79.5811 97.7358 78.9799 98.8277 77.9931L97.4867 76.5093ZM98.4621 90.9405C99.9819 88.879 102.037 83.3446 99.067 76.8361L97.2475 77.6663C99.8775 83.43 97.9992 88.198 96.8523 89.7537L98.4621 90.9405ZM83.6274 123.824C84.078 122.021 84.5076 119.89 86.7595 118.713L85.8328 116.94C82.6641 118.597 82.0958 121.704 81.6871 123.339L83.6274 123.824ZM86.7595 118.713C88.0734 118.026 89.5457 117.542 92.5632 117.827L92.7513 115.835C89.3705 115.516 87.5082 116.064 85.8328 116.94L86.7595 118.713ZM87.2909 117.725C87.0511 115.381 85.1625 110.319 79.5162 108.148L78.7982 110.014C83.552 111.843 85.1152 116.108 85.3013 117.928L87.2909 117.725ZM90.1044 106.187C89.1921 105.73 88.2549 105.09 87.6103 104.007C86.9708 102.933 86.546 101.298 86.8981 98.7162L84.9164 98.4459C84.5185 101.364 84.9687 103.479 85.8917 105.03C86.8096 106.572 88.1224 107.432 89.21 107.975L90.1044 106.187ZM85.46 97.6866C83.5645 98.6344 80.9446 99.5924 77.0948 99.833L77.2196 101.829C81.3699 101.57 84.25 100.528 86.3544 99.4755L85.46 97.6866ZM86.3861 99.459C87.3457 98.9355 88.585 98.1532 89.7231 97.234C90.8413 96.3308 91.9548 95.2219 92.5517 94.0283L90.7628 93.1338C90.3596 93.9402 89.5149 94.8313 88.4664 95.6781C87.4377 96.5089 86.3021 97.2266 85.4284 97.7032L86.3861 99.459ZM83.0147 92.0956C84.4375 89.7242 86.7151 87.0886 90.862 86.2212L90.4525 84.2636C85.551 85.2888 82.8769 88.4379 81.2997 91.0666L83.0147 92.0956ZM90.862 86.2212C92.4384 85.8915 94.0197 86.072 95.5503 86.2367L95.7642 84.2481C94.2948 84.0901 92.3917 83.858 90.4525 84.2636L90.862 86.2212ZM91.6515 85.1358C91.5602 84.2845 91.2886 82.8701 90.616 81.5106C89.9417 80.1477 88.8135 78.7457 86.9735 78.1324L86.341 80.0297C87.501 80.4164 88.2894 81.3182 88.8234 82.3975C89.3591 83.4803 89.5876 84.6465 89.6629 85.3491L91.6515 85.1358ZM83.8255 130.494C83.5424 129.696 82.8154 129.125 81.964 129.051L81.7907 131.044C81.8535 131.049 81.9169 131.095 81.9407 131.163L83.8255 130.494Z" fill="#4964EA"/>
<path d="M129.188 123.081L128.193 122.982L128.193 122.982L129.188 123.081ZM125.692 116.949C125.212 116.675 125.046 116.065 125.32 115.585C125.594 115.106 126.204 114.939 126.684 115.213L125.692 116.949ZM113.852 124.595C114.397 124.686 114.765 125.201 114.674 125.746C114.584 126.29 114.068 126.658 113.524 126.568L113.852 124.595ZM104.188 118.081L103.192 118.164L104.188 118.081ZM108.846 109.141C109.365 108.953 109.939 109.22 110.128 109.739C110.316 110.258 110.049 110.832 109.53 111.021L108.846 109.141ZM128.884 111.062C128.343 111.17 127.816 110.819 127.707 110.277C127.599 109.736 127.95 109.209 128.492 109.101L128.884 111.062ZM134.188 100.081L133.202 100.246L134.188 100.081ZM126.913 94.5427C126.382 94.391 126.075 93.8375 126.226 93.3065C126.378 92.7754 126.932 92.468 127.463 92.6197L126.913 94.5427ZM129.688 84.5812L128.899 85.1951L129.688 84.5812ZM122.094 82.995C121.589 83.2193 120.998 82.992 120.774 82.4873C120.55 81.9827 120.777 81.3917 121.282 81.1674L122.094 82.995ZM116.655 74.8305C116.103 74.8121 115.67 74.3498 115.689 73.7978C115.707 73.2458 116.169 72.8133 116.721 72.8317L116.655 74.8305ZM120.008 74.3545L119.714 75.3101L120.008 74.3545ZM110.688 67.0811L110.547 66.0912L110.688 67.0811ZM105.188 76.0811L104.356 76.6358L104.336 76.6057L104.318 76.5743L105.188 76.0811ZM109.688 77.5811C110.24 77.5811 110.688 78.0288 110.688 78.5811C110.688 79.1333 110.24 79.5811 109.688 79.5811V77.5811ZM110.884 101.1C111.426 101.209 111.777 101.736 111.669 102.277C111.56 102.819 111.033 103.17 110.492 103.062L110.884 101.1ZM108.241 88.1866C108.735 87.9396 109.335 88.1399 109.582 88.6338C109.829 89.1278 109.629 89.7285 109.135 89.9755L108.241 88.1866ZM106.688 90.3471L107.318 91.1238L106.688 90.3471ZM122.658 123.339C122.792 123.874 122.466 124.417 121.931 124.551C121.395 124.685 120.852 124.359 120.718 123.824L122.658 123.339ZM111.782 117.827C111.232 117.879 110.744 117.475 110.692 116.925C110.64 116.375 111.044 115.887 111.594 115.835L111.782 117.827ZM124.829 108.148C125.344 107.949 125.923 108.207 126.121 108.722C126.32 109.238 126.062 109.816 125.547 110.014L124.829 108.148ZM115.135 107.975C114.641 108.222 114.041 108.022 113.794 107.528C113.547 107.034 113.747 106.434 114.241 106.187L115.135 107.975ZM127.25 99.833C127.802 99.8675 128.22 100.342 128.186 100.893C128.152 101.445 127.677 101.864 127.126 101.829L127.25 99.833ZM111.794 94.0283C111.547 93.5343 111.747 92.9336 112.241 92.6866C112.735 92.4396 113.335 92.6399 113.582 93.1338L111.794 94.0283ZM123.045 91.0666C123.33 91.5401 123.176 92.1544 122.702 92.4385C122.229 92.7227 121.615 92.5691 121.33 92.0956L123.045 91.0666ZM108.795 86.2367C108.246 86.2957 107.753 85.8985 107.694 85.3494C107.635 84.8002 108.032 84.3072 108.581 84.2481L108.795 86.2367ZM117.372 78.1324C117.896 77.9577 118.462 78.2409 118.637 78.7648C118.811 79.2888 118.528 79.8551 118.004 80.0297L117.372 78.1324ZM122.468 130.047L122.381 129.051L122.468 130.047ZM107.488 123.181C106.833 124.055 105.806 126.109 105.75 128.294C105.723 129.366 105.929 130.443 106.5 131.434C107.068 132.42 108.036 133.387 109.635 134.187L108.741 135.976C106.84 135.025 105.558 133.804 104.767 132.432C103.978 131.063 103.716 129.608 103.751 128.243C103.82 125.553 105.043 123.108 105.888 121.981L107.488 123.181ZM109.635 134.187C112.682 135.71 115.088 135.551 116.851 134.702C118.653 133.835 119.921 132.18 120.52 130.494L122.405 131.163C121.662 133.256 120.076 135.37 117.718 136.504C115.321 137.658 112.26 137.735 108.741 135.976L109.635 134.187ZM122.381 129.051C123.814 128.927 125.156 128.412 126.184 127.461C127.202 126.519 127.983 125.084 128.193 122.982L130.183 123.181C129.93 125.706 128.963 127.615 127.543 128.929C126.132 130.233 124.346 130.888 122.555 131.044L122.381 129.051ZM113.524 126.568C111.927 126.301 109.521 125.59 107.435 124.293C105.356 123 103.429 121.014 103.192 118.164L105.185 117.998C105.347 119.949 106.67 121.462 108.491 122.594C110.305 123.723 112.449 124.361 113.852 124.595L113.524 126.568ZM129.188 123.081C128.193 122.982 128.193 122.982 128.193 122.982C128.193 122.982 128.193 122.982 128.193 122.982C128.193 122.983 128.193 122.983 128.193 122.983C128.193 122.983 128.193 122.984 128.193 122.984C128.193 122.984 128.193 122.984 128.193 122.984C128.193 122.983 128.193 122.982 128.193 122.979C128.194 122.973 128.194 122.962 128.196 122.947C128.198 122.917 128.201 122.869 128.204 122.805C128.21 122.678 128.215 122.488 128.211 122.253C128.202 121.78 128.154 121.135 128.002 120.443L129.955 120.013C130.143 120.867 130.2 121.648 130.21 122.215C130.216 122.5 130.21 122.734 130.202 122.9C130.198 122.983 130.194 123.049 130.19 123.097C130.188 123.121 130.187 123.14 130.185 123.154C130.185 123.161 130.184 123.166 130.184 123.171C130.184 123.173 130.183 123.175 130.183 123.177C130.183 123.178 130.183 123.178 130.183 123.179C130.183 123.179 130.183 123.18 130.183 123.18C130.183 123.18 130.183 123.18 130.183 123.18C130.183 123.181 130.183 123.181 129.188 123.081ZM128.002 120.443C127.707 119.104 127.056 117.729 125.692 116.949L126.684 115.213C128.74 116.388 129.599 118.399 129.955 120.013L128.002 120.443ZM128.477 119.363C130.033 118.462 131.351 116.501 131.969 114.204C132.586 111.913 132.442 109.531 131.386 107.841L133.082 106.781C134.526 109.091 134.609 112.094 133.9 114.724C133.193 117.35 131.633 119.847 129.479 121.094L128.477 119.363ZM128.492 109.101C130.479 108.703 134.11 105.697 133.202 100.246L135.174 99.9168C136.266 106.466 131.897 110.459 128.884 111.062L128.492 109.101ZM133.202 100.246C132.948 98.7234 131.777 97.2874 129.895 95.9801L131.036 94.3376C133.091 95.7648 134.79 97.6076 135.174 99.9168L133.202 100.246ZM129.895 95.9801C128.987 95.3488 127.966 94.8436 126.913 94.5427L127.463 92.6197C128.75 92.9875 129.968 93.5954 131.036 94.3376L129.895 95.9801ZM129.553 94.7501C129.957 93.8484 130.428 92.2351 130.467 90.4386C130.506 88.6486 130.116 86.7601 128.899 85.1951L130.477 83.9673C132.06 86.0023 132.512 88.3897 132.467 90.482C132.422 92.5679 131.882 94.4433 131.378 95.5676L129.553 94.7501ZM128.899 85.1951C127.789 83.7688 126.556 83.0899 125.441 82.8052L125.935 80.8674C127.479 81.2615 129.094 82.1892 130.477 83.9673L128.899 85.1951ZM125.441 82.8052C124.02 82.4425 122.74 82.7081 122.094 82.995L121.282 81.1674C122.301 80.7144 124.041 80.3838 125.935 80.8674L125.441 82.8052ZM124.69 81.7676C124.805 80.1019 123.856 76.5871 119.714 75.3101L120.303 73.3989C125.542 75.014 126.848 79.5508 126.686 81.9051L124.69 81.7676ZM119.714 75.3101C118.854 75.045 117.842 74.8701 116.655 74.8305L116.721 72.8317C118.067 72.8765 119.256 73.0763 120.303 73.3989L119.714 75.3101ZM119.045 74.6245C118.693 73.3688 117.834 71.5101 116.442 70.0815C115.075 68.6791 113.241 67.7265 110.829 68.0711L110.547 66.0912C113.735 65.6357 116.174 66.9409 117.874 68.6857C119.549 70.4044 120.55 72.5824 120.971 74.0845L119.045 74.6245ZM110.829 68.0711C107.918 68.487 106.538 69.9497 105.954 71.4487C105.334 73.0391 105.578 74.7408 106.058 75.5878L104.318 76.5743C103.523 75.1714 103.266 72.8374 104.09 70.7225C104.95 68.5161 106.958 66.6038 110.547 66.0912L110.829 68.0711ZM103.192 118.164C102.97 115.512 103.838 113.446 105.029 111.956L106.591 113.206C105.682 114.342 105.011 115.911 105.185 117.998L103.192 118.164ZM105.029 111.956C106.232 110.453 107.763 109.535 108.846 109.141L109.53 111.021C108.757 111.302 107.543 112.016 106.591 113.206L105.029 111.956ZM104.971 113.125C104.007 111.64 103.532 109.225 103.516 106.775C103.5 104.295 103.953 101.565 105.044 99.3838L106.832 100.278C105.923 102.097 105.501 104.493 105.516 106.762C105.531 109.062 105.991 111.022 106.649 112.037L104.971 113.125ZM106.645 99.1239C107.479 99.9583 108.538 100.631 110.884 101.1L110.492 103.062C107.838 102.531 106.397 101.704 105.231 100.538L106.645 99.1239ZM105.149 100.445C104.291 99.3426 103.393 97.5834 103.264 95.6108C103.131 93.5791 103.825 91.381 106.058 89.5704L107.318 91.1238C105.615 92.5043 105.167 94.0615 105.26 95.4807C105.356 96.9589 106.05 98.3461 106.727 99.2171L105.149 100.445ZM106.058 89.5704C106.673 89.072 107.397 88.6086 108.241 88.1866L109.135 89.9755C108.405 90.3404 107.807 90.7274 107.318 91.1238L106.058 89.5704ZM106.02 75.5264C106.27 75.901 106.55 76.2306 106.858 76.5093L105.518 77.9931C105.074 77.5928 104.688 77.1341 104.356 76.6358L106.02 75.5264ZM106.858 76.5093C107.597 77.1769 108.527 77.5811 109.688 77.5811V79.5811C108.013 79.5811 106.609 78.9799 105.518 77.9931L106.858 76.5093ZM105.883 90.9405C104.363 88.879 102.308 83.3446 105.278 76.8361L107.098 77.6663C104.468 83.43 106.346 88.198 107.493 89.7537L105.883 90.9405ZM120.718 123.824C120.267 122.021 119.838 119.89 117.586 118.713L118.512 116.94C121.681 118.597 122.249 121.704 122.658 123.339L120.718 123.824ZM117.586 118.713C116.272 118.026 114.8 117.542 111.782 117.827L111.594 115.835C114.975 115.516 116.837 116.064 118.512 116.94L117.586 118.713ZM117.054 117.725C117.294 115.381 119.183 110.319 124.829 108.148L125.547 110.014C120.793 111.843 119.23 116.108 119.044 117.928L117.054 117.725ZM114.241 106.187C115.153 105.73 116.09 105.09 116.735 104.007C117.374 102.933 117.799 101.298 117.447 98.7162L119.429 98.4459C119.827 101.364 119.377 103.479 118.454 105.03C117.536 106.572 116.223 107.432 115.135 107.975L114.241 106.187ZM118.885 97.6866C120.781 98.6344 123.401 99.5924 127.25 99.833L127.126 101.829C122.975 101.57 120.095 100.528 117.991 99.4755L118.885 97.6866ZM117.959 99.459C117 98.9355 115.76 98.1532 114.622 97.234C113.504 96.3308 112.39 95.2219 111.794 94.0283L113.582 93.1338C113.986 93.9402 114.83 94.8313 115.879 95.6781C116.907 96.5089 118.043 97.2266 118.917 97.7032L117.959 99.459ZM121.33 92.0956C119.908 89.7242 117.63 87.0886 113.483 86.2212L113.893 84.2636C118.794 85.2888 121.468 88.4379 123.045 91.0666L121.33 92.0956ZM113.483 86.2212C111.907 85.8915 110.326 86.072 108.795 86.2367L108.581 84.2481C110.05 84.0901 111.954 83.858 113.893 84.2636L113.483 86.2212ZM112.694 85.1358C112.785 84.2845 113.057 82.8701 113.729 81.5106C114.404 80.1477 115.532 78.7457 117.372 78.1324L118.004 80.0297C116.844 80.4164 116.056 81.3182 115.522 82.3975C114.986 83.4803 114.758 84.6465 114.682 85.3491L112.694 85.1358ZM120.52 130.494C120.803 129.696 121.53 129.125 122.381 129.051L122.555 131.044C122.492 131.049 122.428 131.095 122.405 131.163L120.52 130.494Z" fill="#4964EA"/>
<rect x="472" y="32" width="140" height="160" rx="10" fill="#F3F3F5"/>
<path d="M519.781 171C522.883 171 524.678 169.076 524.678 165.894C524.678 162.727 522.883 160.818 519.885 160.818H516.485V171H519.781ZM518.021 169.658V162.161H519.791C522.018 162.161 523.167 163.493 523.167 165.894C523.167 168.305 522.018 169.658 519.696 169.658H518.021ZM526.588 171H533.032V169.678H528.125V166.56H532.639V165.243H528.125V162.141H532.972V160.818H526.588V171ZM540.577 163.493H542.059C542.014 161.862 540.572 160.679 538.504 160.679C536.461 160.679 534.895 161.847 534.895 163.602C534.895 165.019 535.909 165.849 537.544 166.292L538.748 166.62C539.836 166.908 540.677 167.266 540.677 168.171C540.677 169.165 539.727 169.822 538.419 169.822C537.236 169.822 536.252 169.295 536.162 168.186H534.621C534.721 170.031 536.147 171.169 538.429 171.169C540.821 171.169 542.198 169.911 542.198 168.186C542.198 166.352 540.562 165.641 539.27 165.322L538.275 165.064C537.48 164.86 536.421 164.487 536.426 163.513C536.426 162.648 537.216 162.006 538.469 162.006C539.638 162.006 540.468 162.553 540.577 163.493ZM545.57 160.818H544.034V171H545.57V160.818ZM554.698 164.035H556.274C555.931 162.051 554.235 160.679 552.038 160.679C549.403 160.679 547.479 162.663 547.479 165.914C547.479 169.136 549.348 171.139 552.108 171.139C554.578 171.139 556.343 169.518 556.343 166.948V165.79H552.341V167.058H554.857C554.822 168.698 553.738 169.737 552.108 169.737C550.313 169.737 549.005 168.38 549.005 165.904C549.005 163.438 550.323 162.081 552.048 162.081C553.4 162.081 554.315 162.827 554.698 164.035ZM566.511 160.818H564.99V168.295H564.896L559.715 160.818H558.293V171H559.83V163.533H559.924L565.1 171H566.511V160.818Z" fill="#0C0F1E"/>
<path d="M552.071 113.243C552.461 112.853 553.094 112.853 553.485 113.243C553.875 113.634 553.875 114.267 553.485 114.657L552.071 113.243ZM530.071 91.2431C530.461 90.8526 531.094 90.8526 531.485 91.2431C531.875 91.6336 531.875 92.2668 531.485 92.6573L530.071 91.2431ZM522.821 83.9931C523.211 83.6026 523.844 83.6026 524.235 83.9931C524.625 84.3836 524.625 85.0168 524.235 85.4073L522.821 83.9931ZM525.071 69.1327L524.376 68.4133L525.071 69.1327ZM526.473 69.145L527.18 68.4379L526.473 69.145ZM512.01 81.7433L512.705 82.4627L512.01 81.7433ZM511.315 81.0239L524.376 68.4133L525.766 69.8521L512.705 82.4627L511.315 81.0239ZM527.18 68.4379L576.278 117.536L574.864 118.95L525.766 69.8521L527.18 68.4379ZM576.278 120.364L563.485 133.157L562.071 131.743L574.864 118.95L576.278 120.364ZM563.485 133.157L563.442 133.2L562.028 131.786L562.071 131.743L563.485 133.157ZM560.614 133.2L554.071 126.657L555.485 125.243L562.028 131.786L560.614 133.2ZM554.071 125.243L559.071 120.243L560.485 121.657L555.485 126.657L554.071 125.243ZM554.071 126.657L547.071 119.657L548.485 118.243L555.485 125.243L554.071 126.657ZM547.071 118.243L552.071 113.243L553.485 114.657L548.485 119.657L547.071 118.243ZM547.071 119.657L525.071 97.6573L526.485 96.2431L548.485 118.243L547.071 119.657ZM525.071 96.2431L530.071 91.2431L531.485 92.6573L526.485 97.6573L525.071 96.2431ZM525.071 97.6573L517.821 90.4073L519.235 88.9931L526.485 96.2431L525.071 97.6573ZM517.821 90.4073L511.29 83.8769L512.705 82.4627L519.235 88.9931L517.821 90.4073ZM517.821 88.9931L522.821 83.9931L524.235 85.4073L519.235 90.4073L517.821 88.9931ZM563.442 133.2C562.661 133.981 561.395 133.981 560.614 133.2L562.028 131.786V131.786L563.442 133.2ZM576.278 117.536C577.059 118.317 577.059 119.583 576.278 120.364L574.864 118.95L574.864 118.95L576.278 117.536ZM524.376 68.4133C525.161 67.6556 526.408 67.6665 527.18 68.4379L525.766 69.8521L525.766 69.8521L524.376 68.4133ZM512.705 82.4627L512.705 82.4627L511.29 83.8769C510.5 83.0862 510.511 81.8007 511.315 81.0239L512.705 82.4627Z" fill="#4964EA"/>
<path d="M514.46 131.517L528.69 127.186C528.847 127.138 528.99 127.053 529.106 126.937L571.002 85.0405C573.359 82.9191 576.871 77.4744 572.063 72.6661C567.255 67.8578 561.81 71.3697 559.689 73.7268L517.616 115.8L513.212 130.269C512.979 131.035 513.694 131.75 514.46 131.517Z" fill="#F3F3F5"/>
<path d="M514.46 131.517L514.751 132.474L514.751 132.474L514.46 131.517ZM528.69 127.186L528.399 126.229L528.399 126.229L528.69 127.186ZM517.616 115.8L516.659 115.508L516.909 115.093L517.616 115.8ZM513.212 130.269L512.255 129.978L512.255 129.978L513.212 130.269ZM524.687 121.456C525.077 121.847 525.077 122.48 524.687 122.871C524.296 123.261 523.663 123.261 523.273 122.871L524.687 121.456ZM514.169 130.56L528.399 126.229L528.981 128.143L514.751 132.474L514.169 130.56ZM528.399 126.229L570.295 84.3334L571.709 85.7476L529.813 127.644L528.399 126.229ZM570.295 85.7476L558.981 74.4339L560.396 73.0196L571.709 84.3334L570.295 85.7476ZM560.396 74.4339L518.323 116.507L516.909 115.093L558.981 73.0196L560.396 74.4339ZM518.572 116.091L514.169 130.56L512.255 129.978L516.659 115.508L518.572 116.091ZM518.323 115.093L524.687 121.456L523.273 122.871L516.909 116.507L518.323 115.093ZM570.333 84.2972C571.41 83.328 572.741 81.5979 573.251 79.6123C573.742 77.6999 573.491 75.508 571.356 73.3732L572.77 71.959C575.444 74.6325 575.841 77.5671 575.188 80.1095C574.555 82.5787 572.951 84.6316 571.671 85.7838L570.333 84.2972ZM571.356 73.3732C569.221 71.2384 567.029 70.9873 565.117 71.478C563.131 71.9876 561.401 73.3189 560.432 74.3957L558.945 73.0578C560.097 71.7776 562.15 70.1744 564.62 69.5408C567.162 68.8884 570.097 69.2855 572.77 71.959L571.356 73.3732ZM528.399 126.229L528.399 126.229L529.813 127.644C529.581 127.876 529.295 128.047 528.981 128.143L528.399 126.229ZM514.751 132.474C513.22 132.94 511.789 131.509 512.255 129.978L514.169 130.56L514.169 130.56L514.751 132.474Z" fill="#4964EA"/>
<rect x="252" y="32" width="140" height="160" rx="10" fill="#F3F3F5"/>
<path d="M286.411 171H287.947V167.147H290.035C290.07 167.147 290.1 167.147 290.134 167.147L292.203 171H293.953L291.695 166.879C292.943 166.416 293.565 165.377 293.565 164.01C293.565 162.136 292.401 160.818 290.04 160.818H286.411V171ZM287.947 165.825V162.136H289.876C291.392 162.136 292.019 162.857 292.019 164.01C292.019 165.158 291.392 165.825 289.896 165.825H287.947ZM295.434 171H301.877V169.678H296.97V166.56H301.484V165.243H296.97V162.141H301.818V160.818H295.434V171ZM309.423 163.493H310.904C310.86 161.862 309.418 160.679 307.35 160.679C305.306 160.679 303.74 161.847 303.74 163.602C303.74 165.019 304.755 165.849 306.39 166.292L307.593 166.62C308.682 166.908 309.522 167.266 309.522 168.171C309.522 169.165 308.573 169.822 307.265 169.822C306.082 169.822 305.098 169.295 305.008 168.186H303.467C303.566 170.031 304.993 171.169 307.275 171.169C309.666 171.169 311.044 169.911 311.044 168.186C311.044 166.352 309.408 165.641 308.115 165.322L307.121 165.064C306.326 164.86 305.267 164.487 305.272 163.513C305.272 162.648 306.062 162.006 307.315 162.006C308.483 162.006 309.313 162.553 309.423 163.493ZM312.879 171H319.323V169.678H314.416V166.56H318.93V165.243H314.416V162.141H319.263V160.818H312.879V171ZM322.175 171L323.11 168.305H327.087L328.017 171H329.647L325.983 160.818H324.208L320.544 171H322.175ZM323.557 167.013L325.059 162.668H325.138L326.639 167.013H323.557ZM331.118 171H332.654V167.147H334.742C334.777 167.147 334.807 167.147 334.841 167.147L336.91 171H338.66L336.402 166.879C337.65 166.416 338.272 165.377 338.272 164.01C338.272 162.136 337.108 160.818 334.747 160.818H331.118V171ZM332.654 165.825V162.136H334.583C336.099 162.136 336.726 162.857 336.726 164.01C336.726 165.158 336.099 165.825 334.603 165.825H332.654ZM348.598 164.129C348.25 161.952 346.544 160.679 344.392 160.679C341.757 160.679 339.813 162.653 339.813 165.909C339.813 169.165 341.747 171.139 344.392 171.139C346.629 171.139 348.265 169.737 348.598 167.724L347.047 167.719C346.783 169.021 345.689 169.737 344.402 169.737C342.657 169.737 341.339 168.4 341.339 165.909C341.339 163.438 342.652 162.081 344.407 162.081C345.704 162.081 346.793 162.812 347.047 164.129H348.598ZM350.436 171H351.972V166.56H357.048V171H358.589V160.818H357.048V165.243H351.972V160.818H350.436V171Z" fill="#0C0F1E"/>
<path d="M348 91C348 98.4654 344.855 105.195 339.815 109.938C335.16 114.318 328.895 117 322 117C307.641 117 296 105.359 296 91C296 76.6406 307.641 65 322 65C336.359 65 348 76.6406 348 91Z" stroke="#4964EA" stroke-width="2"/>
<path d="M312.038 97.5154C312.038 93.0971 315.619 89.5154 320.038 89.5154L324.038 89.5154C328.456 89.5154 332.038 93.0971 332.038 97.5154L332.038 104.515L312.038 104.515L312.038 97.5154Z" stroke="#4964EA" stroke-width="2"/>
<circle cx="322.038" cy="84.5154" r="7" fill="white" stroke="#4964EA" stroke-width="2"/>
<path d="M321 116V123.5H323V116H321ZM322 124.5H324.5V122.5H322V124.5ZM326.5 126.5V138.5H328.5V126.5H326.5ZM322 122.5H319.5V124.5H322V122.5ZM315.5 126.5V138.5H317.5V126.5H315.5ZM317.5 140.5H326.5V138.5H317.5V140.5ZM315.5 138.5C315.5 139.605 316.395 140.5 317.5 140.5V138.5H315.5ZM319.5 122.5C317.291 122.5 315.5 124.291 315.5 126.5H317.5C317.5 125.395 318.395 124.5 319.5 124.5V122.5ZM326.5 138.5V140.5C327.605 140.5 328.5 139.605 328.5 138.5H326.5ZM324.5 124.5C325.605 124.5 326.5 125.395 326.5 126.5H328.5C328.5 124.291 326.709 122.5 324.5 122.5V124.5Z" fill="#4964EA"/>
<mask id="path-17-inside-1_394_512" fill="white">
<rect x="333.038" y="65.0154" width="26" height="14" rx="1"/>
</mask>
<rect x="333.038" y="65.0154" width="26" height="14" rx="1" fill="white" stroke="#4964EA" stroke-width="4" mask="url(#path-17-inside-1_394_512)"/>
<rect x="337.038" y="69.0154" width="18" height="2" rx="1" fill="#4964EA"/>
<rect x="337.038" y="73.0154" width="5" height="2" rx="1" fill="#4964EA"/>
<rect x="344.038" y="73.0154" width="11" height="2" rx="1" fill="#4964EA"/>
<rect x="692" y="32" width="140" height="160" rx="10" fill="#F3F3F5"/>
<path d="M744.775 162.141H747.947V171H749.478V162.141H752.655V160.818H744.775V162.141ZM754.396 171H760.839V169.678H755.932V166.56H760.446V165.243H755.932V162.141H760.779V160.818H754.396V171ZM768.385 163.493H769.866C769.822 161.862 768.38 160.679 766.312 160.679C764.268 160.679 762.702 161.847 762.702 163.602C762.702 165.019 763.716 165.849 765.352 166.292L766.555 166.62C767.644 166.908 768.484 167.266 768.484 168.171C768.484 169.165 767.535 169.822 766.227 169.822C765.044 169.822 764.059 169.295 763.97 168.186H762.429C762.528 170.031 763.955 171.169 766.237 171.169C768.628 171.169 770.006 169.911 770.006 168.186C770.006 166.352 768.37 165.641 767.077 165.322L766.083 165.064C765.287 164.86 764.229 164.487 764.233 163.513C764.233 162.648 765.024 162.006 766.277 162.006C767.445 162.006 768.275 162.553 768.385 163.493ZM771.339 162.141H774.511V171H776.042V162.141H779.219V160.818H771.339V162.141Z" fill="#0C0F1E"/>
<path d="M754.391 117.739C753.839 117.739 753.391 118.187 753.391 118.739C753.391 119.291 753.839 119.739 754.391 119.739V117.739ZM771.637 119.739C772.19 119.739 772.637 119.291 772.637 118.739C772.637 118.187 772.19 117.739 771.637 117.739V119.739ZM754.391 119.739H771.637V117.739H754.391V119.739Z" fill="#4964EA"/>
<path d="M754.391 99.9855C753.839 99.9855 753.391 100.433 753.391 100.985C753.391 101.538 753.839 101.985 754.391 101.985V99.9855ZM771.637 101.985C772.19 101.985 772.637 101.538 772.637 100.985C772.637 100.433 772.19 99.9855 771.637 99.9855V101.985ZM754.391 101.985H771.637V99.9855H754.391V101.985Z" fill="#4964EA"/>
<path d="M754.391 82.7391C753.839 82.7391 753.391 83.1869 753.391 83.7391C753.391 84.2914 753.839 84.7391 754.391 84.7391V82.7391ZM771.637 84.7391C772.19 84.7391 772.637 84.2914 772.637 83.7391C772.637 83.1869 772.19 82.7391 771.637 82.7391V84.7391ZM754.391 84.7391H771.637V82.7391H754.391V84.7391Z" fill="#4964EA"/>
<path d="M792.3 129.282L796.871 120.809C796.95 120.663 796.991 120.5 796.991 120.334L796.991 79.6268C797.107 77.4468 796.155 73.0869 791.42 73.0869C786.685 73.0869 785.734 77.4468 785.85 79.6268L785.85 120.587L790.54 129.282C790.918 129.982 791.923 129.982 792.3 129.282Z" fill="white"/>
<path d="M792.3 129.282L793.18 129.756L793.18 129.756L792.3 129.282ZM796.871 120.809L797.751 121.284L797.751 121.284L796.871 120.809ZM785.85 120.587L784.97 121.062L784.85 120.587L785.85 120.587ZM790.54 129.282L789.66 129.756L789.66 129.756L790.54 129.282ZM792.117 119.587C792.669 119.587 793.117 120.035 793.117 120.587C793.117 121.139 792.669 121.587 792.117 121.587L792.117 119.587ZM791.42 128.807L795.991 120.334L797.751 121.284L793.18 129.756L791.42 128.807ZM795.991 120.334L795.991 79.6268L797.991 79.6268L797.991 120.334L795.991 120.334ZM796.991 80.6268L785.85 80.6268L785.85 78.6268L796.991 78.6268L796.991 80.6268ZM786.85 79.6268L786.85 120.587L784.85 120.587L784.85 79.6268L786.85 79.6268ZM786.73 120.112L791.42 128.807L789.66 129.756L784.97 121.062L786.73 120.112ZM785.85 119.587L792.117 119.587L792.117 121.587L785.85 121.587L785.85 119.587ZM795.992 79.5736C796.043 78.6222 795.853 77.1994 795.167 76.0528C794.519 74.9713 793.412 74.0869 791.42 74.0869L791.42 72.0869C794.163 72.0869 795.899 73.3825 796.883 75.0259C797.827 76.6043 798.055 78.4514 797.99 79.6799L795.992 79.5736ZM791.42 74.0869C789.428 74.0869 788.321 74.9713 787.674 76.0528C786.988 77.1994 786.798 78.6222 786.848 79.5736L784.851 79.6799C784.786 78.4514 785.013 76.6043 785.958 75.0259C786.941 73.3825 788.677 72.0869 791.42 72.0869L791.42 74.0869ZM795.991 120.334L795.991 120.334L797.991 120.334C797.991 120.666 797.909 120.992 797.751 121.284L795.991 120.334ZM793.18 129.756C792.425 131.157 790.416 131.157 789.66 129.756L791.42 128.807L791.42 128.807L793.18 129.756Z" fill="#4964EA"/>
<rect x="728" y="68" width="51.7681" height="68" rx="1" stroke="#4964EA" stroke-width="2"/>
<path d="M735.931 122.597C735.54 122.988 735.54 123.621 735.931 124.011C736.321 124.402 736.954 124.402 737.345 124.011L735.931 122.597ZM745.968 115.388C746.359 114.998 746.359 114.365 745.968 113.974C745.577 113.584 744.944 113.584 744.554 113.974L745.968 115.388ZM737.345 124.011L745.968 115.388L744.554 113.974L735.931 122.597L737.345 124.011Z" fill="#4964EA"/>
<path d="M745.968 122.597C746.358 122.988 746.358 123.621 745.968 124.011C745.577 124.402 744.944 124.402 744.554 124.011L745.968 122.597ZM735.93 115.388C735.54 114.998 735.54 114.365 735.93 113.974C736.321 113.584 736.954 113.584 737.345 113.974L735.93 115.388ZM744.554 124.011L735.93 115.388L737.345 113.974L745.968 122.597L744.554 124.011Z" fill="#4964EA"/>
<path d="M737.345 100.278C736.954 99.8879 736.321 99.8879 735.931 100.278C735.54 100.669 735.54 101.302 735.931 101.693L737.345 100.278ZM747.515 98.1153C747.891 97.7106 747.868 97.0778 747.463 96.702C747.058 96.3262 746.426 96.3497 746.05 96.7544L747.515 98.1153ZM740.541 104.156L741.274 104.836L740.541 104.156ZM735.931 101.693L739.114 104.876L740.529 103.462L737.345 100.278L735.931 101.693ZM741.274 104.836L747.515 98.1153L746.05 96.7544L739.809 103.476L741.274 104.836ZM739.114 104.876C739.716 105.478 740.696 105.46 741.274 104.836L739.809 103.476C740.002 103.268 740.328 103.262 740.529 103.462L739.114 104.876Z" fill="#4964EA"/>
<path d="M737.345 83.032C736.954 82.6414 736.321 82.6414 735.931 83.032C735.54 83.4225 735.54 84.0557 735.931 84.4462L737.345 83.032ZM747.515 80.8688C747.891 80.4641 747.868 79.8314 747.463 79.4556C747.058 79.0798 746.426 79.1032 746.05 79.5079L747.515 80.8688ZM740.541 86.9096L741.274 87.59L740.541 86.9096ZM735.931 84.4462L739.114 87.63L740.529 86.2158L737.345 83.032L735.931 84.4462ZM741.274 87.59L747.515 80.8688L746.05 79.5079L739.809 86.2291L741.274 87.59ZM739.114 87.63C739.716 88.2312 740.696 88.2131 741.274 87.59L739.809 86.2291C740.002 86.0215 740.328 86.0154 740.529 86.2158L739.114 87.63Z" fill="#4964EA"/>
<path d="M188 111C187.448 111 187 111.448 187 112C187 112.552 187.448 113 188 113V111ZM236 112L236.707 112.707C237.098 112.317 237.098 111.683 236.707 111.293L236 112ZM231.293 115.293C230.902 115.683 230.902 116.317 231.293 116.707C231.683 117.098 232.317 117.098 232.707 116.707L231.293 115.293ZM232.707 107.293C232.317 106.902 231.683 106.902 231.293 107.293C230.902 107.683 230.902 108.317 231.293 108.707L232.707 107.293ZM188 113H236V111H188V113ZM235.293 111.293L231.293 115.293L232.707 116.707L236.707 112.707L235.293 111.293ZM236.707 111.293L232.707 107.293L231.293 108.707L235.293 112.707L236.707 111.293Z" fill="#0C0F1E"/>
<path d="M408 111C407.448 111 407 111.448 407 112C407 112.552 407.448 113 408 113V111ZM456 112L456.707 112.707C457.098 112.317 457.098 111.683 456.707 111.293L456 112ZM451.293 115.293C450.902 115.683 450.902 116.317 451.293 116.707C451.683 117.098 452.317 117.098 452.707 116.707L451.293 115.293ZM452.707 107.293C452.317 106.902 451.683 106.902 451.293 107.293C450.902 107.683 450.902 108.317 451.293 108.707L452.707 107.293ZM408 113H456V111H408V113ZM455.293 111.293L451.293 115.293L452.707 116.707L456.707 112.707L455.293 111.293ZM456.707 111.293L452.707 107.293L451.293 108.707L455.293 112.707L456.707 111.293Z" fill="#0C0F1E"/>
<path d="M628 111C627.448 111 627 111.448 627 112C627 112.552 627.448 113 628 113V111ZM676 112L676.707 112.707C677.098 112.317 677.098 111.683 676.707 111.293L676 112ZM671.293 115.293C670.902 115.683 670.902 116.317 671.293 116.707C671.683 117.098 672.317 117.098 672.707 116.707L671.293 115.293ZM672.707 107.293C672.317 106.902 671.683 106.902 671.293 107.293C670.902 107.683 670.902 108.317 671.293 108.707L672.707 107.293ZM628 113H676V111H628V113ZM675.293 111.293L671.293 115.293L672.707 116.707L676.707 112.707L675.293 111.293ZM676.707 111.293L672.707 107.293L671.293 108.707L675.293 112.707L676.707 111.293Z" fill="#0C0F1E"/>
<path d="M102 208L102.707 207.293C102.52 207.105 102.265 207 102 207C101.735 207 101.48 207.105 101.293 207.293L102 208ZM97.2929 211.293C96.9023 211.683 96.9023 212.317 97.2929 212.707C97.6834 213.098 98.3166 213.098 98.7071 212.707L97.2929 211.293ZM105.293 212.707C105.683 213.098 106.317 213.098 106.707 212.707C107.098 212.317 107.098 211.683 106.707 211.293L105.293 212.707ZM763 208C763 207.448 762.552 207 762 207C761.448 207 761 207.448 761 208L763 208ZM107 227.999L107 226.999L107 227.999ZM757 227.991L757 228.991L757 227.991ZM101.293 207.293L97.2929 211.293L98.7071 212.707L102.707 208.707L101.293 207.293ZM101.293 208.707L105.293 212.707L106.707 211.293L102.707 207.293L101.293 208.707ZM763 222.991L763 208L761 208L761 222.991L763 222.991ZM757 226.991L107 226.999L107 228.999L757 228.991L757 226.991ZM103 222.999L103 208L101 208L101 222.999L103 222.999ZM107 226.999C104.791 226.999 103 225.209 103 222.999L101 222.999C101 226.313 103.686 228.999 107 228.999L107 226.999ZM761 222.991C761 225.2 759.209 226.991 757 226.991L757 228.991C760.314 228.991 763 226.304 763 222.991L761 222.991Z" fill="#0C0F1E"/>
</svg>
