<svg width="450" height="450" viewBox="0 0 450 450" fill="none" xmlns="http://www.w3.org/2000/svg">
<rect width="450" height="450" fill="#F5F7FF"/>
<circle cx="225" cy="225" r="100" fill="#FABE2C"/>
<path d="M225 125C211.868 125 198.864 127.586 186.732 132.612C174.599 137.637 163.575 145.003 154.289 154.289C145.003 163.575 137.638 174.599 132.612 186.731C127.587 198.864 125 211.868 125 225C125 238.132 127.587 251.136 132.612 263.268C137.638 275.401 145.003 286.425 154.289 295.71C163.575 304.996 174.599 312.362 186.732 317.388C198.864 322.413 211.868 325 225 325L225 225L225 125Z" fill="#FED843"/>
<path d="M179.375 203.188V249H169.531V214.312C168.99 214.792 168.344 215.25 167.594 215.688C166.865 216.104 166.083 216.49 165.25 216.844C164.417 217.177 163.552 217.469 162.656 217.719C161.76 217.948 160.875 218.115 160 218.219V209.906C162.562 209.156 164.979 208.198 167.25 207.031C169.521 205.865 171.573 204.583 173.406 203.188H179.375Z" fill="#303030"/>
<path d="M208.375 249.781C197.708 249.781 192.375 242.292 192.375 227.312C192.375 219.542 193.812 213.625 196.688 209.562C199.583 205.479 203.771 203.438 209.25 203.438C219.667 203.438 224.875 211.052 224.875 226.281C224.875 233.865 223.448 239.677 220.594 243.719C217.76 247.76 213.688 249.781 208.375 249.781ZM208.812 210.969C204.542 210.969 202.406 216.333 202.406 227.062C202.406 237.167 204.5 242.219 208.688 242.219C212.771 242.219 214.812 237.01 214.812 226.594C214.812 216.177 212.812 210.969 208.812 210.969Z" fill="#303030"/>
<path d="M245.188 249.781C234.521 249.781 229.188 242.292 229.188 227.312C229.188 219.542 230.625 213.625 233.5 209.562C236.396 205.479 240.583 203.438 246.062 203.438C256.479 203.438 261.688 211.052 261.688 226.281C261.688 233.865 260.26 239.677 257.406 243.719C254.573 247.76 250.5 249.781 245.188 249.781ZM245.625 210.969C241.354 210.969 239.219 216.333 239.219 227.062C239.219 237.167 241.312 242.219 245.5 242.219C249.583 242.219 251.625 237.01 251.625 226.594C251.625 216.177 249.625 210.969 245.625 210.969Z" fill="#303030"/>
<path d="M282 249.781C271.333 249.781 266 242.292 266 227.312C266 219.542 267.438 213.625 270.312 209.562C273.208 205.479 277.396 203.438 282.875 203.438C293.292 203.438 298.5 211.052 298.5 226.281C298.5 233.865 297.073 239.677 294.219 243.719C291.385 247.76 287.312 249.781 282 249.781ZM282.438 210.969C278.167 210.969 276.031 216.333 276.031 227.062C276.031 237.167 278.125 242.219 282.312 242.219C286.396 242.219 288.438 237.01 288.438 226.594C288.438 216.177 286.438 210.969 282.438 210.969Z" fill="#303030"/>
<path d="M142.434 385.52C141.092 385.52 140.038 385.995 139.27 386.945C138.501 387.896 138.117 389.208 138.117 390.881C138.117 392.632 138.485 393.957 139.221 394.855C139.963 395.754 141.034 396.203 142.434 396.203C143.039 396.203 143.625 396.145 144.191 396.027C144.758 395.904 145.347 395.747 145.959 395.559V397.561C144.839 397.984 143.57 398.195 142.15 398.195C140.061 398.195 138.456 397.564 137.336 396.301C136.216 395.031 135.656 393.218 135.656 390.861C135.656 389.377 135.926 388.078 136.467 386.965C137.014 385.852 137.801 384.999 138.83 384.406C139.859 383.814 141.066 383.518 142.453 383.518C143.911 383.518 145.259 383.824 146.496 384.436L145.656 386.379C145.174 386.151 144.663 385.952 144.123 385.783C143.589 385.607 143.026 385.52 142.434 385.52ZM158.371 392.58C158.371 394.344 157.919 395.721 157.014 396.711C156.109 397.701 154.849 398.195 153.234 398.195C152.225 398.195 151.333 397.967 150.559 397.512C149.784 397.056 149.188 396.402 148.771 395.549C148.355 394.696 148.146 393.706 148.146 392.58C148.146 390.829 148.596 389.462 149.494 388.479C150.393 387.495 151.659 387.004 153.293 387.004C154.855 387.004 156.092 387.508 157.004 388.518C157.915 389.52 158.371 390.874 158.371 392.58ZM150.51 392.58C150.51 395.074 151.431 396.32 153.273 396.32C155.096 396.32 156.008 395.074 156.008 392.58C156.008 390.113 155.09 388.879 153.254 388.879C152.29 388.879 151.59 389.198 151.154 389.836C150.725 390.474 150.51 391.389 150.51 392.58ZM163.312 398H161.018V382.805H163.312V398ZM168.898 398H166.604V382.805H168.898V398ZM176.906 398.195C175.227 398.195 173.911 397.707 172.961 396.73C172.017 395.747 171.545 394.396 171.545 392.678C171.545 390.913 171.984 389.527 172.863 388.518C173.742 387.508 174.95 387.004 176.486 387.004C177.912 387.004 179.038 387.437 179.865 388.303C180.692 389.169 181.105 390.36 181.105 391.877V393.117H173.908C173.941 394.165 174.224 394.973 174.758 395.539C175.292 396.099 176.044 396.379 177.014 396.379C177.652 396.379 178.244 396.32 178.791 396.203C179.344 396.079 179.937 395.878 180.568 395.598V397.463C180.008 397.73 179.442 397.919 178.869 398.029C178.296 398.14 177.642 398.195 176.906 398.195ZM176.486 388.742C175.757 388.742 175.171 388.973 174.729 389.436C174.292 389.898 174.032 390.572 173.947 391.457H178.85C178.837 390.565 178.622 389.891 178.205 389.436C177.788 388.973 177.215 388.742 176.486 388.742ZM188.068 398.195C186.434 398.195 185.191 397.72 184.338 396.77C183.492 395.812 183.068 394.442 183.068 392.658C183.068 390.842 183.511 389.445 184.396 388.469C185.288 387.492 186.574 387.004 188.254 387.004C189.393 387.004 190.419 387.215 191.33 387.639L190.637 389.484C189.667 389.107 188.866 388.918 188.234 388.918C186.366 388.918 185.432 390.158 185.432 392.639C185.432 393.85 185.663 394.761 186.125 395.373C186.594 395.979 187.277 396.281 188.176 396.281C189.198 396.281 190.165 396.027 191.076 395.52V397.521C190.666 397.762 190.227 397.935 189.758 398.039C189.296 398.143 188.732 398.195 188.068 398.195ZM197.639 396.34C198.199 396.34 198.758 396.252 199.318 396.076V397.805C199.064 397.915 198.736 398.007 198.332 398.078C197.935 398.156 197.521 398.195 197.092 398.195C194.917 398.195 193.83 397.049 193.83 394.758V388.938H192.355V387.922L193.938 387.082L194.719 384.797H196.135V387.199H199.211V388.938H196.135V394.719C196.135 395.272 196.271 395.682 196.545 395.949C196.825 396.21 197.189 396.34 197.639 396.34ZM212.658 398H210.363V388.781C210.363 387.681 210.389 386.809 210.441 386.164C210.292 386.32 210.106 386.493 209.885 386.682C209.67 386.87 208.941 387.469 207.697 388.479L206.545 387.023L210.744 383.723H212.658V398ZM227.023 390.861C227.023 393.342 226.623 395.184 225.822 396.389C225.028 397.593 223.811 398.195 222.17 398.195C220.581 398.195 219.377 397.574 218.557 396.33C217.736 395.087 217.326 393.264 217.326 390.861C217.326 388.342 217.723 386.486 218.518 385.295C219.318 384.097 220.536 383.498 222.17 383.498C223.765 383.498 224.973 384.123 225.793 385.373C226.613 386.623 227.023 388.452 227.023 390.861ZM219.65 390.861C219.65 392.808 219.849 394.198 220.246 395.031C220.65 395.865 221.291 396.281 222.17 396.281C223.049 396.281 223.69 395.858 224.094 395.012C224.504 394.165 224.709 392.782 224.709 390.861C224.709 388.947 224.504 387.564 224.094 386.711C223.69 385.852 223.049 385.422 222.17 385.422C221.291 385.422 220.65 385.842 220.246 386.682C219.849 387.521 219.65 388.915 219.65 390.861ZM238.449 390.861C238.449 393.342 238.049 395.184 237.248 396.389C236.454 397.593 235.236 398.195 233.596 398.195C232.007 398.195 230.803 397.574 229.982 396.33C229.162 395.087 228.752 393.264 228.752 390.861C228.752 388.342 229.149 386.486 229.943 385.295C230.744 384.097 231.962 383.498 233.596 383.498C235.191 383.498 236.398 384.123 237.219 385.373C238.039 386.623 238.449 388.452 238.449 390.861ZM231.076 390.861C231.076 392.808 231.275 394.198 231.672 395.031C232.076 395.865 232.717 396.281 233.596 396.281C234.475 396.281 235.116 395.858 235.52 395.012C235.93 394.165 236.135 392.782 236.135 390.861C236.135 388.947 235.93 387.564 235.52 386.711C235.116 385.852 234.475 385.422 233.596 385.422C232.717 385.422 232.076 385.842 231.672 386.682C231.275 387.521 231.076 388.915 231.076 390.861ZM249.875 390.861C249.875 393.342 249.475 395.184 248.674 396.389C247.88 397.593 246.662 398.195 245.021 398.195C243.433 398.195 242.229 397.574 241.408 396.33C240.588 395.087 240.178 393.264 240.178 390.861C240.178 388.342 240.575 386.486 241.369 385.295C242.17 384.097 243.387 383.498 245.021 383.498C246.617 383.498 247.824 384.123 248.645 385.373C249.465 386.623 249.875 388.452 249.875 390.861ZM242.502 390.861C242.502 392.808 242.701 394.198 243.098 395.031C243.501 395.865 244.143 396.281 245.021 396.281C245.9 396.281 246.542 395.858 246.945 395.012C247.355 394.165 247.561 392.782 247.561 390.861C247.561 388.947 247.355 387.564 246.945 386.711C246.542 385.852 245.9 385.422 245.021 385.422C244.143 385.422 243.501 385.842 243.098 386.682C242.701 387.521 242.502 388.915 242.502 390.861ZM263.059 398.195C261.691 398.195 260.63 397.704 259.875 396.721H259.738C259.829 397.632 259.875 398.186 259.875 398.381V402.805H257.58V387.199H259.436C259.488 387.401 259.595 387.883 259.758 388.645H259.875C260.591 387.551 261.665 387.004 263.098 387.004C264.445 387.004 265.493 387.492 266.242 388.469C266.997 389.445 267.375 390.816 267.375 392.58C267.375 394.344 266.991 395.721 266.223 396.711C265.461 397.701 264.406 398.195 263.059 398.195ZM262.502 388.879C261.59 388.879 260.923 389.146 260.5 389.68C260.083 390.214 259.875 391.066 259.875 392.238V392.58C259.875 393.895 260.083 394.849 260.5 395.441C260.917 396.027 261.597 396.32 262.541 396.32C263.335 396.32 263.947 395.995 264.377 395.344C264.807 394.693 265.021 393.765 265.021 392.561C265.021 391.35 264.807 390.435 264.377 389.816C263.954 389.191 263.329 388.879 262.502 388.879ZM279.621 392.58C279.621 394.344 279.169 395.721 278.264 396.711C277.359 397.701 276.099 398.195 274.484 398.195C273.475 398.195 272.583 397.967 271.809 397.512C271.034 397.056 270.438 396.402 270.021 395.549C269.605 394.696 269.396 393.706 269.396 392.58C269.396 390.829 269.846 389.462 270.744 388.479C271.643 387.495 272.909 387.004 274.543 387.004C276.105 387.004 277.342 387.508 278.254 388.518C279.165 389.52 279.621 390.874 279.621 392.58ZM271.76 392.58C271.76 395.074 272.681 396.32 274.523 396.32C276.346 396.32 277.258 395.074 277.258 392.58C277.258 390.113 276.34 388.879 274.504 388.879C273.54 388.879 272.84 389.198 272.404 389.836C271.975 390.474 271.76 391.389 271.76 392.58ZM284.562 398H282.268V387.199H284.562V398ZM282.131 384.338C282.131 383.928 282.242 383.612 282.463 383.391C282.691 383.169 283.013 383.059 283.43 383.059C283.833 383.059 284.146 383.169 284.367 383.391C284.595 383.612 284.709 383.928 284.709 384.338C284.709 384.729 284.595 385.038 284.367 385.266C284.146 385.487 283.833 385.598 283.43 385.598C283.013 385.598 282.691 385.487 282.463 385.266C282.242 385.038 282.131 384.729 282.131 384.338ZM297.355 398H295.051V391.359C295.051 390.526 294.882 389.904 294.543 389.494C294.211 389.084 293.68 388.879 292.951 388.879C291.981 388.879 291.271 389.165 290.822 389.738C290.373 390.311 290.148 391.271 290.148 392.619V398H287.854V387.199H289.65L289.973 388.615H290.09C290.415 388.101 290.878 387.704 291.477 387.424C292.076 387.144 292.74 387.004 293.469 387.004C296.06 387.004 297.355 388.322 297.355 390.959V398ZM304.572 396.34C305.132 396.34 305.692 396.252 306.252 396.076V397.805C305.998 397.915 305.669 398.007 305.266 398.078C304.868 398.156 304.455 398.195 304.025 398.195C301.851 398.195 300.764 397.049 300.764 394.758V388.938H299.289V387.922L300.871 387.082L301.652 384.797H303.068V387.199H306.145V388.938H303.068V394.719C303.068 395.272 303.205 395.682 303.479 395.949C303.758 396.21 304.123 396.34 304.572 396.34ZM315.676 394.924C315.676 395.979 315.292 396.789 314.523 397.355C313.755 397.915 312.655 398.195 311.223 398.195C309.784 398.195 308.628 397.977 307.756 397.541V395.559C309.025 396.145 310.207 396.438 311.301 396.438C312.714 396.438 313.42 396.011 313.42 395.158C313.42 394.885 313.342 394.657 313.186 394.475C313.029 394.292 312.772 394.104 312.414 393.908C312.056 393.713 311.558 393.492 310.92 393.244C309.676 392.762 308.833 392.281 308.391 391.799C307.954 391.317 307.736 390.692 307.736 389.924C307.736 388.999 308.107 388.283 308.85 387.775C309.598 387.261 310.614 387.004 311.896 387.004C313.166 387.004 314.367 387.261 315.5 387.775L314.758 389.504C313.592 389.022 312.613 388.781 311.818 388.781C310.607 388.781 310.002 389.126 310.002 389.816C310.002 390.155 310.158 390.441 310.471 390.676C310.79 390.91 311.48 391.232 312.541 391.643C313.433 391.988 314.081 392.303 314.484 392.59C314.888 392.876 315.188 393.208 315.383 393.586C315.578 393.957 315.676 394.403 315.676 394.924Z" fill="#303030"/>
</svg>
