<svg width="450" height="450" viewBox="0 0 450 450" fill="none" xmlns="http://www.w3.org/2000/svg">
<rect width="450" height="450" fill="#F5F7FF"/>
<circle cx="225" cy="225" r="100" fill="#FABE2C"/>
<path d="M225 125C211.868 125 198.864 127.587 186.732 132.612C174.599 137.638 163.575 145.003 154.289 154.289C145.003 163.575 137.638 174.599 132.612 186.732C127.587 198.864 125 211.868 125 225C125 238.132 127.587 251.136 132.612 263.268C137.638 275.401 145.003 286.425 154.289 295.711C163.575 304.997 174.599 312.362 186.732 317.388C198.864 322.413 211.868 325 225 325L225 225L225 125Z" fill="#FED843"/>
<path d="M183.188 240.812H202.188V249H172.375V245.625C172.375 243.333 172.76 241.281 173.531 239.469C174.302 237.635 175.271 236 176.438 234.562C177.604 233.104 178.875 231.823 180.25 230.719C181.646 229.594 182.969 228.583 184.219 227.688C185.531 226.75 186.677 225.854 187.656 225C188.656 224.146 189.49 223.302 190.156 222.469C190.844 221.615 191.354 220.76 191.688 219.906C192.021 219.031 192.188 218.104 192.188 217.125C192.188 215.208 191.646 213.76 190.562 212.781C189.479 211.802 187.823 211.312 185.594 211.312C181.74 211.312 178.052 212.844 174.531 215.906V207.219C178.427 204.698 182.823 203.438 187.719 203.438C189.99 203.438 192.021 203.74 193.812 204.344C195.625 204.927 197.156 205.771 198.406 206.875C199.656 207.979 200.604 209.323 201.25 210.906C201.917 212.469 202.25 214.219 202.25 216.156C202.25 218.219 201.927 220.052 201.281 221.656C200.656 223.26 199.812 224.719 198.75 226.031C197.708 227.344 196.5 228.552 195.125 229.656C193.75 230.74 192.323 231.792 190.844 232.812C189.844 233.521 188.875 234.229 187.938 234.938C187.021 235.625 186.208 236.312 185.5 237C184.792 237.667 184.229 238.323 183.812 238.969C183.396 239.615 183.188 240.229 183.188 240.812Z" fill="#303030"/>
<path d="M224.781 249.781C214.115 249.781 208.781 242.292 208.781 227.312C208.781 219.542 210.219 213.625 213.094 209.562C215.99 205.479 220.177 203.438 225.656 203.438C236.073 203.438 241.281 211.052 241.281 226.281C241.281 233.865 239.854 239.677 237 243.719C234.167 247.76 230.094 249.781 224.781 249.781ZM225.219 210.969C220.948 210.969 218.812 216.333 218.812 227.062C218.812 237.167 220.906 242.219 225.094 242.219C229.177 242.219 231.219 237.01 231.219 226.594C231.219 216.177 229.219 210.969 225.219 210.969Z" fill="#303030"/>
<path d="M261.594 249.781C250.927 249.781 245.594 242.292 245.594 227.312C245.594 219.542 247.031 213.625 249.906 209.562C252.802 205.479 256.99 203.438 262.469 203.438C272.885 203.438 278.094 211.052 278.094 226.281C278.094 233.865 276.667 239.677 273.812 243.719C270.979 247.76 266.906 249.781 261.594 249.781ZM262.031 210.969C257.76 210.969 255.625 216.333 255.625 227.062C255.625 237.167 257.719 242.219 261.906 242.219C265.99 242.219 268.031 237.01 268.031 226.594C268.031 216.177 266.031 210.969 262.031 210.969Z" fill="#303030"/>
<path d="M148.146 385.52C146.805 385.52 145.751 385.995 144.982 386.945C144.214 387.896 143.83 389.208 143.83 390.881C143.83 392.632 144.198 393.957 144.934 394.855C145.676 395.754 146.747 396.203 148.146 396.203C148.752 396.203 149.338 396.145 149.904 396.027C150.471 395.904 151.06 395.747 151.672 395.559V397.561C150.552 397.984 149.283 398.195 147.863 398.195C145.773 398.195 144.169 397.564 143.049 396.301C141.929 395.031 141.369 393.218 141.369 390.861C141.369 389.377 141.639 388.078 142.18 386.965C142.727 385.852 143.514 384.999 144.543 384.406C145.572 383.814 146.779 383.518 148.166 383.518C149.624 383.518 150.972 383.824 152.209 384.436L151.369 386.379C150.887 386.151 150.376 385.952 149.836 385.783C149.302 385.607 148.739 385.52 148.146 385.52ZM164.084 392.58C164.084 394.344 163.632 395.721 162.727 396.711C161.822 397.701 160.562 398.195 158.947 398.195C157.938 398.195 157.046 397.967 156.271 397.512C155.497 397.056 154.901 396.402 154.484 395.549C154.068 394.696 153.859 393.706 153.859 392.58C153.859 390.829 154.309 389.462 155.207 388.479C156.105 387.495 157.372 387.004 159.006 387.004C160.568 387.004 161.805 387.508 162.717 388.518C163.628 389.52 164.084 390.874 164.084 392.58ZM156.223 392.58C156.223 395.074 157.144 396.32 158.986 396.32C160.809 396.32 161.721 395.074 161.721 392.58C161.721 390.113 160.803 388.879 158.967 388.879C158.003 388.879 157.303 389.198 156.867 389.836C156.438 390.474 156.223 391.389 156.223 392.58ZM169.025 398H166.73V382.805H169.025V398ZM174.611 398H172.316V382.805H174.611V398ZM182.619 398.195C180.939 398.195 179.624 397.707 178.674 396.73C177.73 395.747 177.258 394.396 177.258 392.678C177.258 390.913 177.697 389.527 178.576 388.518C179.455 387.508 180.663 387.004 182.199 387.004C183.625 387.004 184.751 387.437 185.578 388.303C186.405 389.169 186.818 390.36 186.818 391.877V393.117H179.621C179.654 394.165 179.937 394.973 180.471 395.539C181.005 396.099 181.757 396.379 182.727 396.379C183.365 396.379 183.957 396.32 184.504 396.203C185.057 396.079 185.65 395.878 186.281 395.598V397.463C185.721 397.73 185.155 397.919 184.582 398.029C184.009 398.14 183.355 398.195 182.619 398.195ZM182.199 388.742C181.47 388.742 180.884 388.973 180.441 389.436C180.005 389.898 179.745 390.572 179.66 391.457H184.562C184.549 390.565 184.335 389.891 183.918 389.436C183.501 388.973 182.928 388.742 182.199 388.742ZM193.781 398.195C192.147 398.195 190.904 397.72 190.051 396.77C189.204 395.812 188.781 394.442 188.781 392.658C188.781 390.842 189.224 389.445 190.109 388.469C191.001 387.492 192.287 387.004 193.967 387.004C195.106 387.004 196.132 387.215 197.043 387.639L196.35 389.484C195.38 389.107 194.579 388.918 193.947 388.918C192.079 388.918 191.145 390.158 191.145 392.639C191.145 393.85 191.376 394.761 191.838 395.373C192.307 395.979 192.99 396.281 193.889 396.281C194.911 396.281 195.878 396.027 196.789 395.52V397.521C196.379 397.762 195.939 397.935 195.471 398.039C195.008 398.143 194.445 398.195 193.781 398.195ZM203.352 396.34C203.911 396.34 204.471 396.252 205.031 396.076V397.805C204.777 397.915 204.449 398.007 204.045 398.078C203.648 398.156 203.234 398.195 202.805 398.195C200.63 398.195 199.543 397.049 199.543 394.758V388.938H198.068V387.922L199.65 387.082L200.432 384.797H201.848V387.199H204.924V388.938H201.848V394.719C201.848 395.272 201.984 395.682 202.258 395.949C202.538 396.21 202.902 396.34 203.352 396.34ZM221.311 398H211.633V396.262L215.314 392.561C216.402 391.447 217.121 390.66 217.473 390.197C217.831 389.729 218.091 389.289 218.254 388.879C218.417 388.469 218.498 388.029 218.498 387.561C218.498 386.916 218.303 386.408 217.912 386.037C217.528 385.666 216.994 385.48 216.311 385.48C215.764 385.48 215.233 385.581 214.719 385.783C214.211 385.985 213.622 386.35 212.951 386.877L211.711 385.363C212.505 384.693 213.277 384.217 214.025 383.938C214.774 383.658 215.572 383.518 216.418 383.518C217.746 383.518 218.811 383.866 219.611 384.562C220.412 385.253 220.812 386.184 220.812 387.355C220.812 388 220.695 388.612 220.461 389.191C220.233 389.771 219.878 390.37 219.396 390.988C218.921 391.6 218.127 392.43 217.014 393.479L214.533 395.881V395.979H221.311V398ZM232.736 390.861C232.736 393.342 232.336 395.184 231.535 396.389C230.741 397.593 229.523 398.195 227.883 398.195C226.294 398.195 225.09 397.574 224.27 396.33C223.449 395.087 223.039 393.264 223.039 390.861C223.039 388.342 223.436 386.486 224.23 385.295C225.031 384.097 226.249 383.498 227.883 383.498C229.478 383.498 230.686 384.123 231.506 385.373C232.326 386.623 232.736 388.452 232.736 390.861ZM225.363 390.861C225.363 392.808 225.562 394.198 225.959 395.031C226.363 395.865 227.004 396.281 227.883 396.281C228.762 396.281 229.403 395.858 229.807 395.012C230.217 394.165 230.422 392.782 230.422 390.861C230.422 388.947 230.217 387.564 229.807 386.711C229.403 385.852 228.762 385.422 227.883 385.422C227.004 385.422 226.363 385.842 225.959 386.682C225.562 387.521 225.363 388.915 225.363 390.861ZM244.162 390.861C244.162 393.342 243.762 395.184 242.961 396.389C242.167 397.593 240.949 398.195 239.309 398.195C237.72 398.195 236.516 397.574 235.695 396.33C234.875 395.087 234.465 393.264 234.465 390.861C234.465 388.342 234.862 386.486 235.656 385.295C236.457 384.097 237.674 383.498 239.309 383.498C240.904 383.498 242.111 384.123 242.932 385.373C243.752 386.623 244.162 388.452 244.162 390.861ZM236.789 390.861C236.789 392.808 236.988 394.198 237.385 395.031C237.788 395.865 238.43 396.281 239.309 396.281C240.188 396.281 240.829 395.858 241.232 395.012C241.643 394.165 241.848 392.782 241.848 390.861C241.848 388.947 241.643 387.564 241.232 386.711C240.829 385.852 240.188 385.422 239.309 385.422C238.43 385.422 237.788 385.842 237.385 386.682C236.988 387.521 236.789 388.915 236.789 390.861ZM257.346 398.195C255.979 398.195 254.917 397.704 254.162 396.721H254.025C254.117 397.632 254.162 398.186 254.162 398.381V402.805H251.867V387.199H253.723C253.775 387.401 253.882 387.883 254.045 388.645H254.162C254.878 387.551 255.952 387.004 257.385 387.004C258.732 387.004 259.781 387.492 260.529 388.469C261.285 389.445 261.662 390.816 261.662 392.58C261.662 394.344 261.278 395.721 260.51 396.711C259.748 397.701 258.693 398.195 257.346 398.195ZM256.789 388.879C255.878 388.879 255.21 389.146 254.787 389.68C254.37 390.214 254.162 391.066 254.162 392.238V392.58C254.162 393.895 254.37 394.849 254.787 395.441C255.204 396.027 255.884 396.32 256.828 396.32C257.622 396.32 258.234 395.995 258.664 395.344C259.094 394.693 259.309 393.765 259.309 392.561C259.309 391.35 259.094 390.435 258.664 389.816C258.241 389.191 257.616 388.879 256.789 388.879ZM273.908 392.58C273.908 394.344 273.456 395.721 272.551 396.711C271.646 397.701 270.386 398.195 268.771 398.195C267.762 398.195 266.87 397.967 266.096 397.512C265.321 397.056 264.725 396.402 264.309 395.549C263.892 394.696 263.684 393.706 263.684 392.58C263.684 390.829 264.133 389.462 265.031 388.479C265.93 387.495 267.196 387.004 268.83 387.004C270.393 387.004 271.63 387.508 272.541 388.518C273.452 389.52 273.908 390.874 273.908 392.58ZM266.047 392.58C266.047 395.074 266.968 396.32 268.811 396.32C270.633 396.32 271.545 395.074 271.545 392.58C271.545 390.113 270.627 388.879 268.791 388.879C267.827 388.879 267.128 389.198 266.691 389.836C266.262 390.474 266.047 391.389 266.047 392.58ZM278.85 398H276.555V387.199H278.85V398ZM276.418 384.338C276.418 383.928 276.529 383.612 276.75 383.391C276.978 383.169 277.3 383.059 277.717 383.059C278.12 383.059 278.433 383.169 278.654 383.391C278.882 383.612 278.996 383.928 278.996 384.338C278.996 384.729 278.882 385.038 278.654 385.266C278.433 385.487 278.12 385.598 277.717 385.598C277.3 385.598 276.978 385.487 276.75 385.266C276.529 385.038 276.418 384.729 276.418 384.338ZM291.643 398H289.338V391.359C289.338 390.526 289.169 389.904 288.83 389.494C288.498 389.084 287.967 388.879 287.238 388.879C286.268 388.879 285.559 389.165 285.109 389.738C284.66 390.311 284.436 391.271 284.436 392.619V398H282.141V387.199H283.938L284.26 388.615H284.377C284.702 388.101 285.165 387.704 285.764 387.424C286.363 387.144 287.027 387.004 287.756 387.004C290.347 387.004 291.643 388.322 291.643 390.959V398ZM298.859 396.34C299.419 396.34 299.979 396.252 300.539 396.076V397.805C300.285 397.915 299.956 398.007 299.553 398.078C299.156 398.156 298.742 398.195 298.312 398.195C296.138 398.195 295.051 397.049 295.051 394.758V388.938H293.576V387.922L295.158 387.082L295.939 384.797H297.355V387.199H300.432V388.938H297.355V394.719C297.355 395.272 297.492 395.682 297.766 395.949C298.046 396.21 298.41 396.34 298.859 396.34ZM309.963 394.924C309.963 395.979 309.579 396.789 308.811 397.355C308.042 397.915 306.942 398.195 305.51 398.195C304.071 398.195 302.915 397.977 302.043 397.541V395.559C303.312 396.145 304.494 396.438 305.588 396.438C307.001 396.438 307.707 396.011 307.707 395.158C307.707 394.885 307.629 394.657 307.473 394.475C307.316 394.292 307.059 394.104 306.701 393.908C306.343 393.713 305.845 393.492 305.207 393.244C303.964 392.762 303.12 392.281 302.678 391.799C302.242 391.317 302.023 390.692 302.023 389.924C302.023 388.999 302.395 388.283 303.137 387.775C303.885 387.261 304.901 387.004 306.184 387.004C307.453 387.004 308.654 387.261 309.787 387.775L309.045 389.504C307.88 389.022 306.9 388.781 306.105 388.781C304.895 388.781 304.289 389.126 304.289 389.816C304.289 390.155 304.445 390.441 304.758 390.676C305.077 390.91 305.767 391.232 306.828 391.643C307.72 391.988 308.368 392.303 308.771 392.59C309.175 392.876 309.475 393.208 309.67 393.586C309.865 393.957 309.963 394.403 309.963 394.924Z" fill="#303030"/>
</svg>
