<svg width="368" height="408" viewBox="0 0 368 408" fill="none" xmlns="http://www.w3.org/2000/svg">
<rect width="368" height="408" fill="white"/>
<rect x="220" y="240" width="140" height="160" rx="10" fill="#F3F3F5"/>
<path d="M267.781 379C270.883 379 272.678 377.076 272.678 373.894C272.678 370.727 270.883 368.818 267.885 368.818H264.485V379H267.781ZM266.021 377.658V370.161H267.791C270.018 370.161 271.167 371.493 271.167 373.894C271.167 376.305 270.018 377.658 267.696 377.658H266.021ZM274.588 379H281.032V377.678H276.125V374.56H280.639V373.243H276.125V370.141H280.972V368.818H274.588V379ZM288.577 371.493H290.059C290.014 369.862 288.572 368.679 286.504 368.679C284.461 368.679 282.895 369.847 282.895 371.602C282.895 373.019 283.909 373.849 285.544 374.292L286.748 374.62C287.836 374.908 288.677 375.266 288.677 376.171C288.677 377.165 287.727 377.822 286.419 377.822C285.236 377.822 284.252 377.295 284.162 376.186H282.621C282.721 378.031 284.147 379.169 286.429 379.169C288.821 379.169 290.198 377.911 290.198 376.186C290.198 374.352 288.562 373.641 287.27 373.322L286.275 373.064C285.48 372.86 284.421 372.487 284.426 371.513C284.426 370.648 285.216 370.006 286.469 370.006C287.638 370.006 288.468 370.553 288.577 371.493ZM293.57 368.818H292.034V379H293.57V368.818ZM302.698 372.035H304.274C303.931 370.051 302.235 368.679 300.038 368.679C297.403 368.679 295.479 370.663 295.479 373.914C295.479 377.136 297.348 379.139 300.108 379.139C302.578 379.139 304.343 377.518 304.343 374.948V373.79H300.341V375.058H302.857C302.822 376.698 301.738 377.737 300.108 377.737C298.313 377.737 297.005 376.38 297.005 373.904C297.005 371.438 298.323 370.081 300.048 370.081C301.4 370.081 302.315 370.827 302.698 372.035ZM314.511 368.818H312.99V376.295H312.896L307.715 368.818H306.293V379H307.83V371.533H307.924L313.1 379H314.511V368.818Z" fill="#0C0F1E"/>
<path d="M300.071 321.243C300.462 320.853 301.095 320.853 301.485 321.243C301.876 321.634 301.876 322.267 301.485 322.657L300.071 321.243ZM278.071 299.243C278.462 298.853 279.095 298.853 279.485 299.243C279.876 299.634 279.876 300.267 279.485 300.657L278.071 299.243ZM270.821 291.993C271.212 291.603 271.845 291.603 272.235 291.993C272.626 292.384 272.626 293.017 272.235 293.407L270.821 291.993ZM273.071 277.133L272.377 276.413L273.071 277.133ZM274.473 277.145L275.18 276.438L274.473 277.145ZM260.01 289.743L260.705 290.463L260.01 289.743ZM259.316 289.024L272.377 276.413L273.766 277.852L260.705 290.463L259.316 289.024ZM275.18 276.438L324.278 325.536L322.864 326.95L273.766 277.852L275.18 276.438ZM324.278 328.364L311.485 341.157L310.071 339.743L322.864 326.95L324.278 328.364ZM311.485 341.157L311.443 341.2L310.028 339.786L310.071 339.743L311.485 341.157ZM308.614 341.2L302.071 334.657L303.485 333.243L310.028 339.786L308.614 341.2ZM302.071 333.243L307.071 328.243L308.485 329.657L303.485 334.657L302.071 333.243ZM302.071 334.657L295.071 327.657L296.485 326.243L303.485 333.243L302.071 334.657ZM295.071 326.243L300.071 321.243L301.485 322.657L296.485 327.657L295.071 326.243ZM295.071 327.657L273.071 305.657L274.485 304.243L296.485 326.243L295.071 327.657ZM273.071 304.243L278.071 299.243L279.485 300.657L274.485 305.657L273.071 304.243ZM273.071 305.657L265.821 298.407L267.235 296.993L274.485 304.243L273.071 305.657ZM265.821 298.407L259.291 291.877L260.705 290.463L267.235 296.993L265.821 298.407ZM265.821 296.993L270.821 291.993L272.235 293.407L267.235 298.407L265.821 296.993ZM311.443 341.2C310.661 341.981 309.395 341.981 308.614 341.2L310.028 339.786V339.786L311.443 341.2ZM324.278 325.536C325.059 326.317 325.059 327.583 324.278 328.364L322.864 326.95L322.864 326.95L324.278 325.536ZM272.377 276.413C273.162 275.656 274.409 275.667 275.18 276.438L273.766 277.852L273.766 277.852L272.377 276.413ZM260.705 290.463L260.705 290.463L259.291 291.877C258.5 291.086 258.511 289.801 259.316 289.024L260.705 290.463Z" fill="#4964EA"/>
<path d="M262.46 339.517L276.691 335.186C276.848 335.138 276.991 335.053 277.107 334.936L319.003 293.04C321.36 290.919 324.872 285.474 320.063 280.666C315.255 275.858 309.81 279.37 307.689 281.727L265.616 323.8L261.212 338.269C260.979 339.035 261.695 339.75 262.46 339.517Z" fill="#F3F3F5"/>
<path d="M262.46 339.517L262.751 340.474L262.751 340.474L262.46 339.517ZM276.691 335.186L276.4 334.229L276.4 334.229L276.691 335.186ZM265.616 323.8L264.66 323.508L264.909 323.092L265.616 323.8ZM261.212 338.269L260.256 337.978L260.256 337.978L261.212 338.269ZM272.687 329.456C273.078 329.847 273.078 330.48 272.687 330.871C272.297 331.261 271.664 331.261 271.273 330.871L272.687 329.456ZM262.169 338.56L276.4 334.229L276.982 336.143L262.751 340.474L262.169 338.56ZM276.4 334.229L318.296 292.333L319.71 293.748L277.814 335.644L276.4 334.229ZM318.296 293.748L306.982 282.434L308.396 281.02L319.71 292.333L318.296 293.748ZM308.396 282.434L266.323 324.507L264.909 323.092L306.982 281.02L308.396 282.434ZM266.573 324.091L262.169 338.56L260.256 337.978L264.66 323.508L266.573 324.091ZM266.323 323.092L272.687 329.456L271.273 330.871L264.909 324.507L266.323 323.092ZM318.334 292.297C319.411 291.328 320.742 289.598 321.251 287.612C321.742 285.7 321.491 283.508 319.356 281.373L320.771 279.959C323.444 282.632 323.841 285.567 323.189 288.109C322.555 290.579 320.952 292.632 319.672 293.784L318.334 292.297ZM319.356 281.373C317.221 279.238 315.03 278.987 313.117 279.478C311.132 279.987 309.402 281.319 308.432 282.396L306.946 281.058C308.098 279.778 310.151 278.174 312.62 277.541C315.162 276.888 318.097 277.285 320.771 279.959L319.356 281.373ZM276.4 334.229L276.4 334.229L277.814 335.644C277.582 335.876 277.296 336.047 276.982 336.143L276.4 334.229ZM262.751 340.474C261.221 340.94 259.79 339.509 260.256 337.978L262.169 338.56L262.169 338.56L262.751 340.474Z" fill="#4964EA"/>
<rect x="10" y="240" width="140" height="160" rx="10" fill="#F3F3F5"/>
<path d="M62.7747 370.141H65.9466V379H67.4778V370.141H70.6547V368.818H62.7747V370.141ZM72.396 379H78.8391V377.678H73.9322V374.56H78.4464V373.243H73.9322V370.141H78.7795V368.818H72.396V379ZM86.3848 371.493H87.8663C87.8216 369.862 86.3798 368.679 84.3116 368.679C82.2683 368.679 80.7022 369.847 80.7022 371.602C80.7022 373.019 81.7164 373.849 83.3521 374.292L84.5552 374.62C85.644 374.908 86.4842 375.266 86.4842 376.171C86.4842 377.165 85.5346 377.822 84.2271 377.822C83.0439 377.822 82.0595 377.295 81.97 376.186H80.4288C80.5282 378.031 81.9551 379.169 84.237 379.169C86.6284 379.169 88.0055 377.911 88.0055 376.186C88.0055 374.352 86.3699 373.641 85.0772 373.322L84.0829 373.064C83.2875 372.86 82.2285 372.487 82.2335 371.513C82.2335 370.648 83.024 370.006 84.2768 370.006C85.4451 370.006 86.2754 370.553 86.3848 371.493ZM89.3391 370.141H92.511V379H94.0423V370.141H97.2191V368.818H89.3391V370.141Z" fill="#0C0F1E"/>
<path d="M72.3916 325.739C71.8393 325.739 71.3916 326.187 71.3916 326.739C71.3916 327.291 71.8393 327.739 72.3916 327.739V325.739ZM89.638 327.739C90.1903 327.739 90.638 327.291 90.638 326.739C90.638 326.187 90.1903 325.739 89.638 325.739V327.739ZM72.3916 327.739H89.638V325.739H72.3916V327.739Z" fill="#4964EA"/>
<path d="M72.3916 307.985C71.8393 307.985 71.3916 308.433 71.3916 308.985C71.3916 309.538 71.8393 309.985 72.3916 309.985V307.985ZM89.638 309.985C90.1903 309.985 90.638 309.538 90.638 308.985C90.638 308.433 90.1903 307.985 89.638 307.985V309.985ZM72.3916 309.985H89.638V307.985H72.3916V309.985Z" fill="#4964EA"/>
<path d="M72.3916 290.739C71.8393 290.739 71.3916 291.187 71.3916 291.739C71.3916 292.291 71.8393 292.739 72.3916 292.739V290.739ZM89.638 292.739C90.1903 292.739 90.638 292.291 90.638 291.739C90.638 291.187 90.1903 290.739 89.638 290.739V292.739ZM72.3916 292.739H89.638V290.739H72.3916V292.739Z" fill="#4964EA"/>
<path d="M110.3 337.282L114.871 328.809C114.95 328.663 114.991 328.5 114.991 328.334L114.991 287.627C115.107 285.447 114.155 281.087 109.42 281.087C104.685 281.087 103.734 285.447 103.85 287.627L103.85 328.587L108.54 337.282C108.918 337.982 109.923 337.982 110.3 337.282Z" fill="white"/>
<path d="M110.3 337.282L111.18 337.756L111.18 337.756L110.3 337.282ZM114.871 328.809L115.751 329.284L115.751 329.284L114.871 328.809ZM103.85 328.587L102.97 329.062L102.85 328.587L103.85 328.587ZM108.54 337.282L107.66 337.756L107.66 337.756L108.54 337.282ZM110.117 327.587C110.669 327.587 111.117 328.035 111.117 328.587C111.117 329.139 110.669 329.587 110.117 329.587L110.117 327.587ZM109.42 336.807L113.991 328.334L115.751 329.284L111.18 337.756L109.42 336.807ZM113.991 328.334L113.991 287.627L115.991 287.627L115.991 328.334L113.991 328.334ZM114.991 288.627L103.85 288.627L103.85 286.627L114.991 286.627L114.991 288.627ZM104.85 287.627L104.85 328.587L102.85 328.587L102.85 287.627L104.85 287.627ZM104.73 328.112L109.42 336.807L107.66 337.756L102.97 329.062L104.73 328.112ZM103.85 327.587L110.117 327.587L110.117 329.587L103.85 329.587L103.85 327.587ZM113.992 287.574C114.043 286.622 113.853 285.199 113.167 284.053C112.519 282.971 111.412 282.087 109.42 282.087L109.42 280.087C112.163 280.087 113.899 281.383 114.883 283.026C115.827 284.604 116.055 286.451 115.99 287.68L113.992 287.574ZM109.42 282.087C107.428 282.087 106.321 282.971 105.674 284.053C104.988 285.199 104.798 286.622 104.848 287.574L102.851 287.68C102.786 286.451 103.013 284.604 103.958 283.026C104.941 281.383 106.677 280.087 109.42 280.087L109.42 282.087ZM113.991 328.334L113.991 328.334L115.991 328.334C115.991 328.666 115.909 328.992 115.751 329.284L113.991 328.334ZM111.18 337.756C110.425 339.157 108.416 339.157 107.66 337.756L109.42 336.807H109.42L111.18 337.756Z" fill="#4964EA"/>
<rect x="46" y="276" width="51.7681" height="68" rx="1" stroke="#4964EA" stroke-width="2"/>
<path d="M53.9306 330.597C53.5401 330.988 53.5401 331.621 53.9306 332.011C54.3211 332.402 54.9543 332.402 55.3448 332.011L53.9306 330.597ZM63.968 323.388C64.3585 322.998 64.3585 322.365 63.968 321.974C63.5775 321.584 62.9443 321.584 62.5538 321.974L63.968 323.388ZM55.3448 332.011L63.968 323.388L62.5538 321.974L53.9306 330.597L55.3448 332.011Z" fill="#4964EA"/>
<path d="M63.9678 330.597C64.3584 330.988 64.3584 331.621 63.9678 332.011C63.5773 332.402 62.9442 332.402 62.5536 332.011L63.9678 330.597ZM53.9304 323.388C53.5399 322.998 53.5399 322.365 53.9304 321.974C54.321 321.584 54.9541 321.584 55.3447 321.974L53.9304 323.388ZM62.5536 332.011L53.9304 323.388L55.3447 321.974L63.9678 330.597L62.5536 332.011Z" fill="#4964EA"/>
<path d="M55.3448 308.278C54.9543 307.888 54.3211 307.888 53.9306 308.278C53.5401 308.669 53.5401 309.302 53.9306 309.693L55.3448 308.278ZM65.5154 306.115C65.8912 305.71 65.8678 305.078 65.4631 304.702C65.0584 304.326 64.4256 304.35 64.0498 304.754L65.5154 306.115ZM58.5415 312.156L59.2743 312.836L58.5415 312.156ZM53.9306 309.693L57.1144 312.876L58.5286 311.462L55.3448 308.278L53.9306 309.693ZM59.2743 312.836L65.5154 306.115L64.0498 304.754L57.8087 311.476L59.2743 312.836ZM57.1144 312.876C57.7156 313.478 58.6958 313.459 59.2743 312.836L57.8087 311.476C58.0015 311.268 58.3282 311.262 58.5286 311.462L57.1144 312.876Z" fill="#4964EA"/>
<path d="M55.3448 291.032C54.9543 290.642 54.3211 290.642 53.9306 291.032C53.5401 291.423 53.5401 292.056 53.9306 292.446L55.3448 291.032ZM65.5154 288.869C65.8912 288.464 65.8678 287.831 65.4631 287.456C65.0584 287.08 64.4256 287.103 64.0498 287.508L65.5154 288.869ZM58.5415 294.91L59.2743 295.59L58.5415 294.91ZM53.9306 292.446L57.1144 295.63L58.5286 294.216L55.3448 291.032L53.9306 292.446ZM59.2743 295.59L65.5154 288.869L64.0498 287.508L57.8087 294.229L59.2743 295.59ZM57.1144 295.63C57.7156 296.231 58.6958 296.213 59.2743 295.59L57.8087 294.229C58.0015 294.022 58.3282 294.015 58.5286 294.216L57.1144 295.63Z" fill="#4964EA"/>
<rect x="8" y="8" width="140" height="160" rx="10" fill="#F3F3F5"/>
<path d="M33.4829 147H37.3856C39.752 147 40.8209 145.822 40.8209 144.261C40.8209 142.685 39.7172 141.795 38.708 141.74V141.641C39.6427 141.402 40.4232 140.766 40.4232 139.493C40.4232 137.987 39.3792 136.818 37.2116 136.818H33.4829V147ZM35.0191 145.683V142.421H37.2911C38.5241 142.421 39.2947 143.217 39.2947 144.186C39.2947 145.041 38.713 145.683 37.2364 145.683H35.0191ZM35.0191 141.223V138.126H37.1171C38.3351 138.126 38.9168 138.767 38.9168 139.612C38.9168 140.597 38.1114 141.223 37.0773 141.223H35.0191ZM42.643 147H44.1792V143.147H46.2673C46.3021 143.147 46.3319 143.147 46.3667 143.147L48.4349 147H50.1849L47.9278 142.879C49.1757 142.416 49.7971 141.377 49.7971 140.01C49.7971 138.136 48.6338 136.818 46.2723 136.818H42.643V147ZM44.1792 141.825V138.136H46.1082C47.6246 138.136 48.251 138.857 48.251 140.01C48.251 141.158 47.6246 141.825 46.1281 141.825H44.1792ZM52.5265 147L53.4612 144.305H57.4385L58.3682 147H59.9988L56.3348 136.818H54.5599L50.8959 147H52.5265ZM53.9086 143.013L55.4101 138.668H55.4896L56.991 143.013H53.9086ZM63.0054 136.818H61.4692V147H63.0054V136.818ZM73.4607 136.818H71.9394V144.295H71.8449L66.6645 136.818H65.2426V147H66.7789V139.533H66.8733L72.0487 147H73.4607V136.818ZM81.2549 139.493H82.7364C82.6917 137.862 81.2499 136.679 79.1817 136.679C77.1384 136.679 75.5724 137.847 75.5724 139.602C75.5724 141.019 76.5866 141.849 78.2222 142.292L79.4253 142.62C80.5141 142.908 81.3543 143.266 81.3543 144.171C81.3543 145.165 80.4047 145.822 79.0972 145.822C77.914 145.822 76.9296 145.295 76.8401 144.186H75.2989C75.3983 146.031 76.8252 147.169 79.1072 147.169C81.4985 147.169 82.8756 145.911 82.8756 144.186C82.8756 142.352 81.24 141.641 79.9474 141.322L78.953 141.064C78.1576 140.86 77.0986 140.487 77.1036 139.513C77.1036 138.648 77.8941 138.006 79.1469 138.006C80.3153 138.006 81.1455 138.553 81.2549 139.493ZM84.2093 138.141H87.3811V147H88.9124V138.141H92.0892V136.818H84.2093V138.141ZM102.251 141.909C102.251 138.653 100.302 136.679 97.6673 136.679C95.0225 136.679 93.0786 138.653 93.0786 141.909C93.0786 145.161 95.0225 147.139 97.6673 147.139C100.302 147.139 102.251 145.165 102.251 141.909ZM100.73 141.909C100.73 144.39 99.4173 145.737 97.6673 145.737C95.9124 145.737 94.6048 144.39 94.6048 141.909C94.6048 139.428 95.9124 138.081 97.6673 138.081C99.4173 138.081 100.73 139.428 100.73 141.909ZM104.166 147H105.703V143.147H107.791C107.826 143.147 107.855 143.147 107.89 143.147L109.958 147H111.708L109.451 142.879C110.699 142.416 111.321 141.377 111.321 140.01C111.321 138.136 110.157 136.818 107.796 136.818H104.166V147ZM105.703 141.825V138.136H107.632C109.148 138.136 109.774 138.857 109.774 140.01C109.774 141.158 109.148 141.825 107.652 141.825H105.703ZM113.19 136.818V147H114.652V139.627H114.746L117.749 146.985H118.962L121.965 139.632H122.059V147H123.521V136.818H121.657L118.415 144.733H118.296L115.054 136.818H113.19Z" fill="#0C0F1E"/>
<path d="M51.1574 99.0812L52.1525 98.9818L52.1524 98.9817L51.1574 99.0812ZM54.6536 92.9494C55.1331 92.6754 55.2997 92.0646 55.0257 91.5851C54.7516 91.1055 54.1408 90.9389 53.6613 91.213L54.6536 92.9494ZM66.4927 100.595C65.948 100.686 65.58 101.201 65.6707 101.746C65.7615 102.29 66.2768 102.658 66.8215 102.568L66.4927 100.595ZM76.1571 94.0812L77.1537 94.1642L76.1571 94.0812ZM71.499 85.1414C70.98 84.9527 70.4062 85.2204 70.2175 85.7394C70.0287 86.2585 70.2965 86.8322 70.8155 87.021L71.499 85.1414ZM51.4611 87.0618C52.0027 87.1701 52.5295 86.8189 52.6378 86.2773C52.7461 85.7358 52.3949 85.2089 51.8534 85.1006L51.4611 87.0618ZM46.1572 76.0812L47.1436 76.2456L46.1572 76.0812ZM53.4319 70.5427C53.963 70.391 54.2705 69.8375 54.1188 69.3065C53.967 68.7754 53.4135 68.468 52.8825 68.6197L53.4319 70.5427ZM50.6572 60.5812L51.4466 61.1951L50.6572 60.5812ZM58.2511 58.995C58.7558 59.2193 59.3467 58.992 59.571 58.4873C59.7953 57.9827 59.5681 57.3917 59.0634 57.1674L58.2511 58.995ZM63.6905 50.8305C64.2425 50.8121 64.6751 50.3498 64.6567 49.7978C64.6383 49.2458 64.1759 48.8133 63.6239 48.8317L63.6905 50.8305ZM60.337 50.3545L60.6316 51.3101L60.337 50.3545ZM69.6572 43.0811L69.7987 42.0912L69.6572 43.0811ZM75.1572 52.0811L75.9893 52.6358L76.0093 52.6057L76.0271 52.5743L75.1572 52.0811ZM70.6572 53.5811C70.1049 53.5811 69.6572 54.0288 69.6572 54.5811C69.6572 55.1333 70.1049 55.5811 70.6572 55.5811V53.5811ZM69.4611 77.1005C68.9196 77.2088 68.5683 77.7356 68.6766 78.2772C68.785 78.8187 69.3118 79.1699 69.8533 79.0616L69.4611 77.1005ZM72.1044 64.1866C71.6105 63.9396 71.0098 64.1399 70.7628 64.6338C70.5158 65.1278 70.716 65.7285 71.21 65.9755L72.1044 64.1866ZM73.6572 66.3471L73.0274 67.1238L73.6572 66.3471ZM57.6871 99.3385C57.5531 99.8743 57.8789 100.417 58.4147 100.551C58.9505 100.685 59.4934 100.359 59.6274 99.8236L57.6871 99.3385ZM68.5632 93.8266C69.113 93.8786 69.6009 93.4749 69.6528 92.9251C69.7047 92.3752 69.3011 91.8874 68.7513 91.8355L68.5632 93.8266ZM55.5162 84.1477C55.0007 83.9495 54.4221 84.2066 54.2239 84.7221C54.0256 85.2375 54.2828 85.8161 54.7982 86.0144L55.5162 84.1477ZM65.21 83.9755C65.704 84.2225 66.3047 84.0222 66.5517 83.5283C66.7986 83.0343 66.5984 82.4336 66.1044 82.1866L65.21 83.9755ZM53.0948 75.833C52.5436 75.8675 52.1247 76.3422 52.1592 76.8934C52.1936 77.4446 52.6684 77.8636 53.2196 77.8291L53.0948 75.833ZM68.5517 70.0283C68.7986 69.5343 68.5984 68.9336 68.1044 68.6866C67.6105 68.4396 67.0098 68.6399 66.7628 69.1338L68.5517 70.0283ZM57.2997 67.0666C57.0156 67.5401 57.1692 68.1544 57.6427 68.4385C58.1163 68.7227 58.7306 68.5691 59.0147 68.0956L57.2997 67.0666ZM71.5503 62.2367C72.0994 62.2957 72.5924 61.8985 72.6515 61.3494C72.7106 60.8002 72.3133 60.3072 71.7642 60.2481L71.5503 62.2367ZM62.9735 54.1324C62.4495 53.9577 61.8832 54.2409 61.7085 54.7648C61.5339 55.2888 61.8171 55.8551 62.341 56.0297L62.9735 54.1324ZM57.8773 106.047L57.964 105.051L57.8773 106.047ZM72.8571 99.1812C73.5122 100.055 74.5389 102.109 74.595 104.294C74.6225 105.366 74.4163 106.443 73.8454 107.434C73.2768 108.42 72.3096 109.387 70.7101 110.187L71.6045 111.976C73.505 111.025 74.7877 109.804 75.5784 108.432C76.3668 107.063 76.6294 105.608 76.5943 104.243C76.5253 101.553 75.3019 99.1076 74.4572 97.9812L72.8571 99.1812ZM70.7101 110.187C67.663 111.71 65.2571 111.551 63.4945 110.702C61.692 109.835 60.424 108.18 59.8255 106.494L57.9407 107.163C58.6835 109.256 60.2694 111.37 62.6271 112.504C65.0246 113.658 68.0852 113.735 71.6045 111.976L70.7101 110.187ZM57.964 105.051C56.5313 104.927 55.1888 104.412 54.1609 103.461C53.1428 102.519 52.3625 101.084 52.1525 98.9818L50.1624 99.1806C50.4148 101.706 51.3824 103.615 52.8026 104.929C54.2129 106.233 55.9991 106.888 57.7907 107.044L57.964 105.051ZM66.8215 102.568C68.4185 102.301 70.8245 101.59 72.9102 100.293C74.9887 99.0005 76.9162 97.0137 77.1537 94.1642L75.1606 93.9982C74.998 95.9487 73.6755 97.4619 71.8541 98.5945C70.0398 99.7226 67.8958 100.361 66.4927 100.595L66.8215 102.568ZM51.1574 99.0812C52.1524 98.9817 52.1525 98.9819 52.1525 98.9821C52.1525 98.9821 52.1525 98.9823 52.1525 98.9824C52.1525 98.9826 52.1526 98.9828 52.1526 98.9829C52.1526 98.9833 52.1526 98.9835 52.1526 98.9837C52.1527 98.984 52.1527 98.9841 52.1527 98.9838C52.1526 98.9833 52.1524 98.9816 52.1522 98.9786C52.1517 98.9728 52.1508 98.9622 52.1497 98.9471C52.1474 98.917 52.1442 98.8691 52.1412 98.8055C52.1352 98.678 52.1299 98.4885 52.1344 98.2531C52.1434 97.7797 52.1913 97.135 52.3436 96.4432L50.3904 96.013C50.2024 96.8666 50.1455 97.6484 50.1348 98.2152C50.1294 98.4999 50.1356 98.7339 50.1434 98.9C50.1473 98.9831 50.1517 99.0494 50.1553 99.0968C50.157 99.1206 50.1586 99.1396 50.1599 99.1536C50.1605 99.1607 50.161 99.1665 50.1614 99.171C50.1616 99.1732 50.1618 99.1752 50.162 99.1768C50.1621 99.1776 50.1621 99.1783 50.1622 99.179C50.1622 99.1793 50.1623 99.1796 50.1623 99.1799C50.1623 99.18 50.1623 99.1802 50.1623 99.1803C50.1624 99.1805 50.1624 99.1807 51.1574 99.0812ZM52.3436 96.4432C52.6386 95.1039 53.2896 93.7289 54.6536 92.9494L53.6613 91.213C51.6052 92.3879 50.7458 94.3994 50.3904 96.013L52.3436 96.4432ZM51.8679 95.3626C50.3123 94.4623 48.9947 92.5009 48.3762 90.2043C47.7592 87.9131 47.9031 85.5308 48.9594 83.8408L47.2634 82.7808C45.8197 85.0907 45.7366 88.0936 46.445 90.7244C47.152 93.3497 48.7121 95.847 50.8661 97.0936L51.8679 95.3626ZM51.8534 85.1006C49.866 84.7032 46.2351 81.6965 47.1436 76.2456L45.1708 75.9168C44.0794 82.4656 48.4485 86.4592 51.4611 87.0618L51.8534 85.1006ZM47.1436 76.2456C47.3973 74.7234 48.5682 73.2874 50.45 71.9801L49.3089 70.3376C47.2545 71.7648 45.5556 73.6076 45.1708 75.9168L47.1436 76.2456ZM50.45 71.9801C51.3587 71.3488 52.379 70.8436 53.4319 70.5427L52.8825 68.6197C51.5951 68.9875 50.3772 69.5954 49.3089 70.3376L50.45 71.9801ZM50.792 70.7501C50.3882 69.8484 49.9168 68.2351 49.8778 66.4386C49.839 64.6486 50.2294 62.7601 51.4466 61.1951L49.8679 59.9673C48.2851 62.0023 47.8329 64.3897 47.8783 66.482C47.9235 68.5679 48.4632 70.4433 48.9668 71.5676L50.792 70.7501ZM51.4466 61.1951C52.556 59.7688 53.7894 59.0899 54.9046 58.8052L54.4099 56.8674C52.8662 57.2615 51.2508 58.1892 49.8679 59.9673L51.4466 61.1951ZM54.9046 58.8052C56.3255 58.4425 57.6056 58.7081 58.2511 58.995L59.0634 57.1674C58.0441 56.7144 56.3042 56.3838 54.4099 56.8674L54.9046 58.8052ZM55.6549 57.7676C55.5401 56.1019 56.4896 52.5871 60.6316 51.3101L60.0424 49.3989C54.8035 51.014 53.4973 55.5508 53.6596 57.9051L55.6549 57.7676ZM60.6316 51.3101C61.4916 51.045 62.5032 50.8701 63.6905 50.8305L63.6239 48.8317C62.2779 48.8765 61.0888 49.0763 60.0424 49.3989L60.6316 51.3101ZM61.2999 50.6245C61.652 49.3688 62.5113 47.5101 63.9034 46.0815C65.2699 44.6791 67.1038 43.7265 69.5158 44.0711L69.7987 42.0912C66.6107 41.6357 64.1711 42.9409 62.4709 44.6857C60.7962 46.4044 59.7954 48.5824 59.3742 50.0845L61.2999 50.6245ZM69.5158 44.0711C72.4275 44.487 73.8073 45.9497 74.3914 47.4487C75.0112 49.0391 74.7677 50.7408 74.2874 51.5878L76.0271 52.5743C76.8227 51.1714 77.0791 48.8374 76.2549 46.7225C75.3951 44.5161 73.387 42.6038 69.7987 42.0912L69.5158 44.0711ZM77.1537 94.1642C77.3747 91.5116 76.5074 89.4459 75.3158 87.9564L73.754 89.2057C74.6631 90.3421 75.3345 91.9111 75.1606 93.9982L77.1537 94.1642ZM75.3158 87.9564C74.1131 86.4529 72.5824 85.5354 71.499 85.1414L70.8155 87.021C71.5885 87.3021 72.8026 88.0165 73.754 89.2057L75.3158 87.9564ZM75.3738 89.1254C76.3378 87.6398 76.8136 85.225 76.8294 82.775C76.8454 80.2945 76.3921 77.5647 75.3017 75.3838L73.5128 76.2783C74.4224 78.0974 74.8441 80.4926 74.8295 82.7621C74.8147 85.0621 74.3543 87.0223 73.6961 88.0367L75.3738 89.1254ZM73.7001 75.1239C72.8658 75.9583 71.8072 76.6313 69.4611 77.1005L69.8533 79.0616C72.5073 78.5308 73.9487 77.7038 75.1143 76.5382L73.7001 75.1239ZM75.1966 76.445C76.054 75.3426 76.9527 73.5834 77.0813 71.6108C77.2138 69.5791 76.5198 67.381 74.2871 65.5704L73.0274 67.1238C74.7297 68.5043 75.1781 70.0615 75.0856 71.4807C74.9891 72.9589 74.2953 74.3461 73.6179 75.2171L75.1966 76.445ZM74.2871 65.5704C73.6725 65.072 72.9484 64.6086 72.1044 64.1866L71.21 65.9755C71.9399 66.3404 72.5386 66.7274 73.0274 67.1238L74.2871 65.5704ZM74.3252 51.5264C74.0754 51.901 73.7951 52.2306 73.4867 52.5093L74.8277 53.9931C75.2707 53.5928 75.657 53.1341 75.9893 52.6358L74.3252 51.5264ZM73.4867 52.5093C72.748 53.1769 71.8179 53.5811 70.6572 53.5811V55.5811C72.3326 55.5811 73.7358 54.9799 74.8277 53.9931L73.4867 52.5093ZM74.4621 66.9405C75.9819 64.879 78.0369 59.3446 75.067 52.8361L73.2475 53.6663C75.8775 59.43 73.9992 64.198 72.8523 65.7537L74.4621 66.9405ZM59.6274 99.8236C60.078 98.0209 60.5076 95.8899 62.7595 94.7126L61.8328 92.9402C58.6641 94.5969 58.0958 97.7036 57.6871 99.3385L59.6274 99.8236ZM62.7595 94.7126C64.0734 94.0255 65.5457 93.5416 68.5632 93.8266L68.7513 91.8355C65.3705 91.5162 63.5082 92.0642 61.8328 92.9402L62.7595 94.7126ZM63.2909 93.7246C63.0511 91.3807 61.1625 86.3193 55.5162 84.1477L54.7982 86.0144C59.552 87.8428 61.1152 92.1085 61.3013 93.9281L63.2909 93.7246ZM66.1044 82.1866C65.1921 81.7304 64.2549 81.09 63.6103 80.0071C62.9708 78.9328 62.546 77.2982 62.8981 74.7162L60.9164 74.4459C60.5185 77.3639 60.9687 79.4793 61.8917 81.03C62.8096 82.5721 64.1224 83.4317 65.21 83.9755L66.1044 82.1866ZM61.46 73.6866C59.5645 74.6344 56.9446 75.5924 53.0948 75.833L53.2196 77.8291C57.3699 77.5697 60.25 76.5277 62.3544 75.4755L61.46 73.6866ZM62.3861 75.459C63.3457 74.9355 64.585 74.1532 65.7231 73.234C66.8413 72.3308 67.9548 71.2219 68.5517 70.0283L66.7628 69.1338C66.3596 69.9402 65.5149 70.8313 64.4664 71.6781C63.4377 72.5089 62.3021 73.2266 61.4284 73.7032L62.3861 75.459ZM59.0147 68.0956C60.4375 65.7242 62.7151 63.0886 66.862 62.2212L66.4525 60.2636C61.551 61.2888 58.8769 64.4379 57.2997 67.0666L59.0147 68.0956ZM66.862 62.2212C68.4384 61.8915 70.0197 62.072 71.5503 62.2367L71.7642 60.2481C70.2948 60.0901 68.3917 59.858 66.4525 60.2636L66.862 62.2212ZM67.6515 61.1358C67.5602 60.2845 67.2886 58.8701 66.616 57.5106C65.9417 56.1477 64.8135 54.7457 62.9735 54.1324L62.341 56.0297C63.501 56.4164 64.2894 57.3182 64.8234 58.3975C65.3591 59.4803 65.5876 60.6465 65.6629 61.3491L67.6515 61.1358ZM59.8255 106.494C59.5424 105.696 58.8154 105.125 57.964 105.051L57.7907 107.044C57.8535 107.049 57.9169 107.095 57.9407 107.163L59.8255 106.494Z" fill="#4964EA"/>
<path d="M105.188 99.0812L104.193 98.9818L104.193 98.9817L105.188 99.0812ZM101.692 92.9494C101.213 92.6754 101.046 92.0646 101.32 91.5851C101.594 91.1055 102.205 90.9389 102.684 91.213L101.692 92.9494ZM89.853 100.595C90.3977 100.686 90.7658 101.201 90.675 101.746C90.5842 102.29 90.0689 102.658 89.5242 102.568L89.853 100.595ZM80.1886 94.0812L79.192 94.1642L80.1886 94.0812ZM84.8467 85.1414C85.3657 84.9527 85.9395 85.2204 86.1282 85.7394C86.317 86.2585 86.0492 86.8322 85.5302 87.021L84.8467 85.1414ZM104.885 87.0618C104.343 87.1701 103.816 86.8189 103.708 86.2773C103.6 85.7358 103.951 85.2089 104.492 85.1006L104.885 87.0618ZM110.189 76.0812L109.202 76.2456L110.189 76.0812ZM102.914 70.5427C102.383 70.391 102.075 69.8375 102.227 69.3065C102.379 68.7754 102.932 68.468 103.463 68.6197L102.914 70.5427ZM105.688 60.5812L104.899 61.1951L105.688 60.5812ZM98.0946 58.995C97.5899 59.2193 96.999 58.992 96.7747 58.4873C96.5504 57.9827 96.7777 57.3917 97.2823 57.1674L98.0946 58.995ZM92.6552 50.8305C92.1032 50.8121 91.6706 50.3498 91.689 49.7978C91.7074 49.2458 92.1698 48.8133 92.7218 48.8317L92.6552 50.8305ZM96.0087 50.3545L95.7141 51.3101L96.0087 50.3545ZM86.6885 43.0811L86.5471 42.0912L86.6885 43.0811ZM81.1885 52.0811L80.3564 52.6358L80.3364 52.6057L80.3186 52.5743L81.1885 52.0811ZM85.6885 53.5811C86.2408 53.5811 86.6885 54.0288 86.6885 54.5811C86.6885 55.1333 86.2408 55.5811 85.6885 55.5811V53.5811ZM86.8846 77.1005C87.4262 77.2088 87.7774 77.7356 87.6691 78.2772C87.5607 78.8187 87.0339 79.1699 86.4924 79.0616L86.8846 77.1005ZM84.2413 64.1866C84.7352 63.9396 85.3359 64.1399 85.5829 64.6338C85.8299 65.1278 85.6297 65.7285 85.1357 65.9755L84.2413 64.1866ZM82.6885 66.3471L83.3183 67.1238L82.6885 66.3471ZM98.6586 99.3385C98.7926 99.8743 98.4668 100.417 97.931 100.551C97.3952 100.685 96.8523 100.359 96.7183 99.8236L98.6586 99.3385ZM87.7825 93.8266C87.2327 93.8786 86.7448 93.4749 86.6929 92.9251C86.641 92.3752 87.0446 91.8874 87.5944 91.8355L87.7825 93.8266ZM100.829 84.1477C101.345 83.9495 101.924 84.2066 102.122 84.7221C102.32 85.2375 102.063 85.8161 101.547 86.0144L100.829 84.1477ZM91.1357 83.9755C90.6417 84.2225 90.041 84.0222 89.7941 83.5283C89.5471 83.0343 89.7473 82.4336 90.2413 82.1866L91.1357 83.9755ZM103.251 75.833C103.802 75.8675 104.221 76.3422 104.187 76.8934C104.152 77.4446 103.677 77.8636 103.126 77.8291L103.251 75.833ZM87.7941 70.0283C87.5471 69.5343 87.7473 68.9336 88.2413 68.6866C88.7352 68.4396 89.3359 68.6399 89.5829 69.1338L87.7941 70.0283ZM99.046 67.0666C99.3301 67.5401 99.1766 68.1544 98.703 68.4385C98.2294 68.7227 97.6151 68.5691 97.331 68.0956L99.046 67.0666ZM84.7954 62.2367C84.2463 62.2957 83.7533 61.8985 83.6942 61.3494C83.6351 60.8002 84.0324 60.3072 84.5815 60.2481L84.7954 62.2367ZM93.3722 54.1324C93.8962 53.9577 94.4625 54.2409 94.6372 54.7648C94.8118 55.2888 94.5286 55.8551 94.0047 56.0297L93.3722 54.1324ZM98.4684 106.047L98.3817 105.051L98.4684 106.047ZM83.4886 99.1812C82.8335 100.055 81.8068 102.109 81.7507 104.294C81.7232 105.366 81.9294 106.443 82.5003 107.434C83.0689 108.42 84.0361 109.387 85.6356 110.187L84.7412 111.976C82.8407 111.025 81.558 109.804 80.7673 108.432C79.9789 107.063 79.7164 105.608 79.7514 104.243C79.8204 101.553 81.0438 99.1076 81.8885 97.9812L83.4886 99.1812ZM85.6356 110.187C88.6827 111.71 91.0886 111.551 92.8512 110.702C94.6537 109.835 95.9217 108.18 96.5202 106.494L98.405 107.163C97.6622 109.256 96.0763 111.37 93.7186 112.504C91.3211 113.658 88.2605 113.735 84.7412 111.976L85.6356 110.187ZM98.3817 105.051C99.8144 104.927 101.157 104.412 102.185 103.461C103.203 102.519 103.983 101.084 104.193 98.9818L106.183 99.1806C105.931 101.706 104.963 103.615 103.543 104.929C102.133 106.233 100.347 106.888 98.555 107.044L98.3817 105.051ZM89.5242 102.568C87.9273 102.301 85.5212 101.59 83.4355 100.293C81.357 99.0005 79.4295 97.0137 79.192 94.1642L81.1851 93.9982C81.3477 95.9487 82.6702 97.4619 84.4916 98.5945C86.3059 99.7226 88.4499 100.361 89.853 100.595L89.5242 102.568ZM105.188 99.0812C104.193 98.9817 104.193 98.9819 104.193 98.9821C104.193 98.9821 104.193 98.9823 104.193 98.9824C104.193 98.9826 104.193 98.9828 104.193 98.9829C104.193 98.9833 104.193 98.9835 104.193 98.9837C104.193 98.984 104.193 98.9841 104.193 98.9838C104.193 98.9833 104.193 98.9816 104.194 98.9786C104.194 98.9728 104.195 98.9622 104.196 98.9471C104.198 98.917 104.202 98.8691 104.205 98.8055C104.211 98.678 104.216 98.4885 104.211 98.2531C104.202 97.7797 104.154 97.135 104.002 96.4432L105.955 96.013C106.143 96.8666 106.2 97.6484 106.211 98.2152C106.216 98.4999 106.21 98.7339 106.202 98.9C106.198 98.9831 106.194 99.0494 106.19 99.0968C106.189 99.1206 106.187 99.1396 106.186 99.1536C106.185 99.1607 106.185 99.1665 106.184 99.171C106.184 99.1732 106.184 99.1752 106.184 99.1768C106.184 99.1776 106.184 99.1783 106.184 99.179C106.183 99.1793 106.183 99.1796 106.183 99.1799C106.183 99.18 106.183 99.1802 106.183 99.1803C106.183 99.1805 106.183 99.1807 105.188 99.0812ZM104.002 96.4432C103.707 95.1039 103.056 93.7289 101.692 92.9494L102.684 91.213C104.74 92.3879 105.6 94.3994 105.955 96.013L104.002 96.4432ZM104.478 95.3626C106.033 94.4623 107.351 92.5009 107.969 90.2043C108.586 87.9131 108.443 85.5308 107.386 83.8408L109.082 82.7808C110.526 85.0907 110.609 88.0936 109.901 90.7244C109.194 93.3497 107.634 95.847 105.48 97.0936L104.478 95.3626ZM104.492 85.1006C106.48 84.7032 110.111 81.6965 109.202 76.2456L111.175 75.9168C112.266 82.4656 107.897 86.4592 104.885 87.0618L104.492 85.1006ZM109.202 76.2456C108.948 74.7234 107.778 73.2874 105.896 71.9801L107.037 70.3376C109.091 71.7648 110.79 73.6076 111.175 75.9168L109.202 76.2456ZM105.896 71.9801C104.987 71.3488 103.967 70.8436 102.914 70.5427L103.463 68.6197C104.751 68.9875 105.969 69.5954 107.037 70.3376L105.896 71.9801ZM105.554 70.7501C105.957 69.8484 106.429 68.2351 106.468 66.4386C106.507 64.6486 106.116 62.7601 104.899 61.1951L106.478 59.9673C108.061 62.0023 108.513 64.3897 108.467 66.482C108.422 68.5679 107.882 70.4433 107.379 71.5676L105.554 70.7501ZM104.899 61.1951C103.79 59.7688 102.556 59.0899 101.441 58.8052L101.936 56.8674C103.479 57.2615 105.095 58.1892 106.478 59.9673L104.899 61.1951ZM101.441 58.8052C100.02 58.4425 98.7401 58.7081 98.0946 58.995L97.2823 57.1674C98.3017 56.7144 100.041 56.3838 101.936 56.8674L101.441 58.8052ZM100.691 57.7676C100.806 56.1019 99.8561 52.5871 95.7141 51.3101L96.3033 49.3989C101.542 51.014 102.848 55.5508 102.686 57.9051L100.691 57.7676ZM95.7141 51.3101C94.8541 51.045 93.8425 50.8701 92.6552 50.8305L92.7218 48.8317C94.0678 48.8765 95.2569 49.0763 96.3033 49.3989L95.7141 51.3101ZM95.0458 50.6245C94.6937 49.3688 93.8344 47.5101 92.4423 46.0815C91.0758 44.6791 89.2419 43.7265 86.8299 44.0711L86.5471 42.0912C89.735 41.6357 92.1746 42.9409 93.8748 44.6857C95.5495 46.4044 96.5503 48.5824 96.9715 50.0845L95.0458 50.6245ZM86.8299 44.0711C83.9182 44.487 82.5384 45.9497 81.9543 47.4487C81.3345 49.0391 81.578 50.7408 82.0583 51.5878L80.3186 52.5743C79.5231 51.1714 79.2666 48.8374 80.0908 46.7225C80.9506 44.5161 82.9587 42.6038 86.5471 42.0912L86.8299 44.0711ZM79.192 94.1642C78.971 91.5116 79.8384 89.4459 81.0299 87.9564L82.5917 89.2057C81.6826 90.3421 81.0112 91.9111 81.1851 93.9982L79.192 94.1642ZM81.0299 87.9564C82.2326 86.4529 83.7633 85.5354 84.8467 85.1414L85.5302 87.021C84.7572 87.3021 83.5431 88.0165 82.5917 89.2057L81.0299 87.9564ZM80.9719 89.1254C80.0079 87.6398 79.5321 85.225 79.5163 82.775C79.5003 80.2945 79.9536 77.5647 81.044 75.3838L82.8329 76.2783C81.9233 78.0974 81.5016 80.4926 81.5162 82.7621C81.5311 85.0621 81.9914 87.0223 82.6497 88.0367L80.9719 89.1254ZM82.6456 75.1239C83.4799 75.9583 84.5385 76.6313 86.8846 77.1005L86.4924 79.0616C83.8384 78.5308 82.397 77.7038 81.2314 76.5382L82.6456 75.1239ZM81.1491 76.445C80.2917 75.3426 79.393 73.5834 79.2644 71.6108C79.1319 69.5791 79.8259 67.381 82.0586 65.5704L83.3183 67.1238C81.616 68.5043 81.1676 70.0615 81.2602 71.4807C81.3566 72.9589 82.0504 74.3461 82.7278 75.2171L81.1491 76.445ZM82.0586 65.5704C82.6732 65.072 83.3973 64.6086 84.2413 64.1866L85.1357 65.9755C84.4058 66.3404 83.8071 66.7274 83.3183 67.1238L82.0586 65.5704ZM82.0205 51.5264C82.2703 51.901 82.5506 52.2306 82.859 52.5093L81.518 53.9931C81.075 53.5928 80.6887 53.1341 80.3564 52.6358L82.0205 51.5264ZM82.859 52.5093C83.5977 53.1769 84.5278 53.5811 85.6885 53.5811V55.5811C84.0131 55.5811 82.6099 54.9799 81.518 53.9931L82.859 52.5093ZM81.8836 66.9405C80.3638 64.879 78.3088 59.3446 81.2787 52.8361L83.0982 53.6663C80.4682 59.43 82.3465 64.198 83.4934 65.7537L81.8836 66.9405ZM96.7183 99.8236C96.2677 98.0209 95.8381 95.8899 93.5863 94.7126L94.5129 92.9402C97.6816 94.5969 98.2499 97.7036 98.6586 99.3385L96.7183 99.8236ZM93.5863 94.7126C92.2723 94.0255 90.8 93.5416 87.7825 93.8266L87.5944 91.8355C90.9752 91.5162 92.8375 92.0642 94.5129 92.9402L93.5863 94.7126ZM93.0548 93.7246C93.2946 91.3807 95.1832 86.3193 100.829 84.1477L101.547 86.0144C96.7937 87.8428 95.2305 92.1085 95.0444 93.9281L93.0548 93.7246ZM90.2413 82.1866C91.1536 81.7304 92.0908 81.09 92.7354 80.0071C93.3749 78.9328 93.7997 77.2982 93.4476 74.7162L95.4293 74.4459C95.8272 77.3639 95.3771 79.4793 94.454 81.03C93.5361 82.5721 92.2233 83.4317 91.1357 83.9755L90.2413 82.1866ZM94.8857 73.6866C96.7812 74.6344 99.4011 75.5924 103.251 75.833L103.126 77.8291C98.9759 77.5697 96.0957 76.5277 93.9913 75.4755L94.8857 73.6866ZM93.9596 75.459C93 74.9355 91.7607 74.1532 90.6226 73.234C89.5044 72.3308 88.3909 71.2219 87.7941 70.0283L89.5829 69.1338C89.9861 69.9402 90.8308 70.8313 91.8793 71.6781C92.908 72.5089 94.0436 73.2266 94.9173 73.7032L93.9596 75.459ZM97.331 68.0956C95.9082 65.7242 93.6306 63.0886 89.4837 62.2212L89.8932 60.2636C94.7947 61.2888 97.4688 64.4379 99.046 67.0666L97.331 68.0956ZM89.4837 62.2212C87.9073 61.8915 86.326 62.072 84.7954 62.2367L84.5815 60.2481C86.0509 60.0901 87.9541 59.858 89.8932 60.2636L89.4837 62.2212ZM88.6942 61.1358C88.7855 60.2845 89.0571 58.8701 89.7297 57.5106C90.404 56.1477 91.5322 54.7457 93.3722 54.1324L94.0047 56.0297C92.8447 56.4164 92.0563 57.3182 91.5223 58.3975C90.9866 59.4803 90.7581 60.6465 90.6828 61.3491L88.6942 61.1358ZM96.5202 106.494C96.8033 105.696 97.5303 105.125 98.3817 105.051L98.555 107.044C98.4922 107.049 98.4288 107.095 98.405 107.163L96.5202 106.494Z" fill="#4964EA"/>
<rect x="220" y="8" width="140" height="160" rx="10" fill="#F3F3F5"/>
<path d="M254.411 147H255.947V143.147H258.035C258.07 143.147 258.1 143.147 258.134 143.147L260.203 147H261.953L259.695 142.879C260.943 142.416 261.565 141.377 261.565 140.01C261.565 138.136 260.401 136.818 258.04 136.818H254.411V147ZM255.947 141.825V138.136H257.876C259.392 138.136 260.019 138.857 260.019 140.01C260.019 141.158 259.392 141.825 257.896 141.825H255.947ZM263.434 147H269.877V145.678H264.97V142.56H269.484V141.243H264.97V138.141H269.818V136.818H263.434V147ZM277.423 139.493H278.904C278.86 137.862 277.418 136.679 275.35 136.679C273.306 136.679 271.74 137.847 271.74 139.602C271.74 141.019 272.755 141.849 274.39 142.292L275.593 142.62C276.682 142.908 277.522 143.266 277.522 144.171C277.522 145.165 276.573 145.822 275.265 145.822C274.082 145.822 273.098 145.295 273.008 144.186H271.467C271.566 146.031 272.993 147.169 275.275 147.169C277.666 147.169 279.044 145.911 279.044 144.186C279.044 142.352 277.408 141.641 276.115 141.322L275.121 141.064C274.326 140.86 273.267 140.487 273.272 139.513C273.272 138.648 274.062 138.006 275.315 138.006C276.483 138.006 277.313 138.553 277.423 139.493ZM280.879 147H287.323V145.678H282.416V142.56H286.93V141.243H282.416V138.141H287.263V136.818H280.879V147ZM290.175 147L291.11 144.305H295.087L296.017 147H297.647L293.983 136.818H292.208L288.544 147H290.175ZM291.557 143.013L293.059 138.668H293.138L294.639 143.013H291.557ZM299.118 147H300.654V143.147H302.742C302.777 143.147 302.807 143.147 302.841 143.147L304.91 147H306.66L304.402 142.879C305.65 142.416 306.272 141.377 306.272 140.01C306.272 138.136 305.108 136.818 302.747 136.818H299.118V147ZM300.654 141.825V138.136H302.583C304.099 138.136 304.726 138.857 304.726 140.01C304.726 141.158 304.099 141.825 302.603 141.825H300.654ZM316.598 140.129C316.25 137.952 314.544 136.679 312.392 136.679C309.757 136.679 307.813 138.653 307.813 141.909C307.813 145.165 309.747 147.139 312.392 147.139C314.629 147.139 316.265 145.737 316.598 143.724L315.047 143.719C314.783 145.021 313.689 145.737 312.402 145.737C310.657 145.737 309.339 144.4 309.339 141.909C309.339 139.438 310.652 138.081 312.407 138.081C313.704 138.081 314.793 138.812 315.047 140.129H316.598ZM318.436 147H319.972V142.56H325.048V147H326.589V136.818H325.048V141.243H319.972V136.818H318.436V147Z" fill="#0C0F1E"/>
<path d="M316 67C316 74.4654 312.855 81.1946 307.815 85.9378C303.16 90.3177 296.895 93 290 93C275.641 93 264 81.3594 264 67C264 52.6406 275.641 41 290 41C304.359 41 316 52.6406 316 67Z" stroke="#4964EA" stroke-width="2"/>
<path d="M280.037 73.5154C280.037 69.0971 283.619 65.5154 288.037 65.5154L292.037 65.5154C296.455 65.5154 300.037 69.0971 300.037 73.5154L300.037 80.5154L280.037 80.5154L280.037 73.5154Z" stroke="#4964EA" stroke-width="2"/>
<circle cx="290.037" cy="60.5154" r="7" fill="white" stroke="#4964EA" stroke-width="2"/>
<path d="M289 92V99.5H291V92H289ZM290 100.5H292.5V98.5H290V100.5ZM294.5 102.5V114.5H296.5V102.5H294.5ZM290 98.5H287.5V100.5H290V98.5ZM283.5 102.5V114.5H285.5V102.5H283.5ZM285.5 116.5H294.5V114.5H285.5V116.5ZM283.5 114.5C283.5 115.605 284.395 116.5 285.5 116.5V114.5H283.5ZM287.5 98.5C285.291 98.5 283.5 100.291 283.5 102.5H285.5C285.5 101.395 286.395 100.5 287.5 100.5V98.5ZM294.5 114.5V116.5C295.605 116.5 296.5 115.605 296.5 114.5H294.5ZM292.5 100.5C293.605 100.5 294.5 101.395 294.5 102.5H296.5C296.5 100.291 294.709 98.5 292.5 98.5V100.5Z" fill="#4964EA"/>
<mask id="path-29-inside-1_398_750" fill="white">
<rect x="301.037" y="41.0154" width="26" height="14" rx="1"/>
</mask>
<rect x="301.037" y="41.0154" width="26" height="14" rx="1" fill="white" stroke="#4964EA" stroke-width="4" mask="url(#path-29-inside-1_398_750)"/>
<rect x="305.037" y="45.0154" width="18" height="2" rx="1" fill="#4964EA"/>
<rect x="305.037" y="49.0154" width="5" height="2" rx="1" fill="#4964EA"/>
<rect x="312.037" y="49.0154" width="11" height="2" rx="1" fill="#4964EA"/>
<path d="M164 87C163.448 87 163 87.4477 163 88C163 88.5523 163.448 89 164 89V87ZM204 88L204.707 88.7071C205.098 88.3166 205.098 87.6834 204.707 87.2929L204 88ZM199.293 91.2929C198.902 91.6834 198.902 92.3166 199.293 92.7071C199.683 93.0976 200.317 93.0976 200.707 92.7071L199.293 91.2929ZM200.707 83.2929C200.317 82.9024 199.683 82.9024 199.293 83.2929C198.902 83.6834 198.902 84.3166 199.293 84.7071L200.707 83.2929ZM164 89H204V87H164V89ZM203.293 87.2929L199.293 91.2929L200.707 92.7071L204.707 88.7071L203.293 87.2929ZM204.707 87.2929L200.707 83.2929L199.293 84.7071L203.293 88.7071L204.707 87.2929Z" fill="#0C0F1E"/>
<path d="M204 319C204.552 319 205 319.448 205 320C205 320.552 204.552 321 204 321V319ZM164 320L163.293 320.707C162.902 320.317 162.902 319.683 163.293 319.293L164 320ZM168.707 323.293C169.098 323.683 169.098 324.317 168.707 324.707C168.317 325.098 167.683 325.098 167.293 324.707L168.707 323.293ZM167.293 315.293C167.683 314.902 168.317 314.902 168.707 315.293C169.098 315.683 169.098 316.317 168.707 316.707L167.293 315.293ZM204 321H164V319H204V321ZM164.707 319.293L168.707 323.293L167.293 324.707L163.293 320.707L164.707 319.293ZM163.293 319.293L167.293 315.293L168.707 316.707L164.707 320.707L163.293 319.293Z" fill="#0C0F1E"/>
<path d="M291 184C291 183.448 290.552 183 290 183C289.448 183 289 183.448 289 184L291 184ZM290 224L289.293 224.707C289.683 225.098 290.317 225.098 290.707 224.707L290 224ZM286.707 219.293C286.317 218.902 285.683 218.902 285.293 219.293C284.902 219.683 284.902 220.317 285.293 220.707L286.707 219.293ZM294.707 220.707C295.098 220.317 295.098 219.683 294.707 219.293C294.317 218.902 293.683 218.902 293.293 219.293L294.707 220.707ZM289 184L289 224L291 224L291 184L289 184ZM290.707 223.293L286.707 219.293L285.293 220.707L289.293 224.707L290.707 223.293ZM290.707 224.707L294.707 220.707L293.293 219.293L289.293 223.293L290.707 224.707Z" fill="#0C0F1E"/>
<path d="M81 224C81 224.552 80.5523 225 80 225C79.4477 225 79 224.552 79 224L81 224ZM80 184L79.2929 183.293C79.6834 182.902 80.3166 182.902 80.7071 183.293L80 184ZM76.7071 188.707C76.3166 189.098 75.6834 189.098 75.2929 188.707C74.9024 188.317 74.9024 187.683 75.2929 187.293L76.7071 188.707ZM84.7071 187.293C85.0976 187.683 85.0976 188.317 84.7071 188.707C84.3166 189.098 83.6834 189.098 83.2929 188.707L84.7071 187.293ZM79 224L79 184L81 184L81 224L79 224ZM80.7071 184.707L76.7071 188.707L75.2929 187.293L79.2929 183.293L80.7071 184.707ZM80.7071 183.293L84.7071 187.293L83.2929 188.707L79.2929 184.707L80.7071 183.293Z" fill="#0C0F1E"/>
</svg>
