<svg width="1050" height="1012" viewBox="0 0 1050 1012" fill="none" xmlns="http://www.w3.org/2000/svg">
<rect width="1050" height="1012" fill="white"/>
<rect x="567.5" y="92.5" width="390" height="827" rx="27.5" fill="white"/>
<rect x="575" y="100" width="375" height="55" fill="#333333"/>
<path d="M618 126.611V129.389H601.333L608.972 137.028L607 139L596 128L607 117L608.972 118.972L601.333 126.611H618Z" fill="white"/>
<path d="M616.578 420.523H613.094V430H610.75V420.523H607.312V418.625H616.578V420.523ZM622.008 423.664C621.701 423.622 621.43 423.602 621.195 423.602C620.341 423.602 619.781 423.891 619.516 424.469V430H617.258V421.547H619.391L619.453 422.555C619.906 421.779 620.534 421.391 621.336 421.391C621.586 421.391 621.82 421.424 622.039 421.492L622.008 423.664ZM627.766 430C627.661 429.797 627.586 429.544 627.539 429.242C626.992 429.852 626.281 430.156 625.406 430.156C624.578 430.156 623.891 429.917 623.344 429.438C622.802 428.958 622.531 428.354 622.531 427.625C622.531 426.729 622.862 426.042 623.523 425.562C624.19 425.083 625.151 424.841 626.406 424.836H627.445V424.352C627.445 423.961 627.344 423.648 627.141 423.414C626.943 423.18 626.628 423.062 626.195 423.062C625.815 423.062 625.516 423.154 625.297 423.336C625.083 423.518 624.977 423.768 624.977 424.086H622.719C622.719 423.596 622.87 423.143 623.172 422.727C623.474 422.31 623.901 421.984 624.453 421.75C625.005 421.51 625.625 421.391 626.312 421.391C627.354 421.391 628.18 421.654 628.789 422.18C629.404 422.701 629.711 423.435 629.711 424.383V428.047C629.716 428.849 629.828 429.456 630.047 429.867V430H627.766ZM625.898 428.43C626.232 428.43 626.539 428.357 626.82 428.211C627.102 428.06 627.31 427.859 627.445 427.609V426.156H626.602C625.471 426.156 624.87 426.547 624.797 427.328L624.789 427.461C624.789 427.742 624.888 427.974 625.086 428.156C625.284 428.339 625.555 428.43 625.898 428.43ZM633.828 430H631.562V421.547H633.828V430ZM631.43 419.359C631.43 419.021 631.542 418.742 631.766 418.523C631.995 418.305 632.305 418.195 632.695 418.195C633.081 418.195 633.388 418.305 633.617 418.523C633.846 418.742 633.961 419.021 633.961 419.359C633.961 419.703 633.844 419.984 633.609 420.203C633.38 420.422 633.076 420.531 632.695 420.531C632.315 420.531 632.008 420.422 631.773 420.203C631.544 419.984 631.43 419.703 631.43 419.359ZM637.773 421.547L637.844 422.523C638.448 421.768 639.258 421.391 640.273 421.391C641.169 421.391 641.836 421.654 642.273 422.18C642.711 422.706 642.935 423.492 642.945 424.539V430H640.688V424.594C640.688 424.115 640.583 423.768 640.375 423.555C640.167 423.336 639.82 423.227 639.336 423.227C638.701 423.227 638.224 423.497 637.906 424.039V430H635.648V421.547H637.773ZM648.555 430.156C647.315 430.156 646.305 429.776 645.523 429.016C644.747 428.255 644.359 427.242 644.359 425.977V425.758C644.359 424.909 644.523 424.151 644.852 423.484C645.18 422.812 645.643 422.297 646.242 421.938C646.846 421.573 647.534 421.391 648.305 421.391C649.461 421.391 650.37 421.755 651.031 422.484C651.698 423.214 652.031 424.247 652.031 425.586V426.508H646.648C646.721 427.06 646.94 427.503 647.305 427.836C647.674 428.169 648.141 428.336 648.703 428.336C649.573 428.336 650.253 428.021 650.742 427.391L651.852 428.633C651.513 429.112 651.055 429.487 650.477 429.758C649.898 430.023 649.258 430.156 648.555 430.156ZM648.297 423.219C647.849 423.219 647.484 423.37 647.203 423.672C646.927 423.974 646.75 424.406 646.672 424.969H649.812V424.789C649.802 424.289 649.667 423.904 649.406 423.633C649.146 423.357 648.776 423.219 648.297 423.219ZM658.07 423.664C657.763 423.622 657.492 423.602 657.258 423.602C656.404 423.602 655.844 423.891 655.578 424.469V430H653.32V421.547H655.453L655.516 422.555C655.969 421.779 656.596 421.391 657.398 421.391C657.648 421.391 657.883 421.424 658.102 421.492L658.07 423.664ZM665.852 419.469V421.547H667.297V423.203H665.852V427.422C665.852 427.734 665.911 427.958 666.031 428.094C666.151 428.229 666.38 428.297 666.719 428.297C666.969 428.297 667.19 428.279 667.383 428.242V429.953C666.94 430.089 666.484 430.156 666.016 430.156C664.432 430.156 663.625 429.357 663.594 427.758V423.203H662.359V421.547H663.594V419.469H665.852ZM667.969 425.695C667.969 424.857 668.13 424.109 668.453 423.453C668.776 422.797 669.24 422.289 669.844 421.93C670.453 421.57 671.159 421.391 671.961 421.391C673.102 421.391 674.031 421.74 674.75 422.438C675.474 423.135 675.878 424.083 675.961 425.281L675.977 425.859C675.977 427.156 675.615 428.198 674.891 428.984C674.167 429.766 673.195 430.156 671.977 430.156C670.758 430.156 669.784 429.766 669.055 428.984C668.331 428.203 667.969 427.141 667.969 425.797V425.695ZM670.227 425.859C670.227 426.661 670.378 427.276 670.68 427.703C670.982 428.125 671.414 428.336 671.977 428.336C672.523 428.336 672.951 428.128 673.258 427.711C673.565 427.289 673.719 426.617 673.719 425.695C673.719 424.909 673.565 424.299 673.258 423.867C672.951 423.435 672.518 423.219 671.961 423.219C671.409 423.219 670.982 423.435 670.68 423.867C670.378 424.294 670.227 424.958 670.227 425.859ZM681.258 430.156C680.018 430.156 679.008 429.776 678.227 429.016C677.451 428.255 677.062 427.242 677.062 425.977V425.758C677.062 424.909 677.227 424.151 677.555 423.484C677.883 422.812 678.346 422.297 678.945 421.938C679.549 421.573 680.237 421.391 681.008 421.391C682.164 421.391 683.073 421.755 683.734 422.484C684.401 423.214 684.734 424.247 684.734 425.586V426.508H679.352C679.424 427.06 679.643 427.503 680.008 427.836C680.378 428.169 680.844 428.336 681.406 428.336C682.276 428.336 682.956 428.021 683.445 427.391L684.555 428.633C684.216 429.112 683.758 429.487 683.18 429.758C682.602 430.023 681.961 430.156 681.258 430.156ZM681 423.219C680.552 423.219 680.188 423.37 679.906 423.672C679.63 423.974 679.453 424.406 679.375 424.969H682.516V424.789C682.505 424.289 682.37 423.904 682.109 423.633C681.849 423.357 681.479 423.219 681 423.219ZM689.078 427.242L690.648 421.547H693.008L690.156 430H688L685.148 421.547H687.508L689.078 427.242ZM693.531 425.695C693.531 424.857 693.693 424.109 694.016 423.453C694.339 422.797 694.802 422.289 695.406 421.93C696.016 421.57 696.721 421.391 697.523 421.391C698.664 421.391 699.594 421.74 700.312 422.438C701.036 423.135 701.44 424.083 701.523 425.281L701.539 425.859C701.539 427.156 701.177 428.198 700.453 428.984C699.729 429.766 698.758 430.156 697.539 430.156C696.32 430.156 695.346 429.766 694.617 428.984C693.893 428.203 693.531 427.141 693.531 425.797V425.695ZM695.789 425.859C695.789 426.661 695.94 427.276 696.242 427.703C696.544 428.125 696.977 428.336 697.539 428.336C698.086 428.336 698.513 428.128 698.82 427.711C699.128 427.289 699.281 426.617 699.281 425.695C699.281 424.909 699.128 424.299 698.82 423.867C698.513 423.435 698.081 423.219 697.523 423.219C696.971 423.219 696.544 423.435 696.242 423.867C695.94 424.294 695.789 424.958 695.789 425.859ZM706.82 430.156C705.581 430.156 704.57 429.776 703.789 429.016C703.013 428.255 702.625 427.242 702.625 425.977V425.758C702.625 424.909 702.789 424.151 703.117 423.484C703.445 422.812 703.909 422.297 704.508 421.938C705.112 421.573 705.799 421.391 706.57 421.391C707.727 421.391 708.635 421.755 709.297 422.484C709.964 423.214 710.297 424.247 710.297 425.586V426.508H704.914C704.987 427.06 705.206 427.503 705.57 427.836C705.94 428.169 706.406 428.336 706.969 428.336C707.839 428.336 708.518 428.021 709.008 427.391L710.117 428.633C709.779 429.112 709.32 429.487 708.742 429.758C708.164 430.023 707.523 430.156 706.82 430.156ZM706.562 423.219C706.115 423.219 705.75 423.37 705.469 423.672C705.193 423.974 705.016 424.406 704.938 424.969H708.078V424.789C708.068 424.289 707.932 423.904 707.672 423.633C707.411 423.357 707.042 423.219 706.562 423.219ZM711.258 425.711C711.258 424.414 711.565 423.37 712.18 422.578C712.799 421.786 713.633 421.391 714.68 421.391C715.607 421.391 716.328 421.708 716.844 422.344L716.938 421.547H718.984V429.719C718.984 430.458 718.815 431.102 718.477 431.648C718.143 432.195 717.672 432.612 717.062 432.898C716.453 433.185 715.74 433.328 714.922 433.328C714.302 433.328 713.698 433.203 713.109 432.953C712.521 432.708 712.076 432.391 711.773 432L712.773 430.625C713.336 431.255 714.018 431.57 714.82 431.57C715.419 431.57 715.885 431.409 716.219 431.086C716.552 430.768 716.719 430.315 716.719 429.727V429.273C716.198 429.862 715.513 430.156 714.664 430.156C713.648 430.156 712.826 429.76 712.195 428.969C711.57 428.172 711.258 427.117 711.258 425.805V425.711ZM713.516 425.875C713.516 426.641 713.669 427.242 713.977 427.68C714.284 428.112 714.706 428.328 715.242 428.328C715.93 428.328 716.422 428.07 716.719 427.555V424C716.417 423.484 715.93 423.227 715.258 423.227C714.716 423.227 714.289 423.448 713.977 423.891C713.669 424.333 713.516 424.995 713.516 425.875ZM724.617 430.156C723.378 430.156 722.367 429.776 721.586 429.016C720.81 428.255 720.422 427.242 720.422 425.977V425.758C720.422 424.909 720.586 424.151 720.914 423.484C721.242 422.812 721.706 422.297 722.305 421.938C722.909 421.573 723.596 421.391 724.367 421.391C725.523 421.391 726.432 421.755 727.094 422.484C727.76 423.214 728.094 424.247 728.094 425.586V426.508H722.711C722.784 427.06 723.003 427.503 723.367 427.836C723.737 428.169 724.203 428.336 724.766 428.336C725.635 428.336 726.315 428.021 726.805 427.391L727.914 428.633C727.576 429.112 727.117 429.487 726.539 429.758C725.961 430.023 725.32 430.156 724.617 430.156ZM724.359 423.219C723.911 423.219 723.547 423.37 723.266 423.672C722.99 423.974 722.812 424.406 722.734 424.969H725.875V424.789C725.865 424.289 725.729 423.904 725.469 423.633C725.208 423.357 724.839 423.219 724.359 423.219ZM731.461 421.547L731.531 422.523C732.135 421.768 732.945 421.391 733.961 421.391C734.857 421.391 735.523 421.654 735.961 422.18C736.398 422.706 736.622 423.492 736.633 424.539V430H734.375V424.594C734.375 424.115 734.271 423.768 734.062 423.555C733.854 423.336 733.508 423.227 733.023 423.227C732.388 423.227 731.911 423.497 731.594 424.039V430H729.336V421.547H731.461Z" fill="#3C3C3C"/>
<rect x="607.5" y="452.5" width="310" height="35" rx="5.5" fill="white" stroke="#D4D4D4"/>
<path d="M625.781 470.399H621.468V473.927H626.479V475H620.155V465.047H626.41V466.127H621.468V469.326H625.781V470.399ZM630.396 470.304L632.036 467.604H633.513L631.093 471.261L633.588 475H632.125L630.416 472.231L628.707 475H627.237L629.732 471.261L627.312 467.604H628.775L630.396 470.304ZM639.426 475C639.353 474.854 639.294 474.594 639.248 474.221C638.66 474.831 637.958 475.137 637.143 475.137C636.413 475.137 635.814 474.932 635.345 474.521C634.88 474.107 634.647 473.583 634.647 472.949C634.647 472.179 634.939 471.582 635.522 471.158C636.11 470.73 636.935 470.516 637.997 470.516H639.228V469.935C639.228 469.493 639.095 469.142 638.831 468.882C638.567 468.618 638.177 468.485 637.662 468.485C637.211 468.485 636.833 468.599 636.527 468.827C636.222 469.055 636.069 469.331 636.069 469.654H634.798C634.798 469.285 634.928 468.93 635.188 468.588C635.452 468.242 635.807 467.968 636.254 467.768C636.705 467.567 637.2 467.467 637.737 467.467C638.59 467.467 639.257 467.681 639.74 468.109C640.223 468.533 640.474 469.119 640.492 469.866V473.271C640.492 473.95 640.579 474.49 640.752 474.891V475H639.426ZM637.327 474.036C637.724 474.036 638.1 473.934 638.455 473.729C638.811 473.523 639.068 473.257 639.228 472.929V471.411H638.236C636.687 471.411 635.912 471.865 635.912 472.771C635.912 473.168 636.044 473.478 636.309 473.701C636.573 473.924 636.912 474.036 637.327 474.036ZM643.664 467.604L643.698 468.424C644.241 467.786 644.972 467.467 645.893 467.467C646.927 467.467 647.631 467.863 648.005 468.656C648.251 468.301 648.57 468.014 648.962 467.795C649.358 467.576 649.826 467.467 650.363 467.467C651.986 467.467 652.811 468.326 652.838 470.044V475H651.573V470.119C651.573 469.59 651.452 469.196 651.211 468.937C650.969 468.672 650.564 468.54 649.994 468.54C649.525 468.54 649.135 468.681 648.825 468.964C648.515 469.242 648.335 469.618 648.285 470.092V475H647.014V470.153C647.014 469.078 646.487 468.54 645.435 468.54C644.605 468.54 644.038 468.893 643.732 469.6V475H642.468V467.604H643.664ZM661 471.384C661 472.509 660.743 473.416 660.228 474.104C659.713 474.793 659.015 475.137 658.136 475.137C657.238 475.137 656.532 474.852 656.017 474.282V477.844H654.752V467.604H655.907L655.969 468.424C656.484 467.786 657.199 467.467 658.115 467.467C659.004 467.467 659.706 467.802 660.221 468.472C660.74 469.142 661 470.074 661 471.268V471.384ZM659.735 471.24C659.735 470.406 659.558 469.748 659.202 469.265C658.847 468.782 658.359 468.54 657.739 468.54C656.974 468.54 656.399 468.88 656.017 469.559V473.093C656.395 473.767 656.974 474.104 657.753 474.104C658.359 474.104 658.84 473.865 659.195 473.387C659.555 472.904 659.735 472.188 659.735 471.24ZM663.987 475H662.723V464.5H663.987V475ZM669.087 475.137C668.084 475.137 667.269 474.809 666.64 474.152C666.011 473.492 665.696 472.61 665.696 471.507V471.274C665.696 470.541 665.835 469.887 666.113 469.312C666.396 468.734 666.788 468.283 667.289 467.959C667.795 467.631 668.342 467.467 668.93 467.467C669.891 467.467 670.639 467.784 671.172 468.417C671.705 469.05 671.972 469.957 671.972 471.138V471.664H666.961C666.979 472.393 667.191 472.983 667.597 473.435C668.007 473.881 668.526 474.104 669.155 474.104C669.602 474.104 669.98 474.013 670.29 473.831C670.6 473.649 670.871 473.407 671.104 473.106L671.876 473.708C671.256 474.66 670.326 475.137 669.087 475.137ZM668.93 468.506C668.419 468.506 667.991 468.693 667.645 469.066C667.298 469.436 667.084 469.955 667.002 470.625H670.707V470.529C670.671 469.887 670.497 469.39 670.188 469.039C669.878 468.684 669.458 468.506 668.93 468.506ZM684.365 471.568C684.311 472.671 684.037 473.542 683.545 474.18C683.053 474.818 682.394 475.137 681.569 475.137C680.717 475.137 680.17 474.754 679.929 473.988C679.683 474.376 679.4 474.665 679.081 474.856C678.767 475.043 678.441 475.137 678.104 475.137C677.456 475.137 676.966 474.872 676.634 474.344C676.301 473.815 676.178 473.084 676.265 472.149C676.333 471.397 676.504 470.728 676.777 470.14C677.055 469.547 677.411 469.082 677.844 468.745C678.281 468.408 678.739 468.239 679.218 468.239C679.587 468.239 679.917 468.289 680.209 468.39C680.501 468.485 680.829 468.677 681.193 468.964L680.838 472.751C680.751 473.804 681.043 474.33 681.713 474.33C682.228 474.33 682.645 474.075 682.964 473.564C683.283 473.054 683.456 472.389 683.483 471.568C683.57 469.796 683.24 468.444 682.492 467.515C681.749 466.585 680.617 466.12 679.095 466.12C678.179 466.12 677.365 466.348 676.654 466.804C675.943 467.255 675.383 467.909 674.973 468.766C674.562 469.622 674.332 470.611 674.282 471.732C674.228 472.863 674.364 473.845 674.692 474.679C675.021 475.508 675.52 476.142 676.189 476.579C676.864 477.021 677.677 477.242 678.63 477.242C679.04 477.242 679.45 477.192 679.86 477.092C680.275 476.992 680.619 476.862 680.893 476.702L681.146 477.488C680.863 477.666 680.487 477.812 680.018 477.926C679.553 478.04 679.081 478.097 678.603 478.097C677.463 478.097 676.483 477.839 675.663 477.324C674.843 476.814 674.228 476.076 673.817 475.109C673.412 474.148 673.236 473.022 673.291 471.732C673.346 470.479 673.626 469.354 674.132 468.355C674.638 467.353 675.324 466.58 676.189 466.038C677.055 465.491 678.033 465.218 679.122 465.218C680.257 465.218 681.23 465.473 682.041 465.983C682.852 466.494 683.456 467.23 683.853 468.191C684.249 469.153 684.42 470.279 684.365 471.568ZM677.352 472.149C677.288 472.797 677.347 473.293 677.529 473.64C677.716 473.986 678.01 474.159 678.411 474.159C678.685 474.159 678.947 474.043 679.197 473.811C679.452 473.578 679.662 473.245 679.826 472.812L679.833 472.751L680.147 469.312C679.892 469.18 679.619 469.114 679.327 469.114C678.794 469.114 678.352 469.385 678.001 469.928C677.655 470.47 677.438 471.211 677.352 472.149ZM687.284 468.499C687.845 467.811 688.574 467.467 689.472 467.467C691.035 467.467 691.823 468.349 691.837 470.112V475H690.572V470.105C690.568 469.572 690.445 469.178 690.203 468.923C689.966 468.668 689.595 468.54 689.089 468.54C688.679 468.54 688.319 468.649 688.009 468.868C687.699 469.087 687.457 469.374 687.284 469.729V475H686.02V464.5H687.284V468.499ZM693.396 471.233C693.396 470.509 693.537 469.857 693.819 469.278C694.106 468.7 694.503 468.253 695.009 467.938C695.519 467.624 696.1 467.467 696.752 467.467C697.759 467.467 698.573 467.815 699.192 468.513C699.817 469.21 700.129 470.137 700.129 471.295V471.384C700.129 472.104 699.99 472.751 699.712 473.325C699.438 473.895 699.044 474.339 698.529 474.658C698.019 474.977 697.431 475.137 696.766 475.137C695.763 475.137 694.95 474.788 694.325 474.091C693.705 473.394 693.396 472.471 693.396 471.322V471.233ZM694.667 471.384C694.667 472.204 694.856 472.863 695.234 473.359C695.617 473.856 696.128 474.104 696.766 474.104C697.408 474.104 697.919 473.854 698.297 473.353C698.675 472.847 698.864 472.14 698.864 471.233C698.864 470.422 698.671 469.766 698.283 469.265C697.9 468.759 697.39 468.506 696.752 468.506C696.128 468.506 695.624 468.754 695.241 469.251C694.858 469.748 694.667 470.459 694.667 471.384ZM703.431 465.812V467.604H704.812V468.581H703.431V473.168C703.431 473.464 703.492 473.688 703.615 473.838C703.738 473.984 703.948 474.057 704.244 474.057C704.39 474.057 704.59 474.029 704.846 473.975V475C704.513 475.091 704.189 475.137 703.875 475.137C703.31 475.137 702.884 474.966 702.597 474.624C702.31 474.282 702.166 473.797 702.166 473.168V468.581H700.819V467.604H702.166V465.812H703.431ZM707.484 467.604L707.519 468.424C708.061 467.786 708.792 467.467 709.713 467.467C710.747 467.467 711.451 467.863 711.825 468.656C712.071 468.301 712.39 468.014 712.782 467.795C713.179 467.576 713.646 467.467 714.184 467.467C715.806 467.467 716.631 468.326 716.658 470.044V475H715.394V470.119C715.394 469.59 715.273 469.196 715.031 468.937C714.79 468.672 714.384 468.54 713.814 468.54C713.345 468.54 712.955 468.681 712.646 468.964C712.336 469.242 712.156 469.618 712.105 470.092V475H710.834V470.153C710.834 469.078 710.308 468.54 709.255 468.54C708.425 468.54 707.858 468.893 707.553 469.6V475H706.288V467.604H707.484ZM723.139 475C723.066 474.854 723.007 474.594 722.961 474.221C722.373 474.831 721.671 475.137 720.855 475.137C720.126 475.137 719.527 474.932 719.058 474.521C718.593 474.107 718.36 473.583 718.36 472.949C718.36 472.179 718.652 471.582 719.235 471.158C719.823 470.73 720.648 470.516 721.71 470.516H722.94V469.935C722.94 469.493 722.808 469.142 722.544 468.882C722.28 468.618 721.89 468.485 721.375 468.485C720.924 468.485 720.546 468.599 720.24 468.827C719.935 469.055 719.782 469.331 719.782 469.654H718.511C718.511 469.285 718.641 468.93 718.9 468.588C719.165 468.242 719.52 467.968 719.967 467.768C720.418 467.567 720.912 467.467 721.45 467.467C722.302 467.467 722.97 467.681 723.453 468.109C723.936 468.533 724.187 469.119 724.205 469.866V473.271C724.205 473.95 724.292 474.49 724.465 474.891V475H723.139ZM721.04 474.036C721.437 474.036 721.812 473.934 722.168 473.729C722.523 473.523 722.781 473.257 722.94 472.929V471.411H721.949C720.4 471.411 719.625 471.865 719.625 472.771C719.625 473.168 719.757 473.478 720.021 473.701C720.286 473.924 720.625 474.036 721.04 474.036ZM727.562 475H726.297V467.604H727.562V475ZM726.194 465.642C726.194 465.437 726.256 465.263 726.379 465.122C726.507 464.981 726.693 464.91 726.939 464.91C727.186 464.91 727.372 464.981 727.5 465.122C727.628 465.263 727.691 465.437 727.691 465.642C727.691 465.847 727.628 466.018 727.5 466.154C727.372 466.291 727.186 466.359 726.939 466.359C726.693 466.359 726.507 466.291 726.379 466.154C726.256 466.018 726.194 465.847 726.194 465.642ZM730.966 475H729.701V464.5H730.966V475ZM733.023 474.337C733.023 474.118 733.087 473.936 733.215 473.79C733.347 473.644 733.543 473.571 733.803 473.571C734.062 473.571 734.258 473.644 734.391 473.79C734.527 473.936 734.596 474.118 734.596 474.337C734.596 474.547 734.527 474.722 734.391 474.863C734.258 475.005 734.062 475.075 733.803 475.075C733.543 475.075 733.347 475.005 733.215 474.863C733.087 474.722 733.023 474.547 733.023 474.337ZM739.654 474.104C740.105 474.104 740.5 473.968 740.837 473.694C741.174 473.421 741.361 473.079 741.397 472.669H742.594C742.571 473.093 742.425 473.496 742.156 473.879C741.887 474.262 741.527 474.567 741.076 474.795C740.63 475.023 740.156 475.137 739.654 475.137C738.647 475.137 737.845 474.802 737.248 474.132C736.656 473.457 736.359 472.537 736.359 471.37V471.158C736.359 470.438 736.492 469.798 736.756 469.237C737.02 468.677 737.398 468.242 737.891 467.932C738.387 467.622 738.973 467.467 739.647 467.467C740.477 467.467 741.165 467.715 741.712 468.212C742.263 468.709 742.557 469.354 742.594 470.146H741.397C741.361 469.668 741.179 469.276 740.851 468.971C740.527 468.661 740.126 468.506 739.647 468.506C739.005 468.506 738.506 468.738 738.15 469.203C737.799 469.663 737.624 470.331 737.624 471.206V471.445C737.624 472.298 737.799 472.954 738.15 473.414C738.501 473.874 739.003 474.104 739.654 474.104ZM743.681 471.233C743.681 470.509 743.822 469.857 744.104 469.278C744.392 468.7 744.788 468.253 745.294 467.938C745.804 467.624 746.385 467.467 747.037 467.467C748.044 467.467 748.858 467.815 749.478 468.513C750.102 469.21 750.414 470.137 750.414 471.295V471.384C750.414 472.104 750.275 472.751 749.997 473.325C749.724 473.895 749.329 474.339 748.814 474.658C748.304 474.977 747.716 475.137 747.051 475.137C746.048 475.137 745.235 474.788 744.61 474.091C743.991 473.394 743.681 472.471 743.681 471.322V471.233ZM744.952 471.384C744.952 472.204 745.141 472.863 745.52 473.359C745.902 473.856 746.413 474.104 747.051 474.104C747.693 474.104 748.204 473.854 748.582 473.353C748.96 472.847 749.149 472.14 749.149 471.233C749.149 470.422 748.956 469.766 748.568 469.265C748.186 468.759 747.675 468.506 747.037 468.506C746.413 468.506 745.909 468.754 745.526 469.251C745.144 469.748 744.952 470.459 744.952 471.384ZM753.189 467.604L753.224 468.424C753.766 467.786 754.497 467.467 755.418 467.467C756.452 467.467 757.157 467.863 757.53 468.656C757.776 468.301 758.095 468.014 758.487 467.795C758.884 467.576 759.351 467.467 759.889 467.467C761.511 467.467 762.336 468.326 762.363 470.044V475H761.099V470.119C761.099 469.59 760.978 469.196 760.736 468.937C760.495 468.672 760.089 468.54 759.52 468.54C759.05 468.54 758.66 468.681 758.351 468.964C758.041 469.242 757.861 469.618 757.811 470.092V475H756.539V470.153C756.539 469.078 756.013 468.54 754.96 468.54C754.131 468.54 753.563 468.893 753.258 469.6V475H751.993V467.604H753.189Z" fill="#959595"/>
<path d="M616.945 535.211C616.857 536.435 616.404 537.398 615.586 538.102C614.773 538.805 613.701 539.156 612.367 539.156C610.909 539.156 609.76 538.667 608.922 537.688C608.089 536.703 607.672 535.354 607.672 533.641V532.945C607.672 531.852 607.865 530.888 608.25 530.055C608.635 529.221 609.185 528.583 609.898 528.141C610.617 527.693 611.451 527.469 612.398 527.469C613.711 527.469 614.768 527.82 615.57 528.523C616.372 529.227 616.836 530.214 616.961 531.484H614.617C614.56 530.75 614.354 530.219 614 529.891C613.651 529.557 613.117 529.391 612.398 529.391C611.617 529.391 611.031 529.672 610.641 530.234C610.255 530.792 610.057 531.659 610.047 532.836V533.695C610.047 534.924 610.232 535.823 610.602 536.391C610.977 536.958 611.565 537.242 612.367 537.242C613.091 537.242 613.63 537.078 613.984 536.75C614.344 536.417 614.549 535.904 614.602 535.211H616.945ZM617.984 534.695C617.984 533.857 618.146 533.109 618.469 532.453C618.792 531.797 619.255 531.289 619.859 530.93C620.469 530.57 621.174 530.391 621.977 530.391C623.117 530.391 624.047 530.74 624.766 531.438C625.49 532.135 625.893 533.083 625.977 534.281L625.992 534.859C625.992 536.156 625.63 537.198 624.906 537.984C624.182 538.766 623.211 539.156 621.992 539.156C620.773 539.156 619.799 538.766 619.07 537.984C618.346 537.203 617.984 536.141 617.984 534.797V534.695ZM620.242 534.859C620.242 535.661 620.393 536.276 620.695 536.703C620.997 537.125 621.43 537.336 621.992 537.336C622.539 537.336 622.966 537.128 623.273 536.711C623.581 536.289 623.734 535.617 623.734 534.695C623.734 533.909 623.581 533.299 623.273 532.867C622.966 532.435 622.534 532.219 621.977 532.219C621.424 532.219 620.997 532.435 620.695 532.867C620.393 533.294 620.242 533.958 620.242 534.859ZM632.281 539C632.177 538.797 632.102 538.544 632.055 538.242C631.508 538.852 630.797 539.156 629.922 539.156C629.094 539.156 628.406 538.917 627.859 538.438C627.318 537.958 627.047 537.354 627.047 536.625C627.047 535.729 627.378 535.042 628.039 534.562C628.706 534.083 629.667 533.841 630.922 533.836H631.961V533.352C631.961 532.961 631.859 532.648 631.656 532.414C631.458 532.18 631.143 532.062 630.711 532.062C630.331 532.062 630.031 532.154 629.812 532.336C629.599 532.518 629.492 532.768 629.492 533.086H627.234C627.234 532.596 627.385 532.143 627.688 531.727C627.99 531.31 628.417 530.984 628.969 530.75C629.521 530.51 630.141 530.391 630.828 530.391C631.87 530.391 632.695 530.654 633.305 531.18C633.919 531.701 634.227 532.435 634.227 533.383V537.047C634.232 537.849 634.344 538.456 634.562 538.867V539H632.281ZM630.414 537.43C630.747 537.43 631.055 537.357 631.336 537.211C631.617 537.06 631.826 536.859 631.961 536.609V535.156H631.117C629.987 535.156 629.385 535.547 629.312 536.328L629.305 536.461C629.305 536.742 629.404 536.974 629.602 537.156C629.799 537.339 630.07 537.43 630.414 537.43ZM639.477 537.336C639.893 537.336 640.232 537.221 640.492 536.992C640.753 536.763 640.888 536.458 640.898 536.078H643.016C643.01 536.651 642.854 537.177 642.547 537.656C642.24 538.13 641.818 538.5 641.281 538.766C640.75 539.026 640.161 539.156 639.516 539.156C638.307 539.156 637.354 538.773 636.656 538.008C635.958 537.237 635.609 536.174 635.609 534.82V534.672C635.609 533.37 635.956 532.331 636.648 531.555C637.341 530.779 638.292 530.391 639.5 530.391C640.557 530.391 641.404 530.693 642.039 531.297C642.68 531.896 643.005 532.695 643.016 533.695H640.898C640.888 533.258 640.753 532.904 640.492 532.633C640.232 532.357 639.888 532.219 639.461 532.219C638.935 532.219 638.536 532.411 638.266 532.797C638 533.177 637.867 533.797 637.867 534.656V534.891C637.867 535.76 638 536.385 638.266 536.766C638.531 537.146 638.935 537.336 639.477 537.336ZM646.508 531.469C647.107 530.75 647.859 530.391 648.766 530.391C650.599 530.391 651.529 531.456 651.555 533.586V539H649.297V533.648C649.297 533.164 649.193 532.807 648.984 532.578C648.776 532.344 648.43 532.227 647.945 532.227C647.284 532.227 646.805 532.482 646.508 532.992V539H644.25V527H646.508V531.469ZM659.945 528.469V530.547H661.391V532.203H659.945V536.422C659.945 536.734 660.005 536.958 660.125 537.094C660.245 537.229 660.474 537.297 660.812 537.297C661.062 537.297 661.284 537.279 661.477 537.242V538.953C661.034 539.089 660.578 539.156 660.109 539.156C658.526 539.156 657.719 538.357 657.688 536.758V532.203H656.453V530.547H657.688V528.469H659.945ZM662.062 534.695C662.062 533.857 662.224 533.109 662.547 532.453C662.87 531.797 663.333 531.289 663.938 530.93C664.547 530.57 665.253 530.391 666.055 530.391C667.195 530.391 668.125 530.74 668.844 531.438C669.568 532.135 669.971 533.083 670.055 534.281L670.07 534.859C670.07 536.156 669.708 537.198 668.984 537.984C668.26 538.766 667.289 539.156 666.07 539.156C664.852 539.156 663.878 538.766 663.148 537.984C662.424 537.203 662.062 536.141 662.062 534.797V534.695ZM664.32 534.859C664.32 535.661 664.471 536.276 664.773 536.703C665.076 537.125 665.508 537.336 666.07 537.336C666.617 537.336 667.044 537.128 667.352 536.711C667.659 536.289 667.812 535.617 667.812 534.695C667.812 533.909 667.659 533.299 667.352 532.867C667.044 532.435 666.612 532.219 666.055 532.219C665.503 532.219 665.076 532.435 664.773 532.867C664.471 533.294 664.32 533.958 664.32 534.859ZM675.352 539.156C674.112 539.156 673.102 538.776 672.32 538.016C671.544 537.255 671.156 536.242 671.156 534.977V534.758C671.156 533.909 671.32 533.151 671.648 532.484C671.977 531.812 672.44 531.297 673.039 530.938C673.643 530.573 674.331 530.391 675.102 530.391C676.258 530.391 677.167 530.755 677.828 531.484C678.495 532.214 678.828 533.247 678.828 534.586V535.508H673.445C673.518 536.06 673.737 536.503 674.102 536.836C674.471 537.169 674.938 537.336 675.5 537.336C676.37 537.336 677.049 537.021 677.539 536.391L678.648 537.633C678.31 538.112 677.852 538.487 677.273 538.758C676.695 539.023 676.055 539.156 675.352 539.156ZM675.094 532.219C674.646 532.219 674.281 532.37 674 532.672C673.724 532.974 673.547 533.406 673.469 533.969H676.609V533.789C676.599 533.289 676.464 532.904 676.203 532.633C675.943 532.357 675.573 532.219 675.094 532.219ZM683.172 536.242L684.742 530.547H687.102L684.25 539H682.094L679.242 530.547H681.602L683.172 536.242ZM687.625 534.695C687.625 533.857 687.786 533.109 688.109 532.453C688.432 531.797 688.896 531.289 689.5 530.93C690.109 530.57 690.815 530.391 691.617 530.391C692.758 530.391 693.688 530.74 694.406 531.438C695.13 532.135 695.534 533.083 695.617 534.281L695.633 534.859C695.633 536.156 695.271 537.198 694.547 537.984C693.823 538.766 692.852 539.156 691.633 539.156C690.414 539.156 689.44 538.766 688.711 537.984C687.987 537.203 687.625 536.141 687.625 534.797V534.695ZM689.883 534.859C689.883 535.661 690.034 536.276 690.336 536.703C690.638 537.125 691.07 537.336 691.633 537.336C692.18 537.336 692.607 537.128 692.914 536.711C693.221 536.289 693.375 535.617 693.375 534.695C693.375 533.909 693.221 533.299 692.914 532.867C692.607 532.435 692.174 532.219 691.617 532.219C691.065 532.219 690.638 532.435 690.336 532.867C690.034 533.294 689.883 533.958 689.883 534.859ZM700.914 539.156C699.674 539.156 698.664 538.776 697.883 538.016C697.107 537.255 696.719 536.242 696.719 534.977V534.758C696.719 533.909 696.883 533.151 697.211 532.484C697.539 531.812 698.003 531.297 698.602 530.938C699.206 530.573 699.893 530.391 700.664 530.391C701.82 530.391 702.729 530.755 703.391 531.484C704.057 532.214 704.391 533.247 704.391 534.586V535.508H699.008C699.081 536.06 699.299 536.503 699.664 536.836C700.034 537.169 700.5 537.336 701.062 537.336C701.932 537.336 702.612 537.021 703.102 536.391L704.211 537.633C703.872 538.112 703.414 538.487 702.836 538.758C702.258 539.023 701.617 539.156 700.914 539.156ZM700.656 532.219C700.208 532.219 699.844 532.37 699.562 532.672C699.286 532.974 699.109 533.406 699.031 533.969H702.172V533.789C702.161 533.289 702.026 532.904 701.766 532.633C701.505 532.357 701.135 532.219 700.656 532.219ZM705.352 534.711C705.352 533.414 705.659 532.37 706.273 531.578C706.893 530.786 707.727 530.391 708.773 530.391C709.701 530.391 710.422 530.708 710.938 531.344L711.031 530.547H713.078V538.719C713.078 539.458 712.909 540.102 712.57 540.648C712.237 541.195 711.766 541.612 711.156 541.898C710.547 542.185 709.833 542.328 709.016 542.328C708.396 542.328 707.792 542.203 707.203 541.953C706.615 541.708 706.169 541.391 705.867 541L706.867 539.625C707.43 540.255 708.112 540.57 708.914 540.57C709.513 540.57 709.979 540.409 710.312 540.086C710.646 539.768 710.812 539.315 710.812 538.727V538.273C710.292 538.862 709.607 539.156 708.758 539.156C707.742 539.156 706.919 538.76 706.289 537.969C705.664 537.172 705.352 536.117 705.352 534.805V534.711ZM707.609 534.875C707.609 535.641 707.763 536.242 708.07 536.68C708.378 537.112 708.799 537.328 709.336 537.328C710.023 537.328 710.516 537.07 710.812 536.555V533C710.51 532.484 710.023 532.227 709.352 532.227C708.81 532.227 708.383 532.448 708.07 532.891C707.763 533.333 707.609 533.995 707.609 534.875ZM718.711 539.156C717.471 539.156 716.461 538.776 715.68 538.016C714.904 537.255 714.516 536.242 714.516 534.977V534.758C714.516 533.909 714.68 533.151 715.008 532.484C715.336 531.812 715.799 531.297 716.398 530.938C717.003 530.573 717.69 530.391 718.461 530.391C719.617 530.391 720.526 530.755 721.188 531.484C721.854 532.214 722.188 533.247 722.188 534.586V535.508H716.805C716.878 536.06 717.096 536.503 717.461 536.836C717.831 537.169 718.297 537.336 718.859 537.336C719.729 537.336 720.409 537.021 720.898 536.391L722.008 537.633C721.669 538.112 721.211 538.487 720.633 538.758C720.055 539.023 719.414 539.156 718.711 539.156ZM718.453 532.219C718.005 532.219 717.641 532.37 717.359 532.672C717.083 532.974 716.906 533.406 716.828 533.969H719.969V533.789C719.958 533.289 719.823 532.904 719.562 532.633C719.302 532.357 718.932 532.219 718.453 532.219ZM725.555 530.547L725.625 531.523C726.229 530.768 727.039 530.391 728.055 530.391C728.951 530.391 729.617 530.654 730.055 531.18C730.492 531.706 730.716 532.492 730.727 533.539V539H728.469V533.594C728.469 533.115 728.365 532.768 728.156 532.555C727.948 532.336 727.602 532.227 727.117 532.227C726.482 532.227 726.005 532.497 725.688 533.039V539H723.43V530.547H725.555Z" fill="#3C3C3C"/>
<rect x="607.5" y="561.5" width="310" height="35" rx="5.5" fill="white" stroke="#D4D4D4"/>
<path d="M625.781 579.399H621.468V582.927H626.479V584H620.155V574.047H626.41V575.127H621.468V578.326H625.781V579.399ZM630.396 579.304L632.036 576.604H633.513L631.093 580.261L633.588 584H632.125L630.416 581.231L628.707 584H627.237L629.732 580.261L627.312 576.604H628.775L630.396 579.304ZM639.426 584C639.353 583.854 639.294 583.594 639.248 583.221C638.66 583.831 637.958 584.137 637.143 584.137C636.413 584.137 635.814 583.932 635.345 583.521C634.88 583.107 634.647 582.583 634.647 581.949C634.647 581.179 634.939 580.582 635.522 580.158C636.11 579.73 636.935 579.516 637.997 579.516H639.228V578.935C639.228 578.493 639.095 578.142 638.831 577.882C638.567 577.618 638.177 577.485 637.662 577.485C637.211 577.485 636.833 577.599 636.527 577.827C636.222 578.055 636.069 578.331 636.069 578.654H634.798C634.798 578.285 634.928 577.93 635.188 577.588C635.452 577.242 635.807 576.968 636.254 576.768C636.705 576.567 637.2 576.467 637.737 576.467C638.59 576.467 639.257 576.681 639.74 577.109C640.223 577.533 640.474 578.119 640.492 578.866V582.271C640.492 582.95 640.579 583.49 640.752 583.891V584H639.426ZM637.327 583.036C637.724 583.036 638.1 582.934 638.455 582.729C638.811 582.523 639.068 582.257 639.228 581.929V580.411H638.236C636.687 580.411 635.912 580.865 635.912 581.771C635.912 582.168 636.044 582.478 636.309 582.701C636.573 582.924 636.912 583.036 637.327 583.036ZM643.664 576.604L643.698 577.424C644.241 576.786 644.972 576.467 645.893 576.467C646.927 576.467 647.631 576.863 648.005 577.656C648.251 577.301 648.57 577.014 648.962 576.795C649.358 576.576 649.826 576.467 650.363 576.467C651.986 576.467 652.811 577.326 652.838 579.044V584H651.573V579.119C651.573 578.59 651.452 578.196 651.211 577.937C650.969 577.672 650.564 577.54 649.994 577.54C649.525 577.54 649.135 577.681 648.825 577.964C648.515 578.242 648.335 578.618 648.285 579.092V584H647.014V579.153C647.014 578.078 646.487 577.54 645.435 577.54C644.605 577.54 644.038 577.893 643.732 578.6V584H642.468V576.604H643.664ZM661 580.384C661 581.509 660.743 582.416 660.228 583.104C659.713 583.793 659.015 584.137 658.136 584.137C657.238 584.137 656.532 583.852 656.017 583.282V586.844H654.752V576.604H655.907L655.969 577.424C656.484 576.786 657.199 576.467 658.115 576.467C659.004 576.467 659.706 576.802 660.221 577.472C660.74 578.142 661 579.074 661 580.268V580.384ZM659.735 580.24C659.735 579.406 659.558 578.748 659.202 578.265C658.847 577.782 658.359 577.54 657.739 577.54C656.974 577.54 656.399 577.88 656.017 578.559V582.093C656.395 582.767 656.974 583.104 657.753 583.104C658.359 583.104 658.84 582.865 659.195 582.387C659.555 581.904 659.735 581.188 659.735 580.24ZM663.987 584H662.723V573.5H663.987V584ZM669.087 584.137C668.084 584.137 667.269 583.809 666.64 583.152C666.011 582.492 665.696 581.61 665.696 580.507V580.274C665.696 579.541 665.835 578.887 666.113 578.312C666.396 577.734 666.788 577.283 667.289 576.959C667.795 576.631 668.342 576.467 668.93 576.467C669.891 576.467 670.639 576.784 671.172 577.417C671.705 578.05 671.972 578.957 671.972 580.138V580.664H666.961C666.979 581.393 667.191 581.983 667.597 582.435C668.007 582.881 668.526 583.104 669.155 583.104C669.602 583.104 669.98 583.013 670.29 582.831C670.6 582.649 670.871 582.407 671.104 582.106L671.876 582.708C671.256 583.66 670.326 584.137 669.087 584.137ZM668.93 577.506C668.419 577.506 667.991 577.693 667.645 578.066C667.298 578.436 667.084 578.955 667.002 579.625H670.707V579.529C670.671 578.887 670.497 578.39 670.188 578.039C669.878 577.684 669.458 577.506 668.93 577.506ZM684.365 580.568C684.311 581.671 684.037 582.542 683.545 583.18C683.053 583.818 682.394 584.137 681.569 584.137C680.717 584.137 680.17 583.754 679.929 582.988C679.683 583.376 679.4 583.665 679.081 583.856C678.767 584.043 678.441 584.137 678.104 584.137C677.456 584.137 676.966 583.872 676.634 583.344C676.301 582.815 676.178 582.084 676.265 581.149C676.333 580.397 676.504 579.728 676.777 579.14C677.055 578.547 677.411 578.082 677.844 577.745C678.281 577.408 678.739 577.239 679.218 577.239C679.587 577.239 679.917 577.289 680.209 577.39C680.501 577.485 680.829 577.677 681.193 577.964L680.838 581.751C680.751 582.804 681.043 583.33 681.713 583.33C682.228 583.33 682.645 583.075 682.964 582.564C683.283 582.054 683.456 581.389 683.483 580.568C683.57 578.796 683.24 577.444 682.492 576.515C681.749 575.585 680.617 575.12 679.095 575.12C678.179 575.12 677.365 575.348 676.654 575.804C675.943 576.255 675.383 576.909 674.973 577.766C674.562 578.622 674.332 579.611 674.282 580.732C674.228 581.863 674.364 582.845 674.692 583.679C675.021 584.508 675.52 585.142 676.189 585.579C676.864 586.021 677.677 586.242 678.63 586.242C679.04 586.242 679.45 586.192 679.86 586.092C680.275 585.992 680.619 585.862 680.893 585.702L681.146 586.488C680.863 586.666 680.487 586.812 680.018 586.926C679.553 587.04 679.081 587.097 678.603 587.097C677.463 587.097 676.483 586.839 675.663 586.324C674.843 585.814 674.228 585.076 673.817 584.109C673.412 583.148 673.236 582.022 673.291 580.732C673.346 579.479 673.626 578.354 674.132 577.355C674.638 576.353 675.324 575.58 676.189 575.038C677.055 574.491 678.033 574.218 679.122 574.218C680.257 574.218 681.23 574.473 682.041 574.983C682.852 575.494 683.456 576.23 683.853 577.191C684.249 578.153 684.42 579.279 684.365 580.568ZM677.352 581.149C677.288 581.797 677.347 582.293 677.529 582.64C677.716 582.986 678.01 583.159 678.411 583.159C678.685 583.159 678.947 583.043 679.197 582.811C679.452 582.578 679.662 582.245 679.826 581.812L679.833 581.751L680.147 578.312C679.892 578.18 679.619 578.114 679.327 578.114C678.794 578.114 678.352 578.385 678.001 578.928C677.655 579.47 677.438 580.211 677.352 581.149ZM687.284 577.499C687.845 576.811 688.574 576.467 689.472 576.467C691.035 576.467 691.823 577.349 691.837 579.112V584H690.572V579.105C690.568 578.572 690.445 578.178 690.203 577.923C689.966 577.668 689.595 577.54 689.089 577.54C688.679 577.54 688.319 577.649 688.009 577.868C687.699 578.087 687.457 578.374 687.284 578.729V584H686.02V573.5H687.284V577.499ZM693.396 580.233C693.396 579.509 693.537 578.857 693.819 578.278C694.106 577.7 694.503 577.253 695.009 576.938C695.519 576.624 696.1 576.467 696.752 576.467C697.759 576.467 698.573 576.815 699.192 577.513C699.817 578.21 700.129 579.137 700.129 580.295V580.384C700.129 581.104 699.99 581.751 699.712 582.325C699.438 582.895 699.044 583.339 698.529 583.658C698.019 583.977 697.431 584.137 696.766 584.137C695.763 584.137 694.95 583.788 694.325 583.091C693.705 582.394 693.396 581.471 693.396 580.322V580.233ZM694.667 580.384C694.667 581.204 694.856 581.863 695.234 582.359C695.617 582.856 696.128 583.104 696.766 583.104C697.408 583.104 697.919 582.854 698.297 582.353C698.675 581.847 698.864 581.14 698.864 580.233C698.864 579.422 698.671 578.766 698.283 578.265C697.9 577.759 697.39 577.506 696.752 577.506C696.128 577.506 695.624 577.754 695.241 578.251C694.858 578.748 694.667 579.459 694.667 580.384ZM703.431 574.812V576.604H704.812V577.581H703.431V582.168C703.431 582.464 703.492 582.688 703.615 582.838C703.738 582.984 703.948 583.057 704.244 583.057C704.39 583.057 704.59 583.029 704.846 582.975V584C704.513 584.091 704.189 584.137 703.875 584.137C703.31 584.137 702.884 583.966 702.597 583.624C702.31 583.282 702.166 582.797 702.166 582.168V577.581H700.819V576.604H702.166V574.812H703.431ZM707.484 576.604L707.519 577.424C708.061 576.786 708.792 576.467 709.713 576.467C710.747 576.467 711.451 576.863 711.825 577.656C712.071 577.301 712.39 577.014 712.782 576.795C713.179 576.576 713.646 576.467 714.184 576.467C715.806 576.467 716.631 577.326 716.658 579.044V584H715.394V579.119C715.394 578.59 715.273 578.196 715.031 577.937C714.79 577.672 714.384 577.54 713.814 577.54C713.345 577.54 712.955 577.681 712.646 577.964C712.336 578.242 712.156 578.618 712.105 579.092V584H710.834V579.153C710.834 578.078 710.308 577.54 709.255 577.54C708.425 577.54 707.858 577.893 707.553 578.6V584H706.288V576.604H707.484ZM723.139 584C723.066 583.854 723.007 583.594 722.961 583.221C722.373 583.831 721.671 584.137 720.855 584.137C720.126 584.137 719.527 583.932 719.058 583.521C718.593 583.107 718.36 582.583 718.36 581.949C718.36 581.179 718.652 580.582 719.235 580.158C719.823 579.73 720.648 579.516 721.71 579.516H722.94V578.935C722.94 578.493 722.808 578.142 722.544 577.882C722.28 577.618 721.89 577.485 721.375 577.485C720.924 577.485 720.546 577.599 720.24 577.827C719.935 578.055 719.782 578.331 719.782 578.654H718.511C718.511 578.285 718.641 577.93 718.9 577.588C719.165 577.242 719.52 576.968 719.967 576.768C720.418 576.567 720.912 576.467 721.45 576.467C722.302 576.467 722.97 576.681 723.453 577.109C723.936 577.533 724.187 578.119 724.205 578.866V582.271C724.205 582.95 724.292 583.49 724.465 583.891V584H723.139ZM721.04 583.036C721.437 583.036 721.812 582.934 722.168 582.729C722.523 582.523 722.781 582.257 722.94 581.929V580.411H721.949C720.4 580.411 719.625 580.865 719.625 581.771C719.625 582.168 719.757 582.478 720.021 582.701C720.286 582.924 720.625 583.036 721.04 583.036ZM727.562 584H726.297V576.604H727.562V584ZM726.194 574.642C726.194 574.437 726.256 574.263 726.379 574.122C726.507 573.981 726.693 573.91 726.939 573.91C727.186 573.91 727.372 573.981 727.5 574.122C727.628 574.263 727.691 574.437 727.691 574.642C727.691 574.847 727.628 575.018 727.5 575.154C727.372 575.291 727.186 575.359 726.939 575.359C726.693 575.359 726.507 575.291 726.379 575.154C726.256 575.018 726.194 574.847 726.194 574.642ZM730.966 584H729.701V573.5H730.966V584ZM733.023 583.337C733.023 583.118 733.087 582.936 733.215 582.79C733.347 582.644 733.543 582.571 733.803 582.571C734.062 582.571 734.258 582.644 734.391 582.79C734.527 582.936 734.596 583.118 734.596 583.337C734.596 583.547 734.527 583.722 734.391 583.863C734.258 584.005 734.062 584.075 733.803 584.075C733.543 584.075 733.347 584.005 733.215 583.863C733.087 583.722 733.023 583.547 733.023 583.337ZM739.654 583.104C740.105 583.104 740.5 582.968 740.837 582.694C741.174 582.421 741.361 582.079 741.397 581.669H742.594C742.571 582.093 742.425 582.496 742.156 582.879C741.887 583.262 741.527 583.567 741.076 583.795C740.63 584.023 740.156 584.137 739.654 584.137C738.647 584.137 737.845 583.802 737.248 583.132C736.656 582.457 736.359 581.537 736.359 580.37V580.158C736.359 579.438 736.492 578.798 736.756 578.237C737.02 577.677 737.398 577.242 737.891 576.932C738.387 576.622 738.973 576.467 739.647 576.467C740.477 576.467 741.165 576.715 741.712 577.212C742.263 577.709 742.557 578.354 742.594 579.146H741.397C741.361 578.668 741.179 578.276 740.851 577.971C740.527 577.661 740.126 577.506 739.647 577.506C739.005 577.506 738.506 577.738 738.15 578.203C737.799 578.663 737.624 579.331 737.624 580.206V580.445C737.624 581.298 737.799 581.954 738.15 582.414C738.501 582.874 739.003 583.104 739.654 583.104ZM743.681 580.233C743.681 579.509 743.822 578.857 744.104 578.278C744.392 577.7 744.788 577.253 745.294 576.938C745.804 576.624 746.385 576.467 747.037 576.467C748.044 576.467 748.858 576.815 749.478 577.513C750.102 578.21 750.414 579.137 750.414 580.295V580.384C750.414 581.104 750.275 581.751 749.997 582.325C749.724 582.895 749.329 583.339 748.814 583.658C748.304 583.977 747.716 584.137 747.051 584.137C746.048 584.137 745.235 583.788 744.61 583.091C743.991 582.394 743.681 581.471 743.681 580.322V580.233ZM744.952 580.384C744.952 581.204 745.141 581.863 745.52 582.359C745.902 582.856 746.413 583.104 747.051 583.104C747.693 583.104 748.204 582.854 748.582 582.353C748.96 581.847 749.149 581.14 749.149 580.233C749.149 579.422 748.956 578.766 748.568 578.265C748.186 577.759 747.675 577.506 747.037 577.506C746.413 577.506 745.909 577.754 745.526 578.251C745.144 578.748 744.952 579.459 744.952 580.384ZM753.189 576.604L753.224 577.424C753.766 576.786 754.497 576.467 755.418 576.467C756.452 576.467 757.157 576.863 757.53 577.656C757.776 577.301 758.095 577.014 758.487 576.795C758.884 576.576 759.351 576.467 759.889 576.467C761.511 576.467 762.336 577.326 762.363 579.044V584H761.099V579.119C761.099 578.59 760.978 578.196 760.736 577.937C760.495 577.672 760.089 577.54 759.52 577.54C759.05 577.54 758.66 577.681 758.351 577.964C758.041 578.242 757.861 578.618 757.811 579.092V584H756.539V579.153C756.539 578.078 756.013 577.54 754.96 577.54C754.131 577.54 753.563 577.893 753.258 578.6V584H751.993V576.604H753.189Z" fill="#959595"/>
<path fill-rule="evenodd" clip-rule="evenodd" d="M607 846C607 843.239 609.239 841 612 841H913C915.761 841 918 843.239 918 846V875C918 877.761 915.761 880 913 880H612C609.239 880 607 877.761 607 875V846Z" fill="#525252"/>
<path d="M719.221 863.678L721.931 855.336H723.967L720.129 866H718.335L714.512 855.336H716.541L719.221 863.678ZM724.333 861.964C724.333 861.188 724.487 860.49 724.795 859.87C725.103 859.245 725.535 858.766 726.091 858.434C726.648 858.097 727.288 857.929 728.01 857.929C729.08 857.929 729.946 858.273 730.61 858.961C731.279 859.65 731.641 860.563 731.694 861.701L731.702 862.118C731.702 862.899 731.55 863.598 731.248 864.213C730.95 864.828 730.52 865.304 729.958 865.641C729.402 865.978 728.757 866.146 728.025 866.146C726.907 866.146 726.011 865.775 725.337 865.033C724.668 864.286 724.333 863.292 724.333 862.052V861.964ZM726.113 862.118C726.113 862.934 726.282 863.573 726.619 864.037C726.956 864.496 727.424 864.726 728.025 864.726C728.625 864.726 729.092 864.491 729.424 864.022C729.761 863.554 729.929 862.868 729.929 861.964C729.929 861.164 729.756 860.529 729.409 860.06C729.067 859.591 728.601 859.357 728.01 859.357C727.429 859.357 726.968 859.589 726.626 860.053C726.284 860.512 726.113 861.2 726.113 862.118ZM735.1 866H733.32V854.75H735.1V866ZM736.733 861.979C736.733 860.749 737.021 859.767 737.598 859.035C738.179 858.297 738.948 857.929 739.905 857.929C740.808 857.929 741.519 858.244 742.036 858.874L742.117 858.075H743.721V865.758C743.721 866.798 743.396 867.619 742.747 868.219C742.102 868.82 741.23 869.12 740.132 869.12C739.551 869.12 738.982 868.998 738.425 868.754C737.874 868.515 737.454 868.2 737.166 867.809L738.008 866.74C738.555 867.389 739.229 867.714 740.029 867.714C740.62 867.714 741.086 867.553 741.428 867.23C741.77 866.913 741.941 866.444 741.941 865.824V865.29C741.428 865.861 740.745 866.146 739.89 866.146C738.962 866.146 738.203 865.778 737.612 865.041C737.026 864.303 736.733 863.283 736.733 861.979ZM738.506 862.133C738.506 862.929 738.667 863.556 738.989 864.015C739.316 864.469 739.768 864.696 740.344 864.696C741.062 864.696 741.594 864.389 741.941 863.773V860.287C741.604 859.687 741.077 859.386 740.359 859.386C739.773 859.386 739.316 859.618 738.989 860.082C738.667 860.546 738.506 861.229 738.506 862.133ZM749.045 866.146C747.917 866.146 747.002 865.792 746.299 865.084C745.601 864.372 745.251 863.424 745.251 862.243V862.023C745.251 861.232 745.403 860.526 745.706 859.906C746.013 859.281 746.443 858.795 746.995 858.449C747.546 858.102 748.162 857.929 748.84 857.929C749.919 857.929 750.752 858.273 751.338 858.961C751.929 859.65 752.224 860.624 752.224 861.884V862.602H747.046C747.1 863.256 747.317 863.773 747.698 864.154C748.083 864.535 748.567 864.726 749.148 864.726C749.963 864.726 750.627 864.396 751.14 863.737L752.1 864.652C751.782 865.126 751.357 865.495 750.825 865.758C750.298 866.017 749.705 866.146 749.045 866.146ZM748.833 859.357C748.345 859.357 747.949 859.528 747.646 859.87C747.349 860.211 747.158 860.688 747.075 861.298H750.466V861.166C750.427 860.57 750.269 860.121 749.99 859.818C749.712 859.511 749.326 859.357 748.833 859.357ZM755.264 858.075L755.315 858.991C755.901 858.283 756.67 857.929 757.622 857.929C759.272 857.929 760.112 858.874 760.142 860.763V866H758.362V860.866C758.362 860.363 758.252 859.992 758.032 859.752C757.817 859.508 757.463 859.386 756.97 859.386C756.252 859.386 755.718 859.711 755.366 860.36V866H753.586V858.075H755.264ZM761.628 861.979C761.628 860.758 761.912 859.779 762.478 859.042C763.044 858.3 763.804 857.929 764.756 857.929C765.596 857.929 766.274 858.222 766.792 858.808V854.75H768.572V866H766.96L766.873 865.18C766.34 865.824 765.63 866.146 764.741 866.146C763.813 866.146 763.062 865.773 762.485 865.026C761.914 864.279 761.628 863.263 761.628 861.979ZM763.408 862.133C763.408 862.938 763.562 863.568 763.87 864.022C764.182 864.472 764.624 864.696 765.195 864.696C765.923 864.696 766.455 864.372 766.792 863.722V860.338C766.465 859.704 765.938 859.386 765.21 859.386C764.634 859.386 764.189 859.616 763.877 860.075C763.564 860.529 763.408 861.215 763.408 862.133ZM773.918 866.146C772.791 866.146 771.875 865.792 771.172 865.084C770.474 864.372 770.125 863.424 770.125 862.243V862.023C770.125 861.232 770.276 860.526 770.579 859.906C770.886 859.281 771.316 858.795 771.868 858.449C772.419 858.102 773.035 857.929 773.713 857.929C774.792 857.929 775.625 858.273 776.211 858.961C776.802 859.65 777.097 860.624 777.097 861.884V862.602H771.919C771.973 863.256 772.19 863.773 772.571 864.154C772.957 864.535 773.44 864.726 774.021 864.726C774.836 864.726 775.5 864.396 776.013 863.737L776.973 864.652C776.655 865.126 776.23 865.495 775.698 865.758C775.171 866.017 774.578 866.146 773.918 866.146ZM773.706 859.357C773.218 859.357 772.822 859.528 772.52 859.87C772.222 860.211 772.031 860.688 771.948 861.298H775.339V861.166C775.3 860.57 775.142 860.121 774.863 859.818C774.585 859.511 774.199 859.357 773.706 859.357ZM786.663 863.847C786.663 863.529 786.531 863.288 786.267 863.122C786.008 862.956 785.576 862.809 784.971 862.682C784.365 862.555 783.86 862.394 783.455 862.199C782.566 861.769 782.122 861.146 782.122 860.331C782.122 859.647 782.41 859.076 782.986 858.617C783.562 858.158 784.294 857.929 785.183 857.929C786.13 857.929 786.895 858.163 787.476 858.632C788.062 859.101 788.354 859.708 788.354 860.456H786.575C786.575 860.114 786.448 859.831 786.194 859.606C785.94 859.376 785.603 859.262 785.183 859.262C784.792 859.262 784.473 859.352 784.224 859.533C783.979 859.713 783.857 859.955 783.857 860.258C783.857 860.531 783.972 860.744 784.202 860.895C784.431 861.046 784.895 861.2 785.593 861.356C786.292 861.508 786.838 861.691 787.234 861.906C787.634 862.116 787.93 862.37 788.12 862.667C788.315 862.965 788.413 863.327 788.413 863.751C788.413 864.464 788.118 865.043 787.527 865.487C786.936 865.927 786.162 866.146 785.205 866.146C784.556 866.146 783.977 866.029 783.469 865.795C782.961 865.561 782.566 865.238 782.283 864.828C782 864.418 781.858 863.976 781.858 863.502H783.586C783.611 863.922 783.77 864.247 784.062 864.477C784.355 864.701 784.744 864.813 785.227 864.813C785.696 864.813 786.052 864.726 786.296 864.55C786.541 864.369 786.663 864.135 786.663 863.847ZM792.2 856.149V858.075H793.599V859.394H792.2V863.817C792.2 864.12 792.258 864.34 792.375 864.477C792.498 864.608 792.712 864.674 793.02 864.674C793.225 864.674 793.433 864.65 793.643 864.601V865.978C793.237 866.09 792.847 866.146 792.471 866.146C791.104 866.146 790.42 865.392 790.42 863.883V859.394H789.116V858.075H790.42V856.149H792.2ZM799.7 866C799.622 865.849 799.553 865.602 799.495 865.26C798.928 865.851 798.235 866.146 797.415 866.146C796.619 866.146 795.969 865.919 795.466 865.465C794.963 865.011 794.712 864.45 794.712 863.781C794.712 862.936 795.024 862.289 795.649 861.84C796.279 861.386 797.178 861.159 798.345 861.159H799.436V860.639C799.436 860.229 799.321 859.901 799.092 859.657C798.862 859.408 798.513 859.284 798.044 859.284C797.639 859.284 797.307 859.386 797.048 859.591C796.79 859.792 796.66 860.048 796.66 860.36H794.88C794.88 859.926 795.024 859.521 795.312 859.145C795.601 858.764 795.991 858.466 796.484 858.251C796.982 858.036 797.537 857.929 798.147 857.929C799.075 857.929 799.814 858.163 800.366 858.632C800.918 859.096 801.201 859.75 801.216 860.595V864.169C801.216 864.882 801.316 865.451 801.516 865.875V866H799.7ZM797.744 864.718C798.096 864.718 798.425 864.633 798.733 864.462C799.045 864.291 799.28 864.062 799.436 863.773V862.279H798.477C797.817 862.279 797.322 862.394 796.99 862.624C796.658 862.853 796.492 863.178 796.492 863.598C796.492 863.939 796.604 864.213 796.829 864.418C797.058 864.618 797.363 864.718 797.744 864.718ZM810.02 862.118C810.02 863.344 809.741 864.323 809.185 865.055C808.628 865.783 807.881 866.146 806.943 866.146C806.074 866.146 805.378 865.861 804.856 865.29V869.047H803.076V858.075H804.717L804.79 858.881C805.312 858.246 806.023 857.929 806.921 857.929C807.888 857.929 808.645 858.29 809.192 859.013C809.744 859.73 810.02 860.729 810.02 862.008V862.118ZM808.247 861.964C808.247 861.173 808.088 860.546 807.771 860.082C807.458 859.618 807.009 859.386 806.423 859.386C805.696 859.386 805.173 859.687 804.856 860.287V863.803C805.178 864.418 805.706 864.726 806.438 864.726C807.004 864.726 807.446 864.499 807.764 864.044C808.086 863.585 808.247 862.892 808.247 861.964Z" fill="white"/>
<path d="M707.658 802.253C707.658 801.785 707.492 801.423 707.16 801.169C706.833 800.916 706.239 800.659 705.38 800.4C704.521 800.142 703.837 799.854 703.329 799.536C702.357 798.926 701.872 798.13 701.872 797.148C701.872 796.289 702.221 795.581 702.919 795.024C703.622 794.468 704.533 794.189 705.651 794.189C706.393 794.189 707.055 794.326 707.636 794.6C708.217 794.873 708.673 795.264 709.005 795.771C709.337 796.274 709.503 796.833 709.503 797.449H707.658C707.658 796.892 707.482 796.458 707.13 796.145C706.784 795.828 706.286 795.669 705.636 795.669C705.031 795.669 704.56 795.798 704.223 796.057C703.891 796.316 703.725 796.677 703.725 797.141C703.725 797.532 703.905 797.859 704.267 798.123C704.628 798.381 705.224 798.635 706.054 798.884C706.884 799.128 707.55 799.409 708.053 799.727C708.556 800.039 708.925 800.4 709.159 800.811C709.394 801.216 709.511 801.692 709.511 802.239C709.511 803.127 709.169 803.835 708.485 804.363C707.807 804.885 706.884 805.146 705.717 805.146C704.945 805.146 704.235 805.005 703.585 804.722C702.941 804.434 702.438 804.038 702.077 803.535C701.72 803.032 701.542 802.446 701.542 801.777H703.395C703.395 802.383 703.595 802.852 703.996 803.184C704.396 803.516 704.97 803.682 705.717 803.682C706.361 803.682 706.845 803.552 707.167 803.293C707.494 803.03 707.658 802.683 707.658 802.253ZM712.858 805H711.078V793.75H712.858V805ZM719.538 805C719.459 804.849 719.391 804.602 719.333 804.26C718.766 804.851 718.073 805.146 717.252 805.146C716.457 805.146 715.807 804.919 715.304 804.465C714.801 804.011 714.55 803.45 714.55 802.781C714.55 801.936 714.862 801.289 715.487 800.84C716.117 800.386 717.016 800.159 718.183 800.159H719.274V799.639C719.274 799.229 719.159 798.901 718.93 798.657C718.7 798.408 718.351 798.284 717.882 798.284C717.477 798.284 717.145 798.386 716.886 798.591C716.627 798.792 716.498 799.048 716.498 799.36H714.718C714.718 798.926 714.862 798.521 715.15 798.145C715.438 797.764 715.829 797.466 716.322 797.251C716.82 797.036 717.375 796.929 717.985 796.929C718.913 796.929 719.652 797.163 720.204 797.632C720.756 798.096 721.039 798.75 721.054 799.595V803.169C721.054 803.882 721.154 804.451 721.354 804.875V805H719.538ZM717.582 803.718C717.934 803.718 718.263 803.633 718.571 803.462C718.883 803.291 719.118 803.062 719.274 802.773V801.279H718.314C717.655 801.279 717.16 801.394 716.828 801.624C716.496 801.853 716.33 802.178 716.33 802.598C716.33 802.939 716.442 803.213 716.667 803.418C716.896 803.618 717.201 803.718 717.582 803.718ZM726.32 800.979C726.32 799.758 726.603 798.779 727.169 798.042C727.736 797.3 728.495 796.929 729.447 796.929C730.287 796.929 730.966 797.222 731.483 797.808V793.75H733.263V805H731.652L731.564 804.18C731.032 804.824 730.321 805.146 729.433 805.146C728.505 805.146 727.753 804.773 727.177 804.026C726.605 803.279 726.32 802.263 726.32 800.979ZM728.1 801.133C728.1 801.938 728.253 802.568 728.561 803.022C728.874 803.472 729.315 803.696 729.887 803.696C730.614 803.696 731.146 803.372 731.483 802.722V799.338C731.156 798.704 730.629 798.386 729.901 798.386C729.325 798.386 728.881 798.616 728.568 799.075C728.256 799.529 728.1 800.215 728.1 801.133ZM738.61 805.146C737.482 805.146 736.566 804.792 735.863 804.084C735.165 803.372 734.816 802.424 734.816 801.243V801.023C734.816 800.232 734.967 799.526 735.27 798.906C735.578 798.281 736.007 797.795 736.559 797.449C737.111 797.102 737.726 796.929 738.405 796.929C739.484 796.929 740.316 797.273 740.902 797.961C741.493 798.65 741.789 799.624 741.789 800.884V801.602H736.61C736.664 802.256 736.881 802.773 737.262 803.154C737.648 803.535 738.131 803.726 738.712 803.726C739.528 803.726 740.192 803.396 740.705 802.737L741.664 803.652C741.347 804.126 740.922 804.495 740.39 804.758C739.862 805.017 739.269 805.146 738.61 805.146ZM738.397 798.357C737.909 798.357 737.514 798.528 737.211 798.87C736.913 799.211 736.723 799.688 736.64 800.298H740.031V800.166C739.992 799.57 739.833 799.121 739.555 798.818C739.276 798.511 738.891 798.357 738.397 798.357ZM745.077 803.579H749.296V805H742.865V803.835L746.886 798.511H742.938V797.075H749.142V798.203L745.077 803.579ZM754.093 805.146C752.965 805.146 752.05 804.792 751.347 804.084C750.648 803.372 750.299 802.424 750.299 801.243V801.023C750.299 800.232 750.451 799.526 750.753 798.906C751.061 798.281 751.491 797.795 752.042 797.449C752.594 797.102 753.209 796.929 753.888 796.929C754.967 796.929 755.8 797.273 756.386 797.961C756.977 798.65 757.272 799.624 757.272 800.884V801.602H752.094C752.147 802.256 752.365 802.773 752.746 803.154C753.131 803.535 753.615 803.726 754.196 803.726C755.011 803.726 755.675 803.396 756.188 802.737L757.147 803.652C756.83 804.126 756.405 804.495 755.873 804.758C755.346 805.017 754.752 805.146 754.093 805.146ZM753.881 798.357C753.393 798.357 752.997 798.528 752.694 798.87C752.396 799.211 752.206 799.688 752.123 800.298H755.514V800.166C755.475 799.57 755.316 799.121 755.038 798.818C754.76 798.511 754.374 798.357 753.881 798.357ZM766.837 802.847C766.837 802.529 766.706 802.288 766.442 802.122C766.183 801.956 765.751 801.809 765.146 801.682C764.54 801.555 764.035 801.394 763.629 801.199C762.741 800.769 762.296 800.146 762.296 799.331C762.296 798.647 762.584 798.076 763.161 797.617C763.737 797.158 764.469 796.929 765.358 796.929C766.305 796.929 767.069 797.163 767.65 797.632C768.236 798.101 768.529 798.708 768.529 799.456H766.75C766.75 799.114 766.623 798.831 766.369 798.606C766.115 798.376 765.778 798.262 765.358 798.262C764.967 798.262 764.647 798.352 764.398 798.533C764.154 798.713 764.032 798.955 764.032 799.258C764.032 799.531 764.147 799.744 764.376 799.895C764.606 800.046 765.07 800.2 765.768 800.356C766.466 800.508 767.013 800.691 767.409 800.906C767.809 801.116 768.104 801.37 768.295 801.667C768.49 801.965 768.588 802.327 768.588 802.751C768.588 803.464 768.292 804.043 767.702 804.487C767.111 804.927 766.337 805.146 765.38 805.146C764.73 805.146 764.152 805.029 763.644 804.795C763.136 804.561 762.741 804.238 762.458 803.828C762.174 803.418 762.033 802.976 762.033 802.502H763.761C763.786 802.922 763.944 803.247 764.237 803.477C764.53 803.701 764.918 803.813 765.402 803.813C765.871 803.813 766.227 803.726 766.471 803.55C766.715 803.369 766.837 803.135 766.837 802.847ZM772.375 795.149V797.075H773.773V798.394H772.375V802.817C772.375 803.12 772.433 803.34 772.55 803.477C772.672 803.608 772.887 803.674 773.195 803.674C773.4 803.674 773.607 803.65 773.817 803.601V804.978C773.412 805.09 773.021 805.146 772.646 805.146C771.278 805.146 770.595 804.392 770.595 802.883V798.394H769.291V797.075H770.595V795.149H772.375ZM779.875 805C779.796 804.849 779.728 804.602 779.669 804.26C779.103 804.851 778.41 805.146 777.589 805.146C776.793 805.146 776.144 804.919 775.641 804.465C775.138 804.011 774.887 803.45 774.887 802.781C774.887 801.936 775.199 801.289 775.824 800.84C776.454 800.386 777.353 800.159 778.52 800.159H779.611V799.639C779.611 799.229 779.496 798.901 779.267 798.657C779.037 798.408 778.688 798.284 778.219 798.284C777.814 798.284 777.482 798.386 777.223 798.591C776.964 798.792 776.835 799.048 776.835 799.36H775.055C775.055 798.926 775.199 798.521 775.487 798.145C775.775 797.764 776.166 797.466 776.659 797.251C777.157 797.036 777.711 796.929 778.322 796.929C779.25 796.929 779.989 797.163 780.541 797.632C781.093 798.096 781.376 798.75 781.391 799.595V803.169C781.391 803.882 781.491 804.451 781.691 804.875V805H779.875ZM777.919 803.718C778.271 803.718 778.6 803.633 778.908 803.462C779.22 803.291 779.455 803.062 779.611 802.773V801.279H778.651C777.992 801.279 777.497 801.394 777.165 801.624C776.833 801.853 776.667 802.178 776.667 802.598C776.667 802.939 776.779 803.213 777.003 803.418C777.233 803.618 777.538 803.718 777.919 803.718ZM790.194 801.118C790.194 802.344 789.916 803.323 789.359 804.055C788.803 804.783 788.056 805.146 787.118 805.146C786.249 805.146 785.553 804.861 785.031 804.29V808.047H783.251V797.075H784.892L784.965 797.881C785.487 797.246 786.198 796.929 787.096 796.929C788.063 796.929 788.82 797.29 789.367 798.013C789.918 798.73 790.194 799.729 790.194 801.008V801.118ZM788.422 800.964C788.422 800.173 788.263 799.546 787.946 799.082C787.633 798.618 787.184 798.386 786.598 798.386C785.871 798.386 785.348 798.687 785.031 799.287V802.803C785.353 803.418 785.88 803.726 786.613 803.726C787.179 803.726 787.621 803.499 787.938 803.044C788.261 802.585 788.422 801.892 788.422 800.964ZM795.109 800.964C795.109 800.188 795.263 799.49 795.57 798.87C795.878 798.245 796.31 797.766 796.867 797.434C797.423 797.097 798.063 796.929 798.786 796.929C799.855 796.929 800.722 797.273 801.386 797.961C802.055 798.65 802.416 799.563 802.47 800.701L802.477 801.118C802.477 801.899 802.326 802.598 802.023 803.213C801.725 803.828 801.295 804.304 800.734 804.641C800.177 804.978 799.533 805.146 798.8 805.146C797.682 805.146 796.786 804.775 796.112 804.033C795.443 803.286 795.109 802.292 795.109 801.052V800.964ZM796.889 801.118C796.889 801.934 797.057 802.573 797.394 803.037C797.731 803.496 798.2 803.726 798.8 803.726C799.401 803.726 799.867 803.491 800.199 803.022C800.536 802.554 800.705 801.868 800.705 800.964C800.705 800.164 800.531 799.529 800.185 799.06C799.843 798.591 799.376 798.357 798.786 798.357C798.205 798.357 797.743 798.589 797.401 799.053C797.06 799.512 796.889 800.2 796.889 801.118ZM806.659 802.744L808.336 797.075H810.175L807.428 805H805.883L803.114 797.075H804.96L806.659 802.744ZM814.679 805.146C813.551 805.146 812.636 804.792 811.933 804.084C811.234 803.372 810.885 802.424 810.885 801.243V801.023C810.885 800.232 811.037 799.526 811.339 798.906C811.647 798.281 812.077 797.795 812.628 797.449C813.18 797.102 813.795 796.929 814.474 796.929C815.553 796.929 816.386 797.273 816.972 797.961C817.562 798.65 817.858 799.624 817.858 800.884V801.602H812.68C812.733 802.256 812.951 802.773 813.332 803.154C813.717 803.535 814.201 803.726 814.782 803.726C815.597 803.726 816.261 803.396 816.774 802.737L817.733 803.652C817.416 804.126 816.991 804.495 816.459 804.758C815.932 805.017 815.338 805.146 814.679 805.146ZM814.467 798.357C813.979 798.357 813.583 798.528 813.28 798.87C812.982 799.211 812.792 799.688 812.709 800.298H816.1V800.166C816.061 799.57 815.902 799.121 815.624 798.818C815.346 798.511 814.96 798.357 814.467 798.357ZM823.395 798.701C823.161 798.662 822.919 798.643 822.67 798.643C821.854 798.643 821.305 798.955 821.022 799.58V805H819.242V797.075H820.941L820.985 797.961C821.415 797.273 822.011 796.929 822.772 796.929C823.026 796.929 823.236 796.963 823.402 797.031L823.395 798.701Z" fill="#3FA2F7"/>
<circle opacity="0.5" cx="727" cy="183" r="12" fill="#333333"/>
<circle cx="763" cy="183" r="12" fill="#333333"/>
<circle opacity="0.5" cx="799" cy="183" r="12" fill="#333333"/>
<path d="M728.243 188H726.589V180.009L724.148 180.843V179.441L728.031 178.013H728.243V188Z" fill="white"/>
<path d="M766.438 188H759.745V186.858L763.061 183.242C763.539 182.709 763.879 182.265 764.079 181.909C764.284 181.549 764.387 181.189 764.387 180.829C764.387 180.355 764.252 179.972 763.983 179.681C763.719 179.389 763.361 179.243 762.91 179.243C762.372 179.243 761.955 179.407 761.659 179.735C761.363 180.063 761.215 180.512 761.215 181.082H759.554C759.554 180.476 759.69 179.931 759.964 179.448C760.242 178.961 760.636 178.582 761.146 178.313C761.661 178.045 762.254 177.91 762.924 177.91C763.89 177.91 764.651 178.154 765.207 178.642C765.768 179.125 766.048 179.795 766.048 180.651C766.048 181.148 765.907 181.67 765.624 182.217C765.346 182.759 764.888 183.377 764.25 184.069L761.816 186.674H766.438V188Z" fill="white"/>
<path d="M797.666 182.265H798.678C799.188 182.26 799.591 182.128 799.888 181.868C800.188 181.608 800.339 181.232 800.339 180.74C800.339 180.266 800.214 179.899 799.963 179.64C799.717 179.375 799.339 179.243 798.828 179.243C798.382 179.243 798.015 179.373 797.728 179.633C797.44 179.888 797.297 180.223 797.297 180.638H795.636C795.636 180.127 795.77 179.662 796.039 179.243C796.312 178.824 796.691 178.498 797.174 178.266C797.661 178.029 798.206 177.91 798.808 177.91C799.801 177.91 800.58 178.161 801.146 178.662C801.715 179.159 802 179.852 802 180.74C802 181.187 801.856 181.608 801.569 182.005C801.287 182.397 800.92 182.693 800.469 182.894C801.016 183.08 801.43 183.374 801.713 183.775C802 184.176 802.144 184.655 802.144 185.211C802.144 186.104 801.836 186.815 801.221 187.344C800.61 187.872 799.806 188.137 798.808 188.137C797.851 188.137 797.067 187.882 796.456 187.371C795.845 186.861 795.54 186.182 795.54 185.334H797.201C797.201 185.771 797.347 186.127 797.639 186.4C797.935 186.674 798.331 186.811 798.828 186.811C799.343 186.811 799.749 186.674 800.045 186.4C800.341 186.127 800.489 185.73 800.489 185.211C800.489 184.687 800.334 184.284 800.024 184.001C799.715 183.718 799.254 183.577 798.644 183.577H797.666V182.265Z" fill="white"/>
<rect x="567.5" y="92.5" width="390" height="827" rx="27.5" stroke="#333333" stroke-width="15"/>
<rect x="92.5" y="92.5" width="390" height="827" rx="27.5" fill="white"/>
<rect x="100" y="100" width="375" height="55" fill="#333333"/>
<path d="M143 126.611V129.389H126.333L133.972 137.028L132 139L121 128L132 117L133.972 118.972L126.333 126.611H143Z" fill="white"/>
<path fill-rule="evenodd" clip-rule="evenodd" d="M132 846C132 843.239 134.239 841 137 841H438C440.761 841 443 843.239 443 846V875C443 877.761 440.761 880 438 880H137C134.239 880 132 877.761 132 875V846Z" fill="#525252"/>
<path d="M244.221 863.678L246.931 855.336H248.967L245.129 866H243.335L239.512 855.336H241.541L244.221 863.678ZM249.333 861.964C249.333 861.188 249.487 860.49 249.795 859.87C250.103 859.245 250.535 858.766 251.091 858.434C251.648 858.097 252.288 857.929 253.01 857.929C254.08 857.929 254.946 858.273 255.61 858.961C256.279 859.65 256.641 860.563 256.694 861.701L256.702 862.118C256.702 862.899 256.55 863.598 256.248 864.213C255.95 864.828 255.52 865.304 254.958 865.641C254.402 865.978 253.757 866.146 253.025 866.146C251.907 866.146 251.011 865.775 250.337 865.033C249.668 864.286 249.333 863.292 249.333 862.052V861.964ZM251.113 862.118C251.113 862.934 251.282 863.573 251.619 864.037C251.956 864.496 252.424 864.726 253.025 864.726C253.625 864.726 254.092 864.491 254.424 864.022C254.761 863.554 254.929 862.868 254.929 861.964C254.929 861.164 254.756 860.529 254.409 860.06C254.067 859.591 253.601 859.357 253.01 859.357C252.429 859.357 251.968 859.589 251.626 860.053C251.284 860.512 251.113 861.2 251.113 862.118ZM260.1 866H258.32V854.75H260.1V866ZM261.733 861.979C261.733 860.749 262.021 859.767 262.598 859.035C263.179 858.297 263.948 857.929 264.905 857.929C265.808 857.929 266.519 858.244 267.036 858.874L267.117 858.075H268.721V865.758C268.721 866.798 268.396 867.619 267.747 868.219C267.102 868.82 266.23 869.12 265.132 869.12C264.551 869.12 263.982 868.998 263.425 868.754C262.874 868.515 262.454 868.2 262.166 867.809L263.008 866.74C263.555 867.389 264.229 867.714 265.029 867.714C265.62 867.714 266.086 867.553 266.428 867.23C266.77 866.913 266.941 866.444 266.941 865.824V865.29C266.428 865.861 265.745 866.146 264.89 866.146C263.962 866.146 263.203 865.778 262.612 865.041C262.026 864.303 261.733 863.283 261.733 861.979ZM263.506 862.133C263.506 862.929 263.667 863.556 263.989 864.015C264.316 864.469 264.768 864.696 265.344 864.696C266.062 864.696 266.594 864.389 266.941 863.773V860.287C266.604 859.687 266.077 859.386 265.359 859.386C264.773 859.386 264.316 859.618 263.989 860.082C263.667 860.546 263.506 861.229 263.506 862.133ZM274.045 866.146C272.917 866.146 272.002 865.792 271.299 865.084C270.601 864.372 270.251 863.424 270.251 862.243V862.023C270.251 861.232 270.403 860.526 270.706 859.906C271.013 859.281 271.443 858.795 271.995 858.449C272.546 858.102 273.162 857.929 273.84 857.929C274.919 857.929 275.752 858.273 276.338 858.961C276.929 859.65 277.224 860.624 277.224 861.884V862.602H272.046C272.1 863.256 272.317 863.773 272.698 864.154C273.083 864.535 273.567 864.726 274.148 864.726C274.963 864.726 275.627 864.396 276.14 863.737L277.1 864.652C276.782 865.126 276.357 865.495 275.825 865.758C275.298 866.017 274.705 866.146 274.045 866.146ZM273.833 859.357C273.345 859.357 272.949 859.528 272.646 859.87C272.349 860.211 272.158 860.688 272.075 861.298H275.466V861.166C275.427 860.57 275.269 860.121 274.99 859.818C274.712 859.511 274.326 859.357 273.833 859.357ZM280.264 858.075L280.315 858.991C280.901 858.283 281.67 857.929 282.622 857.929C284.272 857.929 285.112 858.874 285.142 860.763V866H283.362V860.866C283.362 860.363 283.252 859.992 283.032 859.752C282.817 859.508 282.463 859.386 281.97 859.386C281.252 859.386 280.718 859.711 280.366 860.36V866H278.586V858.075H280.264ZM286.628 861.979C286.628 860.758 286.912 859.779 287.478 859.042C288.044 858.3 288.804 857.929 289.756 857.929C290.596 857.929 291.274 858.222 291.792 858.808V854.75H293.572V866H291.96L291.873 865.18C291.34 865.824 290.63 866.146 289.741 866.146C288.813 866.146 288.062 865.773 287.485 865.026C286.914 864.279 286.628 863.263 286.628 861.979ZM288.408 862.133C288.408 862.938 288.562 863.568 288.87 864.022C289.182 864.472 289.624 864.696 290.195 864.696C290.923 864.696 291.455 864.372 291.792 863.722V860.338C291.465 859.704 290.938 859.386 290.21 859.386C289.634 859.386 289.189 859.616 288.877 860.075C288.564 860.529 288.408 861.215 288.408 862.133ZM298.918 866.146C297.791 866.146 296.875 865.792 296.172 865.084C295.474 864.372 295.125 863.424 295.125 862.243V862.023C295.125 861.232 295.276 860.526 295.579 859.906C295.886 859.281 296.316 858.795 296.868 858.449C297.419 858.102 298.035 857.929 298.713 857.929C299.792 857.929 300.625 858.273 301.211 858.961C301.802 859.65 302.097 860.624 302.097 861.884V862.602H296.919C296.973 863.256 297.19 863.773 297.571 864.154C297.957 864.535 298.44 864.726 299.021 864.726C299.836 864.726 300.5 864.396 301.013 863.737L301.973 864.652C301.655 865.126 301.23 865.495 300.698 865.758C300.171 866.017 299.578 866.146 298.918 866.146ZM298.706 859.357C298.218 859.357 297.822 859.528 297.52 859.87C297.222 860.211 297.031 860.688 296.948 861.298H300.339V861.166C300.3 860.57 300.142 860.121 299.863 859.818C299.585 859.511 299.199 859.357 298.706 859.357ZM311.663 863.847C311.663 863.529 311.531 863.288 311.267 863.122C311.008 862.956 310.576 862.809 309.971 862.682C309.365 862.555 308.86 862.394 308.455 862.199C307.566 861.769 307.122 861.146 307.122 860.331C307.122 859.647 307.41 859.076 307.986 858.617C308.562 858.158 309.294 857.929 310.183 857.929C311.13 857.929 311.895 858.163 312.476 858.632C313.062 859.101 313.354 859.708 313.354 860.456H311.575C311.575 860.114 311.448 859.831 311.194 859.606C310.94 859.376 310.603 859.262 310.183 859.262C309.792 859.262 309.473 859.352 309.224 859.533C308.979 859.713 308.857 859.955 308.857 860.258C308.857 860.531 308.972 860.744 309.202 860.895C309.431 861.046 309.895 861.2 310.593 861.356C311.292 861.508 311.838 861.691 312.234 861.906C312.634 862.116 312.93 862.37 313.12 862.667C313.315 862.965 313.413 863.327 313.413 863.751C313.413 864.464 313.118 865.043 312.527 865.487C311.936 865.927 311.162 866.146 310.205 866.146C309.556 866.146 308.977 866.029 308.469 865.795C307.961 865.561 307.566 865.238 307.283 864.828C307 864.418 306.858 863.976 306.858 863.502H308.586C308.611 863.922 308.77 864.247 309.062 864.477C309.355 864.701 309.744 864.813 310.227 864.813C310.696 864.813 311.052 864.726 311.296 864.55C311.541 864.369 311.663 864.135 311.663 863.847ZM317.2 856.149V858.075H318.599V859.394H317.2V863.817C317.2 864.12 317.258 864.34 317.375 864.477C317.498 864.608 317.712 864.674 318.02 864.674C318.225 864.674 318.433 864.65 318.643 864.601V865.978C318.237 866.09 317.847 866.146 317.471 866.146C316.104 866.146 315.42 865.392 315.42 863.883V859.394H314.116V858.075H315.42V856.149H317.2ZM324.7 866C324.622 865.849 324.553 865.602 324.495 865.26C323.928 865.851 323.235 866.146 322.415 866.146C321.619 866.146 320.969 865.919 320.466 865.465C319.963 865.011 319.712 864.45 319.712 863.781C319.712 862.936 320.024 862.289 320.649 861.84C321.279 861.386 322.178 861.159 323.345 861.159H324.436V860.639C324.436 860.229 324.321 859.901 324.092 859.657C323.862 859.408 323.513 859.284 323.044 859.284C322.639 859.284 322.307 859.386 322.048 859.591C321.79 859.792 321.66 860.048 321.66 860.36H319.88C319.88 859.926 320.024 859.521 320.312 859.145C320.601 858.764 320.991 858.466 321.484 858.251C321.982 858.036 322.537 857.929 323.147 857.929C324.075 857.929 324.814 858.163 325.366 858.632C325.918 859.096 326.201 859.75 326.216 860.595V864.169C326.216 864.882 326.316 865.451 326.516 865.875V866H324.7ZM322.744 864.718C323.096 864.718 323.425 864.633 323.733 864.462C324.045 864.291 324.28 864.062 324.436 863.773V862.279H323.477C322.817 862.279 322.322 862.394 321.99 862.624C321.658 862.853 321.492 863.178 321.492 863.598C321.492 863.939 321.604 864.213 321.829 864.418C322.058 864.618 322.363 864.718 322.744 864.718ZM335.02 862.118C335.02 863.344 334.741 864.323 334.185 865.055C333.628 865.783 332.881 866.146 331.943 866.146C331.074 866.146 330.378 865.861 329.856 865.29V869.047H328.076V858.075H329.717L329.79 858.881C330.312 858.246 331.023 857.929 331.921 857.929C332.888 857.929 333.645 858.29 334.192 859.013C334.744 859.73 335.02 860.729 335.02 862.008V862.118ZM333.247 861.964C333.247 861.173 333.088 860.546 332.771 860.082C332.458 859.618 332.009 859.386 331.423 859.386C330.696 859.386 330.173 859.687 329.856 860.287V863.803C330.178 864.418 330.706 864.726 331.438 864.726C332.004 864.726 332.446 864.499 332.764 864.044C333.086 863.585 333.247 862.892 333.247 861.964Z" fill="white"/>
<path d="M128.098 471.781L131.75 482.094L135.383 471.781H139.23V486H136.291V482.113L136.584 475.404L132.746 486H130.734L126.906 475.414L127.199 482.113V486H124.27V471.781H128.098ZM147.727 486C147.596 485.746 147.502 485.43 147.443 485.053C146.76 485.814 145.871 486.195 144.777 486.195C143.742 486.195 142.883 485.896 142.199 485.297C141.522 484.698 141.184 483.943 141.184 483.031C141.184 481.911 141.597 481.052 142.424 480.453C143.257 479.854 144.458 479.551 146.027 479.545H147.326V478.939C147.326 478.451 147.199 478.061 146.945 477.768C146.698 477.475 146.304 477.328 145.764 477.328C145.288 477.328 144.914 477.442 144.641 477.67C144.374 477.898 144.24 478.21 144.24 478.607H141.418C141.418 477.995 141.607 477.429 141.984 476.908C142.362 476.387 142.896 475.98 143.586 475.688C144.276 475.388 145.051 475.238 145.91 475.238C147.212 475.238 148.244 475.567 149.006 476.225C149.774 476.876 150.158 477.794 150.158 478.979V483.559C150.165 484.561 150.305 485.32 150.578 485.834V486H147.727ZM145.393 484.037C145.809 484.037 146.193 483.946 146.545 483.764C146.896 483.575 147.157 483.324 147.326 483.012V481.195H146.271C144.859 481.195 144.107 481.684 144.016 482.66L144.006 482.826C144.006 483.178 144.13 483.467 144.377 483.695C144.624 483.923 144.963 484.037 145.393 484.037ZM158.449 486C158.319 485.746 158.225 485.43 158.166 485.053C157.482 485.814 156.594 486.195 155.5 486.195C154.465 486.195 153.605 485.896 152.922 485.297C152.245 484.698 151.906 483.943 151.906 483.031C151.906 481.911 152.32 481.052 153.146 480.453C153.98 479.854 155.181 479.551 156.75 479.545H158.049V478.939C158.049 478.451 157.922 478.061 157.668 477.768C157.421 477.475 157.027 477.328 156.486 477.328C156.011 477.328 155.637 477.442 155.363 477.67C155.096 477.898 154.963 478.21 154.963 478.607H152.141C152.141 477.995 152.329 477.429 152.707 476.908C153.085 476.387 153.618 475.98 154.309 475.688C154.999 475.388 155.773 475.238 156.633 475.238C157.935 475.238 158.967 475.567 159.729 476.225C160.497 476.876 160.881 477.794 160.881 478.979V483.559C160.887 484.561 161.027 485.32 161.301 485.834V486H158.449ZM156.115 484.037C156.532 484.037 156.916 483.946 157.268 483.764C157.619 483.575 157.88 483.324 158.049 483.012V481.195H156.994C155.581 481.195 154.829 481.684 154.738 482.66L154.729 482.826C154.729 483.178 154.852 483.467 155.1 483.695C155.347 483.923 155.686 484.037 156.115 484.037ZM166.887 481.762L165.871 482.777V486H163.049V471H165.871V479.311L166.418 478.607L169.123 475.434H172.512L168.693 479.838L172.844 486H169.602L166.887 481.762ZM183.576 486.195C182.027 486.195 180.764 485.72 179.787 484.77C178.817 483.819 178.332 482.553 178.332 480.971V480.697C178.332 479.636 178.537 478.689 178.947 477.855C179.357 477.016 179.937 476.371 180.686 475.922C181.441 475.466 182.3 475.238 183.264 475.238C184.709 475.238 185.845 475.694 186.672 476.605C187.505 477.517 187.922 478.809 187.922 480.482V481.635H181.193C181.285 482.325 181.558 482.878 182.014 483.295C182.476 483.712 183.059 483.92 183.762 483.92C184.849 483.92 185.699 483.526 186.311 482.738L187.697 484.291C187.274 484.89 186.701 485.359 185.979 485.697C185.256 486.029 184.455 486.195 183.576 486.195ZM183.254 477.523C182.694 477.523 182.238 477.712 181.887 478.09C181.542 478.467 181.32 479.008 181.223 479.711H185.148V479.486C185.135 478.861 184.966 478.38 184.641 478.041C184.315 477.696 183.853 477.523 183.254 477.523ZM194.396 486.195C192.847 486.195 191.584 485.72 190.607 484.77C189.637 483.819 189.152 482.553 189.152 480.971V480.697C189.152 479.636 189.357 478.689 189.768 477.855C190.178 477.016 190.757 476.371 191.506 475.922C192.261 475.466 193.12 475.238 194.084 475.238C195.529 475.238 196.665 475.694 197.492 476.605C198.326 477.517 198.742 478.809 198.742 480.482V481.635H192.014C192.105 482.325 192.378 482.878 192.834 483.295C193.296 483.712 193.879 483.92 194.582 483.92C195.669 483.92 196.519 483.526 197.131 482.738L198.518 484.291C198.094 484.89 197.521 485.359 196.799 485.697C196.076 486.029 195.275 486.195 194.396 486.195ZM194.074 477.523C193.514 477.523 193.059 477.712 192.707 478.09C192.362 478.467 192.141 479.008 192.043 479.711H195.969V479.486C195.956 478.861 195.786 478.38 195.461 478.041C195.135 477.696 194.673 477.523 194.074 477.523ZM202.951 475.434L203.039 476.654C203.794 475.71 204.807 475.238 206.076 475.238C207.196 475.238 208.029 475.567 208.576 476.225C209.123 476.882 209.403 477.865 209.416 479.174V486H206.594V479.242C206.594 478.643 206.464 478.21 206.203 477.943C205.943 477.67 205.51 477.533 204.904 477.533C204.11 477.533 203.514 477.872 203.117 478.549V486H200.295V475.434H202.951ZM219.924 472.836V475.434H221.73V477.504H219.924V482.777C219.924 483.168 219.999 483.448 220.148 483.617C220.298 483.786 220.585 483.871 221.008 483.871C221.32 483.871 221.597 483.848 221.838 483.803V485.941C221.285 486.111 220.715 486.195 220.129 486.195C218.15 486.195 217.141 485.196 217.102 483.197V477.504H215.559V475.434H217.102V472.836H219.924ZM228.166 486.195C226.617 486.195 225.354 485.72 224.377 484.77C223.407 483.819 222.922 482.553 222.922 480.971V480.697C222.922 479.636 223.127 478.689 223.537 477.855C223.947 477.016 224.527 476.371 225.275 475.922C226.031 475.466 226.89 475.238 227.854 475.238C229.299 475.238 230.435 475.694 231.262 476.605C232.095 477.517 232.512 478.809 232.512 480.482V481.635H225.783C225.874 482.325 226.148 482.878 226.604 483.295C227.066 483.712 227.648 483.92 228.352 483.92C229.439 483.92 230.288 483.526 230.9 482.738L232.287 484.291C231.864 484.89 231.291 485.359 230.568 485.697C229.846 486.029 229.045 486.195 228.166 486.195ZM227.844 477.523C227.284 477.523 226.828 477.712 226.477 478.09C226.132 478.467 225.91 479.008 225.812 479.711H229.738V479.486C229.725 478.861 229.556 478.38 229.23 478.041C228.905 477.696 228.443 477.523 227.844 477.523ZM240.246 486C240.116 485.746 240.021 485.43 239.963 485.053C239.279 485.814 238.391 486.195 237.297 486.195C236.262 486.195 235.402 485.896 234.719 485.297C234.042 484.698 233.703 483.943 233.703 483.031C233.703 481.911 234.117 481.052 234.943 480.453C235.777 479.854 236.978 479.551 238.547 479.545H239.846V478.939C239.846 478.451 239.719 478.061 239.465 477.768C239.217 477.475 238.824 477.328 238.283 477.328C237.808 477.328 237.434 477.442 237.16 477.67C236.893 477.898 236.76 478.21 236.76 478.607H233.938C233.938 477.995 234.126 477.429 234.504 476.908C234.882 476.387 235.415 475.98 236.105 475.688C236.796 475.388 237.57 475.238 238.43 475.238C239.732 475.238 240.764 475.567 241.525 476.225C242.294 476.876 242.678 477.794 242.678 478.979V483.559C242.684 484.561 242.824 485.32 243.098 485.834V486H240.246ZM237.912 484.037C238.329 484.037 238.713 483.946 239.064 483.764C239.416 483.575 239.676 483.324 239.846 483.012V481.195H238.791C237.378 481.195 236.626 481.684 236.535 482.66L236.525 482.826C236.525 483.178 236.649 483.467 236.896 483.695C237.144 483.923 237.482 484.037 237.912 484.037ZM247.492 475.434L247.58 476.615C248.329 475.697 249.341 475.238 250.617 475.238C251.978 475.238 252.912 475.775 253.42 476.85C254.162 475.775 255.22 475.238 256.594 475.238C257.74 475.238 258.592 475.574 259.152 476.244C259.712 476.908 259.992 477.911 259.992 479.252V486H257.16V479.262C257.16 478.663 257.043 478.227 256.809 477.953C256.574 477.673 256.161 477.533 255.568 477.533C254.722 477.533 254.136 477.937 253.811 478.744L253.82 486H250.998V479.271C250.998 478.66 250.878 478.217 250.637 477.943C250.396 477.67 249.986 477.533 249.406 477.533C248.605 477.533 248.026 477.865 247.668 478.529V486H244.846V475.434H247.492ZM264.768 475.434L264.855 476.654C265.611 475.71 266.623 475.238 267.893 475.238C269.012 475.238 269.846 475.567 270.393 476.225C270.939 476.882 271.219 477.865 271.232 479.174V486H268.41V479.242C268.41 478.643 268.28 478.21 268.02 477.943C267.759 477.67 267.326 477.533 266.721 477.533C265.926 477.533 265.331 477.872 264.934 478.549V486H262.111V475.434H264.768ZM279.504 486C279.374 485.746 279.279 485.43 279.221 485.053C278.537 485.814 277.648 486.195 276.555 486.195C275.52 486.195 274.66 485.896 273.977 485.297C273.299 484.698 272.961 483.943 272.961 483.031C272.961 481.911 273.374 481.052 274.201 480.453C275.035 479.854 276.236 479.551 277.805 479.545H279.104V478.939C279.104 478.451 278.977 478.061 278.723 477.768C278.475 477.475 278.081 477.328 277.541 477.328C277.066 477.328 276.691 477.442 276.418 477.67C276.151 477.898 276.018 478.21 276.018 478.607H273.195C273.195 477.995 273.384 477.429 273.762 476.908C274.139 476.387 274.673 475.98 275.363 475.688C276.053 475.388 276.828 475.238 277.688 475.238C278.99 475.238 280.021 475.567 280.783 476.225C281.551 476.876 281.936 477.794 281.936 478.979V483.559C281.942 484.561 282.082 485.32 282.355 485.834V486H279.504ZM277.17 484.037C277.587 484.037 277.971 483.946 278.322 483.764C278.674 483.575 278.934 483.324 279.104 483.012V481.195H278.049C276.636 481.195 275.884 481.684 275.793 482.66L275.783 482.826C275.783 483.178 275.907 483.467 276.154 483.695C276.402 483.923 276.74 484.037 277.17 484.037ZM290.227 486C290.096 485.746 290.002 485.43 289.943 485.053C289.26 485.814 288.371 486.195 287.277 486.195C286.242 486.195 285.383 485.896 284.699 485.297C284.022 484.698 283.684 483.943 283.684 483.031C283.684 481.911 284.097 481.052 284.924 480.453C285.757 479.854 286.958 479.551 288.527 479.545H289.826V478.939C289.826 478.451 289.699 478.061 289.445 477.768C289.198 477.475 288.804 477.328 288.264 477.328C287.788 477.328 287.414 477.442 287.141 477.67C286.874 477.898 286.74 478.21 286.74 478.607H283.918C283.918 477.995 284.107 477.429 284.484 476.908C284.862 476.387 285.396 475.98 286.086 475.688C286.776 475.388 287.551 475.238 288.41 475.238C289.712 475.238 290.744 475.567 291.506 476.225C292.274 476.876 292.658 477.794 292.658 478.979V483.559C292.665 484.561 292.805 485.32 293.078 485.834V486H290.227ZM287.893 484.037C288.309 484.037 288.693 483.946 289.045 483.764C289.396 483.575 289.657 483.324 289.826 483.012V481.195H288.771C287.359 481.195 286.607 481.684 286.516 482.66L286.506 482.826C286.506 483.178 286.63 483.467 286.877 483.695C287.124 483.923 287.463 484.037 287.893 484.037ZM297.473 475.434L297.561 476.615C298.309 475.697 299.322 475.238 300.598 475.238C301.958 475.238 302.893 475.775 303.4 476.85C304.143 475.775 305.201 475.238 306.574 475.238C307.72 475.238 308.573 475.574 309.133 476.244C309.693 476.908 309.973 477.911 309.973 479.252V486H307.141V479.262C307.141 478.663 307.023 478.227 306.789 477.953C306.555 477.673 306.141 477.533 305.549 477.533C304.702 477.533 304.117 477.937 303.791 478.744L303.801 486H300.979V479.271C300.979 478.66 300.858 478.217 300.617 477.943C300.376 477.67 299.966 477.533 299.387 477.533C298.586 477.533 298.007 477.865 297.648 478.529V486H294.826V475.434H297.473ZM323.254 486C323.124 485.746 323.029 485.43 322.971 485.053C322.287 485.814 321.398 486.195 320.305 486.195C319.27 486.195 318.41 485.896 317.727 485.297C317.049 484.698 316.711 483.943 316.711 483.031C316.711 481.911 317.124 481.052 317.951 480.453C318.785 479.854 319.986 479.551 321.555 479.545H322.854V478.939C322.854 478.451 322.727 478.061 322.473 477.768C322.225 477.475 321.831 477.328 321.291 477.328C320.816 477.328 320.441 477.442 320.168 477.67C319.901 477.898 319.768 478.21 319.768 478.607H316.945C316.945 477.995 317.134 477.429 317.512 476.908C317.889 476.387 318.423 475.98 319.113 475.688C319.803 475.388 320.578 475.238 321.438 475.238C322.74 475.238 323.771 475.567 324.533 476.225C325.301 476.876 325.686 477.794 325.686 478.979V483.559C325.692 484.561 325.832 485.32 326.105 485.834V486H323.254ZM320.92 484.037C321.337 484.037 321.721 483.946 322.072 483.764C322.424 483.575 322.684 483.324 322.854 483.012V481.195H321.799C320.386 481.195 319.634 481.684 319.543 482.66L319.533 482.826C319.533 483.178 319.657 483.467 319.904 483.695C320.152 483.923 320.49 484.037 320.92 484.037ZM333.977 486C333.846 485.746 333.752 485.43 333.693 485.053C333.01 485.814 332.121 486.195 331.027 486.195C329.992 486.195 329.133 485.896 328.449 485.297C327.772 484.698 327.434 483.943 327.434 483.031C327.434 481.911 327.847 481.052 328.674 480.453C329.507 479.854 330.708 479.551 332.277 479.545H333.576V478.939C333.576 478.451 333.449 478.061 333.195 477.768C332.948 477.475 332.554 477.328 332.014 477.328C331.538 477.328 331.164 477.442 330.891 477.67C330.624 477.898 330.49 478.21 330.49 478.607H327.668C327.668 477.995 327.857 477.429 328.234 476.908C328.612 476.387 329.146 475.98 329.836 475.688C330.526 475.388 331.301 475.238 332.16 475.238C333.462 475.238 334.494 475.567 335.256 476.225C336.024 476.876 336.408 477.794 336.408 478.979V483.559C336.415 484.561 336.555 485.32 336.828 485.834V486H333.977ZM331.643 484.037C332.059 484.037 332.443 483.946 332.795 483.764C333.146 483.575 333.407 483.324 333.576 483.012V481.195H332.521C331.109 481.195 330.357 481.684 330.266 482.66L330.256 482.826C330.256 483.178 330.38 483.467 330.627 483.695C330.874 483.923 331.213 484.037 331.643 484.037ZM341.174 475.434L341.262 476.654C342.017 475.71 343.029 475.238 344.299 475.238C345.419 475.238 346.252 475.567 346.799 476.225C347.346 476.882 347.626 477.865 347.639 479.174V486H344.816V479.242C344.816 478.643 344.686 478.21 344.426 477.943C344.165 477.67 343.732 477.533 343.127 477.533C342.333 477.533 341.737 477.872 341.34 478.549V486H338.518V475.434H341.174Z" fill="#3C3C3C"/>
<rect x="123.5" y="507.5" width="310" height="35" rx="5.5" fill="white" stroke="#D4D4D4"/>
<path d="M139.026 530.137C138.024 530.137 137.208 529.809 136.579 529.152C135.95 528.492 135.636 527.61 135.636 526.507V526.274C135.636 525.541 135.775 524.887 136.053 524.312C136.335 523.734 136.727 523.283 137.229 522.959C137.734 522.631 138.281 522.467 138.869 522.467C139.831 522.467 140.578 522.784 141.111 523.417C141.645 524.05 141.911 524.957 141.911 526.138V526.664H136.9C136.919 527.393 137.131 527.983 137.536 528.435C137.946 528.881 138.466 529.104 139.095 529.104C139.541 529.104 139.92 529.013 140.229 528.831C140.539 528.649 140.811 528.407 141.043 528.106L141.815 528.708C141.196 529.66 140.266 530.137 139.026 530.137ZM138.869 523.506C138.359 523.506 137.93 523.693 137.584 524.066C137.238 524.436 137.023 524.955 136.941 525.625H140.646V525.529C140.61 524.887 140.437 524.39 140.127 524.039C139.817 523.684 139.398 523.506 138.869 523.506ZM145.862 525.304L147.503 522.604H148.979L146.56 526.261L149.055 530H147.592L145.883 527.231L144.174 530H142.704L145.199 526.261L142.779 522.604H144.242L145.862 525.304ZM151.516 522.604L151.55 523.424C152.092 522.786 152.824 522.467 153.744 522.467C154.779 522.467 155.483 522.863 155.856 523.656C156.103 523.301 156.422 523.014 156.813 522.795C157.21 522.576 157.677 522.467 158.215 522.467C159.837 522.467 160.662 523.326 160.689 525.044V530H159.425V525.119C159.425 524.59 159.304 524.196 159.062 523.937C158.821 523.672 158.415 523.54 157.846 523.54C157.376 523.54 156.987 523.681 156.677 523.964C156.367 524.242 156.187 524.618 156.137 525.092V530H154.865V525.153C154.865 524.078 154.339 523.54 153.286 523.54C152.457 523.54 151.889 523.893 151.584 524.6V530H150.319V522.604H151.516ZM162.562 529.337C162.562 529.118 162.626 528.936 162.754 528.79C162.886 528.644 163.082 528.571 163.342 528.571C163.602 528.571 163.798 528.644 163.93 528.79C164.066 528.936 164.135 529.118 164.135 529.337C164.135 529.547 164.066 529.722 163.93 529.863C163.798 530.005 163.602 530.075 163.342 530.075C163.082 530.075 162.886 530.005 162.754 529.863C162.626 529.722 162.562 529.547 162.562 529.337ZM162.569 523.301C162.569 523.082 162.633 522.9 162.761 522.754C162.893 522.608 163.089 522.535 163.349 522.535C163.608 522.535 163.804 522.608 163.937 522.754C164.073 522.9 164.142 523.082 164.142 523.301C164.142 523.51 164.073 523.686 163.937 523.827C163.804 523.968 163.608 524.039 163.349 524.039C163.089 524.039 162.893 523.968 162.761 523.827C162.633 523.686 162.569 523.51 162.569 523.301ZM170.984 528.927H175.701V530H169.665V520.047H170.984V528.927ZM181.266 529.269C180.773 529.847 180.051 530.137 179.099 530.137C178.31 530.137 177.709 529.909 177.294 529.453C176.884 528.993 176.676 528.314 176.672 527.416V522.604H177.937V527.382C177.937 528.503 178.392 529.063 179.304 529.063C180.27 529.063 180.912 528.703 181.231 527.983V522.604H182.496V530H181.293L181.266 529.269ZM186.14 520.812V522.604H187.521V523.581H186.14V528.168C186.14 528.464 186.201 528.688 186.324 528.838C186.447 528.984 186.657 529.057 186.953 529.057C187.099 529.057 187.299 529.029 187.555 528.975V530C187.222 530.091 186.898 530.137 186.584 530.137C186.019 530.137 185.593 529.966 185.306 529.624C185.019 529.282 184.875 528.797 184.875 528.168V523.581H183.528V522.604H184.875V520.812H186.14ZM190.31 522.604V530.854C190.31 532.276 189.665 532.987 188.375 532.987C188.097 532.987 187.84 532.946 187.603 532.864V531.853C187.748 531.889 187.94 531.907 188.177 531.907C188.459 531.907 188.674 531.83 188.819 531.675C188.97 531.524 189.045 531.26 189.045 530.882V522.604H190.31ZM188.915 520.642C188.915 520.441 188.977 520.27 189.1 520.129C189.227 519.983 189.412 519.91 189.653 519.91C189.899 519.91 190.086 519.981 190.214 520.122C190.341 520.263 190.405 520.437 190.405 520.642C190.405 520.847 190.341 521.018 190.214 521.154C190.086 521.291 189.899 521.359 189.653 521.359C189.407 521.359 189.223 521.291 189.1 521.154C188.977 521.018 188.915 520.847 188.915 520.642ZM195.423 530.137C194.42 530.137 193.604 529.809 192.976 529.152C192.347 528.492 192.032 527.61 192.032 526.507V526.274C192.032 525.541 192.171 524.887 192.449 524.312C192.732 523.734 193.124 523.283 193.625 522.959C194.131 522.631 194.678 522.467 195.266 522.467C196.227 522.467 196.975 522.784 197.508 523.417C198.041 524.05 198.308 524.957 198.308 526.138V526.664H193.297C193.315 527.393 193.527 527.983 193.933 528.435C194.343 528.881 194.862 529.104 195.491 529.104C195.938 529.104 196.316 529.013 196.626 528.831C196.936 528.649 197.207 528.407 197.439 528.106L198.212 528.708C197.592 529.66 196.662 530.137 195.423 530.137ZM195.266 523.506C194.755 523.506 194.327 523.693 193.98 524.066C193.634 524.436 193.42 524.955 193.338 525.625H197.043V525.529C197.007 524.887 196.833 524.39 196.523 524.039C196.214 523.684 195.794 523.506 195.266 523.506ZM206.039 526.384C206.039 527.514 205.779 528.423 205.26 529.111C204.74 529.795 204.043 530.137 203.168 530.137C202.234 530.137 201.511 529.806 201.001 529.146L200.939 530H199.777V519.5H201.042V523.417C201.552 522.784 202.257 522.467 203.154 522.467C204.052 522.467 204.756 522.806 205.267 523.485C205.782 524.164 206.039 525.094 206.039 526.274V526.384ZM204.774 526.24C204.774 525.379 204.608 524.714 204.275 524.244C203.943 523.775 203.464 523.54 202.84 523.54C202.006 523.54 201.407 523.927 201.042 524.702V527.901C201.429 528.676 202.033 529.063 202.854 529.063C203.46 529.063 203.931 528.829 204.269 528.359C204.606 527.89 204.774 527.184 204.774 526.24ZM211.214 523.738C211.022 523.706 210.815 523.69 210.592 523.69C209.762 523.69 209.2 524.044 208.903 524.75V530H207.639V522.604H208.869L208.89 523.458C209.304 522.797 209.892 522.467 210.653 522.467C210.899 522.467 211.086 522.499 211.214 522.562V523.738ZM211.911 526.233C211.911 525.509 212.052 524.857 212.335 524.278C212.622 523.7 213.019 523.253 213.524 522.938C214.035 522.624 214.616 522.467 215.268 522.467C216.275 522.467 217.088 522.815 217.708 523.513C218.332 524.21 218.645 525.137 218.645 526.295V526.384C218.645 527.104 218.506 527.751 218.228 528.325C217.954 528.895 217.56 529.339 217.045 529.658C216.535 529.977 215.947 530.137 215.281 530.137C214.279 530.137 213.465 529.788 212.841 529.091C212.221 528.394 211.911 527.471 211.911 526.322V526.233ZM213.183 526.384C213.183 527.204 213.372 527.863 213.75 528.359C214.133 528.856 214.643 529.104 215.281 529.104C215.924 529.104 216.434 528.854 216.812 528.353C217.191 527.847 217.38 527.14 217.38 526.233C217.38 525.422 217.186 524.766 216.799 524.265C216.416 523.759 215.906 523.506 215.268 523.506C214.643 523.506 214.14 523.754 213.757 524.251C213.374 524.748 213.183 525.459 213.183 526.384ZM223.3 530.137C222.297 530.137 221.481 529.809 220.853 529.152C220.224 528.492 219.909 527.61 219.909 526.507V526.274C219.909 525.541 220.048 524.887 220.326 524.312C220.609 523.734 221.001 523.283 221.502 522.959C222.008 522.631 222.555 522.467 223.143 522.467C224.104 522.467 224.852 522.784 225.385 523.417C225.918 524.05 226.185 524.957 226.185 526.138V526.664H221.174C221.192 527.393 221.404 527.983 221.81 528.435C222.22 528.881 222.739 529.104 223.368 529.104C223.815 529.104 224.193 529.013 224.503 528.831C224.813 528.649 225.084 528.407 225.316 528.106L226.089 528.708C225.469 529.66 224.539 530.137 223.3 530.137ZM223.143 523.506C222.632 523.506 222.204 523.693 221.857 524.066C221.511 524.436 221.297 524.955 221.215 525.625H224.92V525.529C224.883 524.887 224.71 524.39 224.4 524.039C224.09 523.684 223.671 523.506 223.143 523.506ZM229.719 526.575L228.926 527.402V530H227.661V519.5H228.926V525.851L229.603 525.037L231.906 522.604H233.444L230.566 525.693L233.779 530H232.296L229.719 526.575ZM239.487 523.499C240.048 522.811 240.777 522.467 241.675 522.467C243.238 522.467 244.026 523.349 244.04 525.112V530H242.775V525.105C242.771 524.572 242.648 524.178 242.406 523.923C242.169 523.668 241.798 523.54 241.292 523.54C240.882 523.54 240.522 523.649 240.212 523.868C239.902 524.087 239.66 524.374 239.487 524.729V530H238.223V519.5H239.487V523.499ZM249.96 530H248.688V521.571L246.139 522.508V521.359L249.762 519.999H249.96V530Z" fill="#959595"/>
<circle cx="251" cy="183" r="12" fill="#333333"/>
<circle opacity="0.5" cx="287" cy="183" r="12" fill="#333333"/>
<circle opacity="0.5" cx="323" cy="183" r="12" fill="#333333"/>
<path d="M252.243 188H250.589V180.009L248.148 180.843V179.441L252.031 178.013H252.243V188Z" fill="white"/>
<path d="M290.438 188H283.745V186.858L287.061 183.242C287.539 182.709 287.879 182.265 288.079 181.909C288.284 181.549 288.387 181.189 288.387 180.829C288.387 180.355 288.252 179.972 287.983 179.681C287.719 179.389 287.361 179.243 286.91 179.243C286.372 179.243 285.955 179.407 285.659 179.735C285.363 180.063 285.215 180.512 285.215 181.082H283.554C283.554 180.476 283.69 179.931 283.964 179.448C284.242 178.961 284.636 178.582 285.146 178.313C285.661 178.045 286.254 177.91 286.924 177.91C287.89 177.91 288.651 178.154 289.207 178.642C289.768 179.125 290.048 179.795 290.048 180.651C290.048 181.148 289.907 181.67 289.624 182.217C289.346 182.759 288.888 183.377 288.25 184.069L285.816 186.674H290.438V188Z" fill="white"/>
<path d="M321.666 182.265H322.678C323.188 182.26 323.591 182.128 323.888 181.868C324.188 181.608 324.339 181.232 324.339 180.74C324.339 180.266 324.214 179.899 323.963 179.64C323.717 179.375 323.339 179.243 322.828 179.243C322.382 179.243 322.015 179.373 321.728 179.633C321.44 179.888 321.297 180.223 321.297 180.638H319.636C319.636 180.127 319.77 179.662 320.039 179.243C320.312 178.824 320.691 178.498 321.174 178.266C321.661 178.029 322.206 177.91 322.808 177.91C323.801 177.91 324.58 178.161 325.146 178.662C325.715 179.159 326 179.852 326 180.74C326 181.187 325.856 181.608 325.569 182.005C325.287 182.397 324.92 182.693 324.469 182.894C325.016 183.08 325.43 183.374 325.713 183.775C326 184.176 326.144 184.655 326.144 185.211C326.144 186.104 325.836 186.815 325.221 187.344C324.61 187.872 323.806 188.137 322.808 188.137C321.851 188.137 321.067 187.882 320.456 187.371C319.845 186.861 319.54 186.182 319.54 185.334H321.201C321.201 185.771 321.347 186.127 321.639 186.4C321.935 186.674 322.331 186.811 322.828 186.811C323.343 186.811 323.749 186.674 324.045 186.4C324.341 186.127 324.489 185.73 324.489 185.211C324.489 184.687 324.334 184.284 324.024 184.001C323.715 183.718 323.254 183.577 322.644 183.577H321.666V182.265Z" fill="white"/>
<rect x="92.5" y="92.5" width="390" height="827" rx="27.5" stroke="#333333" stroke-width="15"/>
<rect x="469" y="97" width="9" height="58" fill="#333333"/>
<rect x="95" y="95" width="381" height="13" fill="#333333"/>
<rect x="95" y="97" width="9" height="58" fill="#333333"/>
<rect x="946" y="97" width="9" height="58" fill="#333333"/>
<rect x="572" y="95" width="381" height="13" fill="#333333"/>
<rect x="572" y="97" width="9" height="58" fill="#333333"/>
</svg>
